<svg width="110" height="82" viewBox="0 0 110 82" xmlns="http://www.w3.org/2000/svg">
    <path d="M109.362 2.602v-.01c-3.08-.024-6.16-.04-9.242-.106-3.465-.07-6.927-.14-10.39-.213-3.44-.07-6.875-.14-10.31-.208-3.255-.065-6.505-.132-9.756-.2-1.11-.023-2.222-.043-3.333-.064l-1.02.554-.453.024-.67-.12-1.33-.43h-.076l-.023-.007-7.818-.126-.32 1.81-2.4.246-.07-2.05-.047-.005v-.003L49.027 1.4c-3.04-.123-6.08-.243-9.12-.363L29.01.603c-2.85-.113-5.7-.225-8.552-.34L13.81 0l-.002.005-.13-.005c-.22 3.463-.43 6.93-.64 10.393-.194 3.222-.398 6.44-.593 9.66-.195 3.233-.372 6.47-.585 9.704-.227 3.495-.437 6.994-.643 10.495-.207 3.47-.44 6.938-.647 10.41-.18 3.09-.366 6.182-.57 9.27.018.034.038.073.06.108.096-.01.193-.018.29-.027.8 1.455 1.592 2.91 2.403 4.357l.86 1.29-.91.71a1634.422 1634.422 0 0 0-8.385 5.39c-1.17.754-2.343 1.507-3.513 2.26L0 74.576l.317.55a540.04 540.04 0 0 0 2.775 4.543l.185.222.247.194.14.126.186.25.283.672.202.64 1.31-.76.707-.372.203-.102.185-.3 1.175.983 1.088-.082 1.043-.765.976-1.096.523.663 1.07-1.895.926.383.606-.07 2.1-1.426.795-.36 2.5-1.748.454-.138.42-.843 1.008-.59 1.113-.34.753-.113.47-.174.644-.76.466-.18.47.13.803.48.493-.023.4-.325.723-1.01.22-.21.185-.14.187-.675.233-.302.12.086.183.227.215.203.255.015 1.916-1.51.38-.083.66.46.286.52.388.3 1.022-.218.756-.322.288-.275.2-.443.537-.852.502-.442 1.244-.602.574-.548.372-.236a36.073 36.073 0 0 1 .272.16l1.583-.11.71-.28.518-.57 1.47-2.153 2.13-2.14.15-.4.473-.763.523-.512.24.362.15 1.83.436.89.744.275 3.36-.1.593.32.416.143.93-.76.596-.214 2.173-.156.773.156.558.337.51.412.557.31.727.01.454-.316.44-.553.522-.505 3.26-.768 1.315.39 2.362 1.186.625-.506h.403l.04.11.03.03.097.263.154.163.203.144.307.36.72-1.082 1.17-.84 1.28-.546 1.1-.16 2.43.953 1.2.097 1.075-1.052-.215-.114-.07-.058.114-.11-.213-.115-.35-.293.55-1.755-.534-1.23-.1-.11-.07-.156-.875-.954-.56-1.09 1.083.12.84.537.405.545.265.723-.034.717-.22.597-.15.542.185.568.118.102.057.175.354.312.792.368.407.392 1.836.836 3.48-2.166 1.535 1.036.34-2.07 1.505.107 1.855.818 1.417.07.538-.887.354-1.853.663-.47 2.7 2.685 3.628-2.024.543-.13 3.73-.096.726.15.712.397.3.28.017.437-.91.175v.54l.3-.045v.317l1.89-.277.354-1.553.505-3.96.335-1.06.376-.623.744-.206c.168-2.703.333-5.407.487-8.112-.014-2.303-.03-4.61-.05-6.914-.026-3.23-.046-6.46-.07-9.693-.027-3.482-.05-6.966-.08-10.45-.026-3.507-.047-7.015-.074-10.52l-.01-1.3-.034-.853-.318-.002zM52.295 35.187c-.197.29-.294.668-.294 1.136 0 .39-.115.74-.35 1.055a3.47 3.47 0 0 1-.917.83 6.39 6.39 0 0 1-1.27.622c-.47.173-.936.314-1.398.422-.46.108-.905.19-1.328.246a8.217 8.217 0 0 1-1.035.082c-1.317 0-2.466-.117-3.445-.35-.98-.236-1.796-.63-2.445-1.185-.65-.553-1.14-1.28-1.46-2.178-.32-.9-.48-2.012-.48-3.34 0-1.077.202-2.01.61-2.8a5.72 5.72 0 0 1 1.634-1.955c.682-.515 1.48-.9 2.387-1.148.91-.25 1.86-.375 2.847-.375 1.16 0 2.12.15 2.88.454.762.305 1.397.636 1.905.996.51.36.933.69 1.27.996.34.305.67.457 1 .457.8 0 1.2-.39 1.2-1.17 0-.282-.047-.61-.14-.985a4.127 4.127 0 0 0-.425-1.055 3.272 3.272 0 0 0-.682-.844 1.322 1.322 0 0 0-.893-.35c-.173 0-.344.02-.517.056a1.18 1.18 0 0 0-.47.223 9.25 9.25 0 0 0-2.505-.808c-.87-.15-1.743-.223-2.622-.223-1.363 0-2.67.16-3.914.48-1.245.32-2.347.83-3.303 1.522a7.588 7.588 0 0 0-2.28 2.66c-.568 1.077-.85 2.365-.85 3.864 0 1.766.235 3.245.705 4.44.47 1.195 1.16 2.155 2.07 2.88.908.728 2.025 1.243 3.35 1.548 1.326.304 2.85.457 4.574.457.783 0 1.576-.06 2.385-.175a11.285 11.285 0 0 0 2.34-.598 8.728 8.728 0 0 0 2.092-1.125 6.55 6.55 0 0 0 1.645-1.757c.173-.267.33-.566.47-.902.14-.337.212-.66.212-.973 0-.482-.103-.865-.306-1.147-.203-.28-.58-.42-1.13-.42-.55 0-.92.142-1.115.432zM84.91 25.99a5.695 5.695 0 0 0-1.2-1.404c-.227-.188-.427-.28-.6-.28-.315 0-.597.07-.847.21h-17.33a1.322 1.322 0 0 0-1.446.01 3.52 3.52 0 0 0-.634.54 6.18 6.18 0 0 0-.54.668 31.4 31.4 0 0 0-.436.632.695.695 0 0 0-.083.504.924.924 0 0 0 .26.445c.13.132.29.243.47.328.18.085.355.13.528.13.315 0 .638-.115.976-.34a9.05 9.05 0 0 0 .835-.622h7.22v12.63a1.3 1.3 0 0 0-.648.41 1.073 1.073 0 0 0-.247.716c0 .202.047.398.14.586a.81.81 0 0 0 .448.4h3.504a.41.41 0 0 0 .282-.106.932.932 0 0 0 .2-.258 1.526 1.526 0 0 0 .176-.62c0-.314-.082-.554-.247-.727-.16-.173-.394-.296-.69-.375V26.81h7.195c.094.095.215.198.364.306.15.108.305.214.47.316.164.103.332.185.505.246.174.062.33.094.47.094.315 0 .58-.13.8-.387.22-.257.33-.536.33-.83 0-.127-.074-.315-.224-.564z" fill="#B68D2D" fill-rule="evenodd"/>
</svg>
