<svg width="80" height="141" viewBox="0 0 80 141" xmlns="http://www.w3.org/2000/svg">
    <path d="M78.573 128.866c-.11.29-.44.22-.556.518-.167.428.258.867-.148 1.137 0-.553.223-1.165-.356-1.362-.042.215-.085.43-.13.644-.187-.826-1.648-.784-2.426-.953a7.833 7.833 0 0 1-.006-.16c.643-.26 1.23-.317 1.906-.38.585-.053.237-.54.81-.035.61-.715.19.44.773-.317l.464.722a.742.742 0 0 0-.333.186c-.07.187.034-.09 0 0zm-.517 7.15c-.243-.334-.27-.857-.062-1.53.203.493.118.987.062 1.53zm.037-2.5v.685c-.42-.16-.42-.16 0-.682zm-.66-2.038c-.264-.378-.456-.353-.577.074-.347-.384-.206-1.21.41-.49.265-1.122.167.125.167.416-.117-.086 0-.27 0 0zm-1.548-1.555c.34-.115.42.06.505.43-.222-.19-.35-.3-.505-.43zm.11 2.298c.243-.04.408-.067.396.333-.152-.13-.25-.21-.395-.33zm-.7-1.97c.03-.118.057-.237.086-.355.167.118.33.237.498.354h-.58c.026-.12.175 0 0 0zm-.64-4.493l.27-.682c.15.208.297.417.444.624-.24.02-.477.04-.715.057.106-.27.227-.018 0 0zm3.237-16.355v-.818c.283.282.297.515 0 .82zm.1 2.393c.054.145.105.29.16.436l-.174.054c-.19-.613-.245-.35.014-.49zm-.353 1.186l-.125.42c-.18-.647-.32-1.333.057-1.946 0 .715-.08 1.243.72 1.243.008.042.015.085.02.127-.224.05-.45.104-.674.156-.03.1.27-.064 0 0zm-.345-4.946c.425.478.217 2.406.243 3.186-.482-.843-.23-2.228-.244-3.187zm.007 13.086l.074 1.053c-.31-.176-.367-.9-.074-1.054.024.352-.27.14 0 0zm-.122-1.834l.082.95-.136.008a1.088 1.088 0 0 1 .055-.958c.028.316-.177.328 0 0zm-.418-1.927c.38-.53.14-.885.243-1.448l.13.013v1.81c-.535-.653-.236-.144-.373-.377zm.16-6.16c-.005-.044-.165-.075-.014-.277.144.148.004.182.015.277zm.23 4.404c-.387-.365-.227-.947-.227-1.455.043-.013.086-.02.13-.034.03.496.064.993.096 1.488-.122-.117-.036-.573 0 0zm-.09-3.147c-.015.172-.026.343-.04.515-.057-.413-.353-.71.04-1.076.003.186.003.374 0 .56-.008.173.005-.156 0 0zm-.906-3.113c0-.708.04-.64.733-.787 0 .602.072 1.392-.064 1.907-.08-.527-.155-1.054-.233-1.582-.146.154-.29.308-.438.462 0-.235.144-.15 0 0zm.244 6.867v-.86c.154.23.286.68 0 .86zm-.388 5.116c-.043-.415.21-.422.473-.414-.145.127-.29.252-.473.414zm.04 4.767l-.45.414a32.242 32.242 0 0 0-.142-.414h.59c-.167.155-.15 0 0 0zm-.28-13.843l-.166-.205.14-.082c.1.12.022.27.027.288zm.354-4.336c-.133-.336-.1-.49.098-.46v.475a3.124 3.124 0 0 1-.098-.017zm-.232 7.462c-.157-.334-.136-.49.063-.47.156.334.135.49-.063.47zm.25.538c-.013.305-.187.22-.55.358-.434-.62.29-.478.55-.358zm-.706 4.805c-.382.205-.492.207-.78.037.238-.34.5-.013.78-.04zm-.3-7.125c.437.175.72.074.36.53l-.36-.53c.264.106.163.24 0 0zm.047-5.35l.326-.053c-.15.377-.226.07-.324.054zm.34 1.647c-.45.318-.592.2-.43-.358l.43.358c-.172.064-.173-.146 0 0zm1.838 14.667c-.298-.09-.37-.26-.212-.586.27.17.396.32.214.585zm-.272.696c.37.075.407.224.15.69a57.46 57.46 0 0 0-.15-.69zm.327 1.327v.432c-.273-.19-.277-.308 0-.432zm.313-11.468c-.002.842-.002 1.684-.002 2.527h-.134c-.03-.64-.063-1.277-.09-1.917-.018-.43-.212-1.395.102-1.717l.122.945c.24.027.505.016.347.363l-.346-.202c-.003.6.113.065 0 0zm.013 10.16a.686.686 0 0 1 .252-.22c-.012.293-.026.587-.04.88-.304-.128-.253-.402-.212-.66zm-.022-4.096c.104.14.093.473.093.75l-.15-.01.06-.74zm.05-.76c.04.16.076.323.114.486a41.38 41.38 0 0 1-.16.034c-.158-.6-.257-.415.045-.52zm-.028-1.21c-.346-.26-.13-.86-.09-1.25.304.347.22 1.68-.003 2.09-.137-.23-.014-.63.093-.84zm-4.6-13.15c.678.066 1.405-.293 2.104-.307 1.12-.022 2.076-.323 3.142.103-.203.232-.406.46-.608.693-.464-.285-.258.217-.496.384l-.4-.444-.067 1.767c-.265-.587-.034-1.234-.412-1.8-.074.21-.15.42-.222.63-.114-.135-.23-.268-.345-.4l-.22.503c-.426-.796-1.642-.59-2.475-1.13.67.066.74.48 0 0zm-.483 1.512c-1.3-.327-2.848-.065-4.178.017-1.8.11-3.608-.05-5.407-.02-.85.015-1.718-.036-2.565.04-.63.06-1.327-.165-1.94.01-.714.2-1.302-.295-1.935-.533-.988-.37-2.012-.663-3.01-1.005.578-.4.334-2.087.366-2.695.05-.96-.06-1.907-.01-2.885a51.403 51.403 0 0 0-.05-3.213c-.014-.4.29-.43.36-.757a3.62 3.62 0 0 1 .202-1.64c-.867-.053-1.798-.076-2.64.177-.435.133-2.122.14-2.455-.23.616-.113.9.07.894-.68-.006-.543-.106-1.076-.135-1.614-.04-.763-.406-.87-.566-.056l-.317 1.602c-.72-.34-.29-1.753-.684-2.24l.495-.08c-.08-.153-.7-1.685-.012-1.503.254.672.39 1.93 1.258 1.21-.402-.153-.127-.692-.063-1.07.33.394.844.66.726 1.26.125 0 .552.026.64 0-.11-.53-.012-.255-.208-.47.515-.18.065-.664.3-.995.388.314.775.628 1.163.94-.86.748 1.907.405 2.392.473-.693.338-1.46.148-2.192.18-.78.034-.702 1.557-.947 2.22-.107-.3-.485-.348-.31-.746.177-.396-.134-1.195-.21-1.603-.202.102-.45.263-.645.39.54.34.054.446-.053 1.04-.104.58-.464.974-.307 1.61.52-.228 1.145-.1 1.66-.04 1.285.153 2.75-.076 4.065-.04.686.02 1.303-.25 1.985-.26.548-.01 1.055-.005 1.576-.21.29-.113.93.044 1.298-.03.59-.117.984-.143 1.535-.4.064.457 1.423-.27 1.868-.175.74.162 1.014.852 1.8 1.067 1.84.503 3.695.963 5.463 1.685.245-.704.066-2.12-.49-2.595.4-.12.472-.33.22-.634.102-.006.886.01.964-.062.104-.376.524-1.162-.088-1.31 1.05-.115.225-.392-.207-.482.73-.283.47-.3.045-.938.388.098.6.29.486.732-.014 0-.02.005-.017.017l.22-.172c.376.658.01 1.33-.135 1.99l1.092-.136c-.132 1.21-1.54-.378-1.81.718-.172.7.4 1.655.063 2.315-.215.422.092.684.238 1.386.366 1.753.312 3.797.335 5.59.014 1.017.163 1.862.03 2.862-.13.984-.4 1.482.547 1.93-.23.052-.462.07-.698.05-.607-.15.195.05 0 0zm-.067.63h.515c-.052.166-.322.16-.514 0zm-3.67.845c.015-.147.03-.294.043-.44.24.1.482.202.722.305-.19.38-.46.26-.764.135.014-.128.3.123 0 0zm-.3.608c-.258-.012-.453.034-.605-.133l.7-.39c-.48 0-1.232.064-1.564-.096.853-.18 1.938-.717 1.47.62-.223-.01.082-.235 0 0zm-2.514-.39l-.074-.168.79-.15.03.146c-.25.057-.498.112-.747.17zm-2.183-.048c.103-.01.42-.198.546 0h-.546zm-1.06.27c.082-.058.002-.414.39-.14-.13.046-.26.092-.39.14zm-2.013 0a16.968 16.968 0 0 0-.01-.23c.523.033 1.506-.17 1.92.143-.632.17-1.265.107-1.91.09zm-2.25-.044c.656-.012 1.306-.235 1.963.018-.654.007-1.304.294-1.962-.017zm-.516.142c.32-.127-.873-.213.314-.146l.015.11-.33.035zm-.56.67c.408-.225-1.216-.054.41-.207.062.187-.075.258-.41.207zm-1.692-.565c.427-.382 1.41-.417 1.933-.15-.658.218-1.25.305-1.934.15.135-.12.707.16 0 0zm1.287-.58c-.157-.036-1.216.063-1.204.07l-.025-.174c.61-.017.793-.182 1.227.103-.185-.043-.176-.117 0 0zm-2.568-2.138c.168.037.335.07.605.13-.41.435-.42-.104-.605-.13zm-2.12-6.7c-.06.14-.123.28-.185.42a3.13 3.13 0 0 0-.106-.038c.283-.802-.006-.384.292-.38zm-.184-2.6c.325.615.277 1.713.1 2.386-.63-.2-.316-1.986-.1-2.386zm.194-1.134c-.024.156-.05.313-.088.565-.3-.33.002-.42.09-.565zm.498 9.92c.273.186.327-.027.407.43-.387-.445-.7-.292-.93-.75l.52.32zm-.446-10.272c-.264-.01-.355-.09-.274-.237 1.102.23.02-.02.274.235zm-.744 2.84V100c-.404-.403-.21-.66 0-.974zm-.53-.76c-.102.106-.203.214-.303.32-.06-.185-.117-.37-.173-.556l.474.235c-.09.098-.15-.074 0 0zm-.276-1.05l-.193.193c-.22-.28-.136-.458.2-.568l-.008.373zm3.89 10.63c-.822.1-1.665.047-2.503.124-1.077.097-2.146.064-3.226.05-1.444.255-3.07.13-4.592.21-1.134.06-10.285 1.036-10.365.643-.467.65-.78.085-1.513.146-.42.032-.765-.02-1.153-.01-.526.3-1.1.02-1.656.107-.837.135-1.536.23-2.28.64.167-2.184-.49-4.367.076-6.446.48.25.8.137 1.34.015.47-.106 1.083.012 1.46-.167.218-.104.74-.02.94-.07.49-.118 1.02-.06 1.546-.087 2.974-.15 5.97-.446 8.938-.63 1.538-.094 3.156.03 4.675-.18.38-.052 1.38-.447 1.418.08.058.75.044 1.52.09 2.273.06.987-.223 2.746.496 3.528.228.11.204-.545.58-.155.482-.1 1.227-.53 1.41-.118.29-.515-.09-.837.185-1.417.356-.754 1.283-1.002 1.3-1.68.016-.644-.25-3.334.375-3.78 0 .463-.144.65-.196 1.017-.057.39.09.86.07 1.27-.03.6-.113 1.16-.088 1.768.034.85-.837.52-.984 1.337-.116.633-.434 1.362.417 1.298.653-.048 1.256-.128 1.898.023.523-.475 2.602-.22 3.15.11-.603.03-1.21.023-1.808.1-.413.05.597-.076 0 0zm-8.59 2.42c.403-.268.403-.268.824-.093l-.823.093zm-.513.042c-.402.012-.802.004-1.202.004.167-.22.32-.205.59-.227.254-.027.507-.06.76-.1.106.182.057.29-.148.323-.396.012.23-.01 0 0zm-2.847.043l-1.436.118c.42-.385.95-.2 1.447-.293-.003.06-.008.117-.01.177zm-2.348.17a14.697 14.697 0 0 0-.68-.003c.32-.41.794-.29 1.238-.264a.544.544 0 0 1-.558.267c-.225-.01.23.01 0 0zm-2.692.01c.41-.307.41-.307 1.604-.176-.344.305-.414.312-1.604.177zm-1.48-.042h.966c-.396.296-.665.27-.966 0zm-.5.214c-1.198-.242-2.19.395-3.454.202-.547-.083-.616-.16-.675.495-.037.417-.02.725-.11 1.153-.5 0-.678.19-.75-.377-.05-.403-.41-1.994.52-1.774.28.065.313.357.56.43a1.65 1.65 0 0 1 1.04-.16c1.07.187 2.18-.454 3.174-.285.006.216-.095.32-.305.316-.374-.076.187.04 0 0zm-8.19 1.396c-.24-.238-.138-.993-.138-1.45.46.457-.017.935.137 1.45zm-.71-23.59c.878-1.282 4.604-.535 6.018-.71 1.14-.144 2.287-.086 3.43-.054.33-.047 1.112-.047 1.388-.17.66-.296 1.983-.14 2.72-.204.91-.08 1.87-.19 2.78-.204 1.67-.025 3.234-.035 4.923.14-.722.416-.537.976-.575 1.778-.047.983.738.2.82.998-.355-.33-1.798.057-2.462.123-1.07.107-2.105-.113-3.204.043-1.704.24-3.434.306-5.236.153-.317-.027-.877.3-1.254.32-.768.044-1.48.204-2.238.287-1.105.12-2.23.034-3.313.114-.1.403-2.314.38-2.707.313-.206-.034-.48-.364-.556.073-.096.535.046 1.043-.098 1.605-.287-1.52.137-3.13-.437-4.603.072-.105.574 1.474 0 0zM26.106 111c-.36-.04-.708.066-1.066-.036v1.668l-.137.004v-1.408c-.43-.29-.31.197-.63.234-.195-.51-2.26-.66-2.805-.8-.007-.948 2.595-.012 2.808-1.186.17.233-.01.54.417.555.078-.293.156-.59.235-.88.26.386.248.42.055.845.56.067 1.172-.09 1.71.144.787.344-.114.92-.587.862-.348-.04.32.04 0 0zm-.78.893c-.068-.364-.068-.364.44-.34l-.44.34zm.317 3.687l-.258.166-.065-.09c.148-.172.29-.065.323-.076zm-.174-.24c.265-.196-.903.255.26-.24l.05.115-.312.125zm-.57 1.144c.077.198.08.65.08.937-.626-.34-.347-.39-.08-.935zm.067-1.114v.475c-.213-.105-.002-.46 0-.475zm.02 12.896v.628c-.218-.034-.24-.226 0-.628zm-.004-13.568c-.057-.205-.058-.872 0-1.086v1.086zm-.722 6.42c.136.365.15-.994.15.35l-.105.008-.044-.358zm1.79 10.073c-.744.105-1.47.237-2.23.187-.437-.03-.827-.15-1.23-.314-.515-.207-.353-.272-.3-.776.52.557 1.493-.308 2.04.176.075.064.755-.097.846-.123.392-.12.852.055 1.238.126-.12.242-.24.483-.362.725-.49.07.075-.15 0 0zm-.996 7.926c.113-.218.208-.403.332-.647.012.304.153.602-.332.646zm-.086-4.388c-.32-.318-.358-.79-.13-2.02.208.525.233 1.115.13 2.02zm-.166 1.803c-.015-.357-.35 1.21-.05-.37l.116.023-.066.348zm-.56-3.07c-.123-.522-.02-1.06.056-1.58.032.5.202 1.317-.056 1.58zM21.29 81.998c-.117 1.06-.12 2.085-.172 3.142-.434-.875-2.588-.11-3.35-.124-.512-.007-1.076-.21-1.574-.023-.58.218-.354 1.16-.386 1.75-.054.994-.666 1.74.73 1.61 1.417-.13 2.832-.13 4.253-.13-.3-.758-.06-.64.083-1.32.098-.47-.554-1.452.28-1.598-.035.317-.028.577-.193.86-.11.167-.06.288.14.367-.19.107-.26.226-.21.36.005.657.307 1.4-.488 1.722.82.388.363 2.24.337 3.103-.02.577-.038 1.154-.056 1.73-.51.135-.833.012-1.222-.328-.848-.274-1.59-.436-2.414-.84-.813-.397-1.882-1.146-2.75-1.146.32-.307.52.296.7-.21.19-.535-.05-.805.36-1.275-.57-.518-.125-1.41-.094-2.17.037-.87-.066-2.318.306-3.113.25-.534.455.23.176-.74-.24-.832-.192-.306.05-.87.347-.807-.13-1.99.05-2.855.237-1.137.054-2.332.137-3.486.017-.225-.24-1.03.206-.946.366.07.82.396 1.212.506.936.26 2.04.287 2.926.65.524.218 1.846-.148 2.013.415a3.072 3.072 0 0 1 1.753.22c-.66.12-1.423-.483-1.97-.126-.353.23-.344 1.366-.43 1.756-.226 1.014-.288 2.075-.404 3.106-.078.703.1-.89 0 0zm-2.324 11.986c.377-.036.543.148.362.403l-.362-.403c.383-.037.157.176 0 0zm.024.55c-.323.044 1.114.237-.324.072l.02-.107c.1.013.202.023.304.036zm-1.168-.973c.138-.244.5-.17.563.113l-.563-.114zm-.642-.162l.438-.122.03.1-.434.143c-.01-.043-.023-.083-.034-.123zm-2.5-1.12c.31.006-.616-.28.347-.03l-.05.12-.297-.09zm6.042 2.846c-.048.666.174 1.924-.35 2.36.41-.007.482.176.212.547-.12.45.16.68.076 1.08-.114.54-.062 1.133-.264 1.656-.085-.53-.462-.912-1.027-.465-.297.23-1.87.143-2.27.143-.587-.002-1.4.15-1.925.002-.648-.183-1.197.12-1.48.615-.28-.544-.02-1.04.162-1.556l.22.6c.46-.36.428-1.607.48-2.14.05-.516.208-.91.192-1.444-.026-.86.174-1.19-.6-1.635.366.02.69-.073.625-.508l1.88.514c-.02.38.21.373.533.545 1.05.563 2.114 1.107 3.165 1.674 0-.777-.293-2.676.305-3.27.116.42.092.85.062 1.285-.05.68.03-.42 0 0zm-7.658 8.36c.026-.21.297-2.766.682-2.303.225.273-.387 2.045-.682 2.306.086-.71.694-.614 0 0zm-.626-9.5c.307-.175.382.15.58.3-.323.097-.566.105-.58-.3zm-.328-3.205c.082-.92 1.13-.65 1.513-.18-.51.18-.985-.05-1.513.178.036-.406.473-.203 0 0zm.08 19.77l-.582.24c.08-.604-.06-.44-.577-.524.386-.518.885-.093 1.16.282-.186.076-.43-.585 0 0zm-.807.112c-.104-.028-.21-.06-.313-.087l.05-.14c1.227.476.003.06.263.227zm-1.316 2.118c.043-.76.882-.064 1.054.307-.35-.103-.7-.204-1.052-.306.004-.07.37.11 0 0zm-.84-.442v-.798c.226.267.452.533.68.798h-.68c0-.19.23 0 0 0zm.08-2.21l-.114.927c-.216-.564-.216-.564.114-.926zm.308-9.5c-.16.37-.31.474-.63.09l.63-.09zm.47 8.517l-.586.654c-.06-.6-.06-.6.585-.656zm.663-1.997c-.115-.185-.22-1.173.306-.996-.06.184-.262 1.358-.498 1.463l.192-.467zm.23-34.29c.202-.128.403-.255.605-.38l-.137.557a84.47 84.47 0 0 0-.47-.178c.19-.118.136.05 0 0zm.594 1.433c.21-.214-.248-.26.52.085l-.088.17c-.143-.084-.287-.17-.432-.253zm.058 3.96l.32-.345.22.53-.54-.184c.12-.13.16.056 0 0zm-.087 12.74c.205.227.147.436.147.75-.208-.29-.215-.4-.147-.75zm.532 2.76c-.622-.203-.585-.65-.765-1.167l.12-.06.645 1.227c-.73-.24-.254-.484 0 0zM8.83 68.69c-.382-.07-.65-.282-.885-.582.81-.105 1.867.377 2.66.585.873.23 1.787.4 2.627.744.196.08.14.27.196.292.418.165.19-.547.584.054.488.05.938-.14 1.187.56-1.958-.802-4.22-1.268-6.37-1.655-.388-.07 1.016.18 0 0zm1.904 4.26l-.36-.156c.03-.05.06-.1.088-.152 1.256.734.01.09.272.308zm-.622.04a97.353 97.353 0 0 1-.237-.437c.304-.053.235.15.237.437zm-.94-20.11c-.325-1.455-.6-3.055-1.01-4.546-.196-.71-.17-1.415-.342-2.134-.142-.602-.195-2.154-.594-2.61-.396-.452-.402-1.333-.522-2.04-.173-1.016-.326-2.248-.628-3.222a30.445 30.445 0 0 1-1.11-5.102c-.073-.57-.403-1.183-.397-1.68.01-1.057-.366-2.043-.575-3.066-.188-.923-.336-1.86-.51-2.786-.086-.47-.085-.473-.35-.773.176-.642.047-.606-.08-1.164-.103-.46-.09-2.286-.5-2.478-.035-.445-.253-1.404-.226-1.972.042-.86-.44-4.24.84-4.418-.086.978-.91 3.48-.164 4.177-.46.437.052 1.233.107 1.797.126 1.304.356 2.595.564 3.887.346 2.152 1.044 4.155 1.29 6.312.06.516.237 1.007.33 1.517.058.33-.2.27.02.68.484.9.563 2.232.697 3.22.225.812.327 1.67.577 2.506.17.565.12 1.398.54 1.85.427.458-.1.573.11 1.18.415 1.207.71 2.456.89 3.72.06.442.814 2.64.65 2.75-.032.022.026.873.02.85.073.25.23.435.464.55a2.455 2.455 0 0 0-.095.707c.12.875.382 1.83.57 2.724.43 2.086.45 4.31.91 6.37.64.63.51 2.66.57 3.497.05.69.375 2.352-.1 2.862-.45-1.847-.458-3.767-.693-5.635-.154-1.21-.407-2.4-.57-3.61-.166-1.25-.3-2.716-.687-3.915zm-1.04.677c.756-.653-.322-.5.313-1.093.275.116.246.81.508 1.093h-.82c.187-.162.325 0 0 0zM6.02 42.25v-.467c.238.167.432.343 0 .466zM5.017 19.934l.064.007c.188-.002.19.14.008.428-.04-.007-.077-.01-.116-.016l.047-.42zm.392 2.62l-.34.167v-.67c.112.17.226.337.34.505-.12.058-.107-.157 0 0zm-.09-6.232c-.016.308-.025.49-.037.687-.4-.153-.4-.153.038-.688zm.136 8.897c.28.28.49 1.55.27 1.865 0-.73-.256-1.15-.27-1.866.33.33.007.4 0 0zm.382 4.09c.114-.31.13-.567.397-.68l.046.9-.443-.22c.09-.24.122.06 0 0zM5.72 27.44c.36.062.234.267.222.55l-.222-.55zm.224 3.605c-.13-.168-.237-.303-.34-.433.327-.075.327-.075.34.433zm.424-.128v-.67l.11-.003c0 .29.057.554-.11.672zm.088 4.997l.068.47a1.91 1.91 0 0 0-.105.017c-.2-.895-.217-.338.037-.487zm.894-.168c-.07-.365-.14-.714-.236-1.2.447.357.493.765.236 1.2zm-.545-2.893c-.018-.195-.033-.352-.05-.553.373.18.203.346.05.553zm.27.556l.193.81c-.37-.292-.37-.292-.192-.81zM9.81 46.636c.3-.087.117-.14.29.475l-.104.03-.186-.504zm.08-.965c-.238-.11-.432-.94-.4-1.186l.4 1.187c-.438-.2-.083-.243 0 0zm-.18 1.59c.017.327-.26.303-.588.437.145-.3.308-.342.59-.438zm-.8-4.487c.158.095.248-.23.21.338l-.21-.337zm.02 3.846c.198.274.198.274.06.57-.19-.204-.337-.376-.06-.57zm-.862-7.975c.26.054.236.3.322.59l-.165.045-.157-.634zm-.306-.806c-.025-.32-.05-.64-.073-.96.295.2.526.92.073.96zm.83 3.07l-.352-1.34c.035-.014.072-.025.11-.038.38.828.67 1.857.67 2.75l-.148.012c-.242-.828-.547-.812-.976-1.425.233.012.464.027.697.04-.13-.5-.27-.016 0 0zm.992 7.77c.077-.123-.04-.155-.356-.1l.01-.11.508-.09c-.28.518.246.287-.168.76.166-.273.168-.43.006-.46zm3.044 16.855c-.003-.015.186.307.03.46-.012-.153-.02-.306-.03-.46zm.275 1.956c-.02.38-.02.38-.395.444.128-.144.245-.277.395-.443zm-.575-3.44l-.12-1.59c.375.085.446 1.515.12 1.59zm-.09 3.704c-.01.34.56-.662.01.35-.037-.012-.076-.022-.115-.033.036-.105.072-.21.106-.316zm-.03-6.825c.128.27.108.4-.062.39l-.04-.407.1.016zm-.497-2.745l.09-.208.14.035c-.12 1.423.043.07-.125.388-.034-.07-.07-.143-.103-.214zm.088.273c.377.47.385.91.29 1.463-.376-.47-.482-.89-.29-1.463zm-.323-1.773v-.416c.304.15.203.26 0 .416zm.45 11.453c-.305.13-1.607.022-1.693-.162.19-.23.38-.062.56.03.044-.35.96.05 1.132.132-.417.18-.24-.115 0 0zM5.922 18.413c-.217-.563-.13-1.664.013-2.24.183-.724.284-1.884.69-2.503.438-.666.44-1.565.975-2.17.55-.62 1.153-.93 1.804-1.41.334 1.234.227 2.58.384 3.854.185 1.487.296 2.985.43 4.478.233 2.61.675 5.213.81 7.825.124 2.367.202 4.718.35 7.057.078 1.228.398 2.426.443 3.663.048 1.254.405 2.686.278 3.922-.08.772-.082 1.88.18 2.643.246.714.146 1.352.24 2.152.493.575.384 2.48.465 3.258.08.774.128 1.552.19 2.327.03.363.255.61.283.98.157 2.033.352 4.03.712 6.03.218 1.214.245 2.47.486 3.668.24 1.15-.005 2.6.723 3.547-1.003.403 0 .068-.23.692-.187.514-.454.206-.385-.163l-.773.104c-.655.09-.39-.27-.515-.798-.138-.593-.29-1.18-.3-1.806-.024-1.686-.59-3.32-.693-5.014-.114-1.85-.492-3.733-.736-5.58-.034-.26-.257-.32-.287-.51.15-.36 0-.722-.09-1.07-.205-.805.163-1.1-.747-1.476l.56-.167c-.366-.583-.14-1.3-.423-1.903-.28-.6-.197-1.256-.313-1.942-.252-1.477-.467-3.007-.9-4.44-.385-1.27-.38-2.638-.782-3.91-.407-1.29-.495-2.85-.786-4.195-.19-.87-.41-1.733-.613-2.6-.152-.656-.11-1.34-.295-1.975-.29-1.002-.1-2.192-.658-3.125-.164-.198-.144-.38.063-.55-.244-.363-.21-.793-.217-1.205-.01-.693-.13-1.412-.2-2.1a1.02 1.02 0 0 1 .084-.876c-.244-.314-.296-.706-.296-1.09 0-.638.273-.87.077-1.383-.046-.12.08.21 0 0zM10.548 8.8l.364.463c.124-1.65.845.182.258.707-.08-.24-.16-.484-.238-.725l-.55.53c.056-.327.112-.65.166-.975.133.168-.05.305 0 0zm1.34 3.596l-.238.89c-.234-.124-1.456-.522-1.09-.92.39-.426.933-.298 1.33.03zm3.334 27.96c-.034-.434-.212-.757.05-1.174l.278 2.224c-.29-.32-.294-.628-.328-1.05-.027-.352.06.757 0 0zm.508 3.61c-.054-.267-.43-1-.008-1.075.055.403.156.84.008 1.077zm.102 4.07l-.622.195c.19-.277.382-.556.572-.836l.05.642c-.247.078-.017-.225 0 0zm.353-2.07v.816c-.262-.362-.035-.586 0-.815zm-.19-.2c-.368-.226-.397-.492-.09-.798.098.322.24.533.09.8zM13.98 32.502c.2.02.153-.177.4.233l-.4-.232zm.28 1.618v-.594c.195.207.318.378 0 .594zm.155.893l-.038-.532c.063.148.312.273.038.534zm.29.374l.233 1.498c-.578-.496-.45-.99-.233-1.498zM14.9 38.6c.224-.587.18-.436-.053-1.09.045-.01.09-.02.136-.033.028.267.25 1.123-.085 1.122zm-.327 1.937a1.62 1.62 0 0 0 .058-.475l.3.764h-.663l.306-.29c.052-.09-.06.106 0 0zm-.418-7.386c.2-.113.242-.346.12.25a1.79 1.79 0 0 1-.125-.017c.004-.077.005-.155.006-.232zm.02 3.915l.182.503c-.045.01-.09.023-.136.034-.26-.325-.274-.504-.044-.538zm-.538-8.036c.155.15.005.79-.04.963-.05-.706.095-.333-.23-.505l.27-.46c.228.22-.09.15 0 0zM11.72 14.69c-.165-.346-.135-.513.09-.504.095.762.2.428-.09.502zm.48 2.792v.776c-.333-.34-.01-.55 0-.777zm.17 2.503c.393.216.056.486.087.72-.003-.237-.348-.44-.085-.72zm-.426-4.583c.267.362.44 1.505.247 1.887-.22-.294-.37-.55-.365-.927.002-.21-.027-1.288.12-.96zm.81 14.415c-.463-.182-.6-.44-.46-.914l.46.915zM11.38 25.53c.236-.455 1.116-.712 1.528-1.143.465.765.574.904.185 1.676-.444-.49-1.203-.17-1.713-.532zm1.904 2.454l.244-.105.11.964c-.537-.115-.102-.578-.355-.86zM12.43 7.78c1.305-.205 2.485-1.606 3.855-1.57.864.022 1.665-.68 2.586-.665 1.13.02 1.41-.285 1.507 1.187.147 2.214.137 4.435.127 6.652-.01 1.915.524 3.83.343 5.748-.162 1.7.215 3.518.123 5.183.225.33.182.68-.088.967.464.35.3.73.3 1.285 0 .886.024 1.762.1 2.65.335 4.038.398 8.162.407 12.212.002 1.857.505 3.76.235 5.63-.077.53.192.556.273 1.06.08.5.042 1.03.06 1.535.037 1.033.068 1.985.306 2.964.225.924.087 2.062.14 3.016.053.996.374 1.882.413 2.865.07 1.84.477 3.7.688 5.55l.188 1.635c-.264.037-.49-.016-.76.007-.933.083-1.867.176-2.807.176-.75 0-1.543-.026-1.756-.913-.247-1.035-.187-2.477-.238-3.553-.15-3.223-.503-6.467-.83-9.762-.05-.494-.013-1.025-.1-1.53-.065-.374-.105-.85-.54-.85-.52 0-.34.41-.373.864l-.368-.716c-.12.21-.24.422-.362.633-.1-.843-1.66-.43-2.337-.894.293-.085.48-.316.725-.48.325-.214.833-.128 1.21-.22.228-.053 1.038.284.716-.29-.212-.38-.056-.787.187-1.136 0 .49-.234 1.867.526 1.99.717.118-.094-1.715.355-2.126-.91-.862-.824-3.49-1.003-4.68-.217-1.426-.375-2.867-.594-4.36-.08-.553-.53-1.668-.404-1.995.23-.6-.22-1.427-.24-2.01-.064-1.62-.478-3.17-.537-4.776-.06-1.638-.476-3.313-.714-4.935-.31-2.117-.61-4.26-.864-6.383-.152-1.263-1.75-9.766-.46-9.97.4-.062-.315.05 0 0zm7.843-2.773c-.017.017-.025.192-.152.256l-.107-.147c.087-.036.174-.072.26-.11zm2.15 5.695c.506-.265.794.265 1.256.324 0-1.124-.355-2.192-.238-3.263.104-.956-.023-2.033-.023-3 1.14-.07 2.277-.17 3.416-.242.984-.06 5.978-.625 5.942.78-.04 1.587-.346 3.324-.06 4.93.27 1.51-.18 3.08.06 4.587.325 2.008.204 4.188.238 6.222.073 4.12-.27 8.31-.08 12.435.17 3.662.46 7.397.34 11.043-.048 1.502-.21 3.546.14 5.016.24 1.016.003 2.09.35 3.09.158.45-.082.93-.005 1.39.064.39.23.767.167 1.17-.23 1.49.07 3.276.226 4.847.102 1.036.18 2.05.246 3.094.025.4.47 1.894.22 2.24-.178.246-1.574.385-1.81.237-.293-.185-1.19.01-1.606-.057-.913-.145-1.982-.033-2.92-.053-1.043-.024.047.46-.52 1-.412-.444-.04-.457.017-.92.07-.584-.127-1.434-.115-2.076.014-.77 0-1.54.003-2.31-.11-.53-.26-.685-.13-1.075.3-.9-.005-2.363-.172-3.283.298-.335-.056-1.034-.095-1.41-.05-.492-.007-1.338.08-1.83.184-1.015-.21-1.974-.39-2.953-.04-.22.032-.417-.068-.742-.187-.597-.033-1.474-.072-2.104-.165-2.67-.555-5.35-.774-8.063-.222-2.747-.455-5.537-.665-8.314-.112-1.51-.407-3.02-.487-4.524-.027-.538.052-1.114-.028-1.646-.022-.194-.13-.314-.322-.36.084-.26.272-.638.284-.913-.558-.08-.747-5.978-.842-6.875-.158-1.5-.092-3.018-.256-4.52-.155-1.406-1.406-.65-2.42-1.19.306-.337.724-.48 1.115-.683.53-.28-.38.2 0 0zm.13-1.952c-.404-.457-.455-.9-.113-1.26.018.44.295.815.114 1.26zm-.277-3.87c.05.14.32 2.05-.01 1.772-.144-.65-.517-1.33.01-1.773.156.445-.343.286 0 0zm1.156-1.024c-.243.48-.415.48-.518 0h.518c-.133.14-.206 0 0 0zm10.377 7.156c.73-.072 1.147-.462 1.397.494-.387.447-.777.15-1.32.14-.52-.008-.655-.58-.08-.634.146-.014-.226.02 0 0zm1.243-4.494v-.792c.217.397.217.397 0 .792zm.104-1.28c.08.457.08.457-.34.382.12-.133.214-.24.34-.383zm-.28 10.142c.055-.067.107-.134.16-.2.03.144-.01.31-.124.458l-.035-.258zm.39.81c-.14.06-.28.12-.42.182l.135-.578.285.395c-.152.064-.11-.153 0 0zm.078-3.645a.443.443 0 0 1 .174-.483v.89c-.34-.043-.115-.22-.175-.407zm.32 4.045a4.267 4.267 0 0 1-.168-2.01c.314.65.366 1.318.168 2.01zm.215 1.755v1.094h-.113c0-.357 0-.898.114-1.096zm.857-12.918c1.41.017 2.777.28 4.157.555.796.158 2.517.858 3.19.26.26.81.53.407 1.148.73.473.25.12 2.686.12 3.192 0 1.26-.174 2.55-.117 3.804.022.47-.073.804-.19 1.252a1.55 1.55 0 0 1-.007 1.49c.64.17.04.582-.094 1.058-.116.416.07 1.35.047 1.857-.055 1.24-.125 2.478-.144 3.717-.01.76.396 2.57-.323 3.09.598-.07.41 1.432-.107 1.688.67.3.182 1.437.168 2.026-.027 1.057-.02 2.115-.05 3.174-.032 1.114-.074 2.227-.113 3.34-.03.84.128 1.736-.052 2.55-.19.868.003 1.977-.05 2.885-.07 1.132-.074 2.238-.094 3.37-.04 2.22-.053 4.445-.045 6.667.013 4.2.48 8.42.372 12.623-.01.41.193.57-.048.97a10.132 10.132 0 0 0-1.588-.223c-1.072-.07-2.146-.01-3.218.023a28.78 28.78 0 0 1-1.636.012 4.16 4.16 0 0 1-.09-1.048c.02-1.204.14-2.416.09-3.618-.04-.9.14-1.707.054-2.607-.104-1.083-.003-2.166.055-3.248.06-1.062-.074-2.12-.03-3.178.018-.414.05-.843-.22-1.195-.033-.04.134-1.27.134-1.403 0-.464.217-1.99-.2-2.335-.013-.275.047.163.2-.32.07-.226-.023-.773-.016-.99.07-1.968-.285-4.076-.414-6.05-.064-.986-.066-1.985-.16-2.967-.054-.56.158-2.045-.138-2.454-.446-.617-.152-2.213-.16-2.945-.008-.792.01-1.72-.125-2.482-.126-.708-.124-1.666-.143-2.388-.026-1.033-.162-2.05-.16-3.083.003-2.102-.42-4.38-.242-6.324.085-.916-.27-2.103-.296-3.064-.03-1.16-.056-2.32-.076-3.48-.018-1.08-.102-2.142-.1-3.195 0-.787-.51-1.753.714-1.74 1.234.017-.752-.007 0 0zm9.358 22.93c-.264.566-.5.728-1.06.39.275-.072.55-.145.827-.22l-.543-.17h.774c-.106.228-.266 0 0 0zm.408-3.49c.32-.075.64-.12.944.037.693.36.623.57.4 1.223-.57-.67-.128.186-.793-.27-.405-.278-.935-.182-1.393-.216-.04-.67.65-.336.844-.773.692-.16-.164.373 0 0zm1.27-10.93c-.213-.224-.463-.46.13-.535l-.13.536zm.027 8.44l.015.336-.12.013c-.18-1.48.02.02.105-.35zm-.226-6.704v-.55l.146.01c.14.375.09.555-.146.54zM47.5 17.14c.02-.413.037-.824.055-1.237.107.42.216.84-.054 1.236zm.187 5.917c.052.23.267.386 0 .602 0-.19-.024-.413 0-.604zm-.69-11.49l.36.414.332-.38c.15.62.44 1.054-.006 1.547-.09-.388-1.197-.31-1.488-.402-.89-.28.71-.863.8-1.178.13.15-.16.552 0 0zm-.09-4.547l-.713.14c-.023-.17-.045-.34-.07-.512l.783.372c-.294.058-.274-.13 0 0zm.286 1.094l-.526-.16.492-.32.032.48c-.163-.05-.012-.177 0 0zm.065 1.392c-.386-.316-.36-.687-.155-1.09.026.39.078.71.155 1.09-.44-.36-.054-.268 0 0zm.517 1.798c-.1-.288.144 1.235-.185-.37.046-.01.093-.017.14-.027l.045.397zM47.52 7.58c.64.57.357 2.01.132 2.82-.077-.964.065-1.923-.133-2.82.44.393.062.29 0 0zm-.003-3.48c-.013.175.033.39-.2.424l-.308-.655c.34.157.593.23.846.254-.166.084-.206-.03-.34-.026zm.417 37.335v-1.67c.36.61-.012 1.145 0 1.67zm.01 3.493v-.872c.338.445.34.427 0 .872 0-.308.14-.184 0 0zm.58 10.936c.396-1.09.17-2.514.22-3.665.035-.2-.047-.324-.244-.373.054-.245.106-.49.158-.734.14-.782.048-1.637.047-2.43 0-1.075-.155-1.418.084-2.366.326-1.302-.056-3.12-.078-4.468-.024-1.43-.013-2.866-.01-4.3.002-.62-.047-1.243-.037-1.86.004-.25-.132-.947-.07-1.14.36-1.14.098-2.647.11-3.83.004-.69-.026-1.353-.09-2.04.033-.408.23-.586.086-1.04-.274-.873-.08-2.14-.146-3.064a61.607 61.607 0 0 1-.145-4.595c.003-2.756.017-5.46.002-8.205-.004-.626-.268-3.018.762-2.966.207.01.777.437.976.59.454.342.802.87 1.394.986.573.43 4.714 4.946 4.15 5.25.616.464 1.048 1.24 1.31 1.976.25.706.75 1.658.753 2.392.006.888.368 1.9.482 2.797.127.92.186 2.055.17 2.98-.03 1.864-.004 3.745-.266 5.527-.054.363.126.67.234 1.003.074.232-.144.745-.118 1.04.107 1.216-.174 2.425-.302 3.632-.224 2.116-.3 4.288-.412 6.417-.122 2.347.054 4.86-.267 7.184-.28 2.052-.184 4.18-.32 6.24-.07 1.04-.19 2.08-.2 3.124-.004.754.23 3.073-.43 3.342.546.182.076 2.436-.108 3.015-2.813-.812-5.755-.572-8.658-.853.668-.952.867-3.287.56-4.36.334-.648.27-1.506.3-2.23.03-.83-.182-2.212.098-2.98zm3.51-47.64c-.037-.025-.535-.304-.782-.378l.043-.108c.082-.023.69.398.74.485zm-2.16-2.213l.993.3c.44.12.278.323.67.526.296.15.853-.142.563.396.697-.286 1.245.43 1.54 1.107.578.25 1.188.272 1.188.954.444.166.577.517.902.846 1.497 1.51 2.47 3.514 3.696 5.302l-.445.187.256.48.287-.56c.08.33-.126.567.012.882.1.234.327.47.408.7-.214.507.31 1.013.43 1.48.157.61.097 1.277.21 1.902.186 1.023.582 1.853.507 2.79-.102 1.273.107 2.65.125 3.932.02 1.468-.127 2.96-.043 4.42.037.65.04 1.273-.03 1.922-.043.412.127 1.25-.04 1.613-.508 1.094-.135 2.713-.258 3.89-.115 1.097.173 2.18-.547 3.03.752 0 .3 1.285.253 1.927-.05.72-.11 1.45-.228 2.16.004.533.434 1.78-.224 2.02.034.185.254-.045.256.264.002.46.026.925-.048 1.383-.19 1.154.002 2.37-.165 3.54-.276 1.924-.38 4.172-.34 6.148.12-.17.236-.342.353-.515a103.027 103.027 0 0 1-.39 3.725c-.023.185.03.983-.298 1.058-.056.375.123.518-.02.908-.094-.42.025-.533.02-.908-.05-.76-.24-1.53-.252-2.286-.023-1.593.29-3.266.373-4.87.067-1.265-.1-2.655.115-3.815.29-1.544.093-3.278.164-4.85.128-2.852.443-5.877.41-8.662-.016-1.392.11-2.806.214-4.192.062-.833-.185-3.13.32-3.55l-.395-.44c.603 0 .475-2.33.048-2.753.616-.475.35-.292.24-.93-.104-.587 0-1.24-.023-1.835-.052-1.15-.13-2.34-.354-3.474-.568-2.895-.923-5.61-2.4-8.242-1.87-3.35-5.348-7.377-9.473-7.704.466-.32.883-.35 1.423-.202zm6.873 4.128h-.593c.183-.322.345-.384.593 0zm2.003 2.642l-.36-.29c.4-.135.4-.135.36.29zm2.315 4.376a4.31 4.31 0 0 1 .325-.368c.032.43-.325.247-.325.82a41.102 41.102 0 0 1-.218-.413l.218-.04zm-.036-1.31v.338l-.1.012c-.25-1.268 0 .014.098-.35zm.68 24.848l.054.032c.175.08.115.217-.176.414l-.1-.056.22-.39zm.012-15.822v.55c-.125-.14-.266-.49 0-.55zm.155-6.924c.05.143.103.286.154.43l-.107.04c-.794-1.986.027-.035-.046-.47zm.338 3.95c-.184-.275.27 1.01-.237-.27l.135-.053.1.323zm-1.278 34.887c-.086-.143-.232-.35-.542-.403.383-.413.425-.57.462-1.136l.21.017-.13 1.522zm-.355 2.987c-.197-.58-.22-1.168.078-1.72.368.692.166.985-.077 1.72-.188-.554.12-.36 0 0zm-.405-1.73c0-.214-.003-.495.07-.61 0 .214-.004.506-.07.61zm.1.465c.003.307-.08.42-.25.337.557-1.753-.008.007.25-.337zm.175 2.667c-.096.12-.133.982-.148 1.06l-.13-.022c.09-.708.177-1.416.264-2.124.068.374.297.73.013 1.086-.09.112.297-.373 0 0zm-.322 1.253c.284.088.21.405.056.574-.02-.19-.037-.38-.055-.572zm.02.885c-.052.33-.102.66-.153.992l-.12-.012c.053-.296.166-.82.272-.98zm-.533 3.44l.09-.827.117.012v.83l-.207-.014zm-1.524-1.334c-.123.297.757-.997-.11.352-.03-.02-.057-.04-.087-.058.065-.097.13-.196.197-.294zm.022-5.106c.09-.357-.737 1.505.075-.46l.103.042-.178.418zm.267 3.993v.505c-.317-.18-.187-.318 0-.505zm.07-1.855c.023.352.306.784-.223 1.04l.22-1.04zm.386-2.23c-.023.364.08 2.05-.343 2 .047-.555-.03-1.777.343-2zm.276-12.966c-.263-.02-.465-.033-.666-.048.2-.095.394-.426.666.048zm.084 15.236c-.037.415.062.744-.264.89.042-.41-.034-.754.264-.89zm-.025-38.46c-.147.052-.197-.05-.15-.308l.104-.03c.07.128.025.207.046.337zm-12.12 33.86v.996c-.268-.346-.272-.393 0-.997zm-.17-.323l.102-.35.126.025c-.192 1.394 0-.024-.225.325zm.26-1.86c.183.74.128.947-.312 1.062.346-.294-.163-.793.315-1.064zm-.193 8.756l.187-1.658c.216.323.08 1.42-.187 1.658zm-.76 2.007c.26-.393.17-.59.474.018.493-.52-.056-1.286.393-1.828.284.502.172 1.072.158 1.642-.02.934-1.53.334-2.158.07l.012-.16 1.12.258c.05-.074-.418-.095 0 0zm.266-11.494c-.147.103-.39.045-.645.01.016-.054.03-.11.048-.165l.6.157zm.07 1.7c-.083-.342-.258-.705.045-1.12.26.42-.123.76-.042 1.12zm.104 6.787c-.234-.118-.17-.55-.06-.743-.046.253-.026.5.06.743zM46.125 51.8c.102.28-.103-1.11.167.322-.048 0-.095 0-.142-.002-.01-.107-.016-.213-.025-.32zm.054.66c.024-.042.45.035.557.024l-.035.5c-.26-.1-.556-.276-.524-.524zm1.227-4.035c.23.4.215.385.65.22-.017 2.603-.003 5.15-.218 7.715-.108 1.263-.167 2.522-.26 3.794-.02.263.103 1.297-.367 1.274-.047.5.397.71-.1 1.19.096-1.03.194-2.01.015-3.04-.356.236-.246.728-.345 1.11-.066-.574-.137-1.132.063-1.692l.262.6c.438-.413.62-5.71.483-5.715a1.848 1.848 0 0 0-.356.204c-.173-.514-.133-1.275.152-1.743v1.37c.624-.47.485-2.1.486-2.83 0-.32.253-1.204-.332-1.09-.186.78.108 1.582-.1 2.364-.824-.444.4-2.043-.595-2.602 0 .31 0 .745-.097.92-.026-.216-.05-.433-.074-.65-.224-.032-.367.062-.43.28-.365-.767-.67-.09-1.25-.666.514-.847 2.004-.25 2.412-1.01.09.158-.294.55 0 0zm-.57-16.317v.848c-.278-.27-.372-.512 0-.848zm0 15.22c-.405-.16-.092-.32-.033-.553.014.23.02.377.032.552zm.387-5.76c.015-.324.032-.65.05-.974l.166.005c.206.56.02 1.184.085 1.764l-.318-.604-.48.513c-.018-.36-.036-.722-.052-1.082.265.147.124.51.55.38.017-.32-.433.13 0 0zm.03-4.895c.1.027.263-.154.076.185l-.075-.185zm.205 2.127v.513c-.3-.164-.23-.298 0-.513zm.003-5.308v1.137c-.286-.59-.366-.61 0-1.14 0 .417-.152.22 0 0zm-.087-3.993l.09.504c-.072.012-.145.023-.217.036-.065-.83-.185-.424.126-.54zm-.014 13.815c-.31-.037-.09-.195-.005-.6.335.1.135.223.005.6zm-.243 1.176l.334-.305c.014.44.014.44-.335.306zm.35.904v.9c-.315-.596-.315-.596 0-.9zm.462-15.84c.107.3.16.598-.094.885-.372-.345.258-.59.093-.885zm.002 17.204V45.34c.154.275.167.557 0 1.417zm-.06 1.45c.017-.346.034-.693.048-1.04.126.35.248.697-.048 1.04zm.06-14.14l-.097-.368c.04-.01.082-.024.123-.035.36 1.42-.036.026-.025.402zm.007 4.494c.08.185.078.663 0 .842v-.842zm.003-1.718c0-.19.004-.486.06-.59 0 .19 0 .483-.06.59zm.067.605c0 .233-.007.615-.07.743 0-.234.007-.615.07-.743zm-.29-10.19c.027-.143.07-.28.127-.414.072.69.147 1.377.22 2.066-.48-.197-.645-.183-.81.294v-.824c.73.17.46-.64.463-1.123 0-.09-.002.282 0 0zm-1.138 1.535c.02-.07.043-.14.065-.208.307.08.164.348-.037.522-.01-.106-.02-.21-.028-.315zm.23 1.12l.03.5c-.152-.055-.304-.11-.457-.167.142-.112.285-.222.428-.333.01.188-.153.118 0 0zm-10.325 36.52c.083-.17.166-.34.25-.508.095.154.193.31.29.463l.31-.512c.56.94-1.842 1.277-2.066.257l1.218.3c.09-.182-.407-.1 0 0zm-.22-8.927c-.19.222-.268.203-.662-.273l.663.272zm-.16-3.613c-.217-.212-.28.153.166-.505l.105.112c-.09.13-.18.262-.272.393zm.676 6.873v-1.22h.125c0 .39.094 1.03-.125 1.22zm-.025.347c.26.515.095 1.737.095 2.437l-.095-.022v-2.415zm-.024-3.507c0-.752-.16-1.975.09-2.556 0 .753.16 1.976-.09 2.556zm.067.417c.25.232.104-1.132.104.522-.052-.002-.104-.002-.158-.003.02-.173.038-.347.056-.52zm.537-5.596c-.26-.824-.036-1.65-.03-2.477.196.824.16 1.65.03 2.477zm.075.927c-.157.105-.15.288.02.55-.184-.198-.05-.688-.13-1.018.275.27.08.154.11.467zm.087 5.305c-.083 0-.163 0-.245.002 0-1.204-.447-3.533.244-4.52.03 1.506.07 3.013 0 4.518zm-.18 3.528v-3.333c.53.285.227 2.68 0 3.334 0-1.11.382-1.096 0 0zm.173 3.404a.748.748 0 0 1-.276.205c-.135-.397-.07-.768.134-1.123.22.277.204.59.144.916-.013.07.056-.3 0 0zm-.226-1.075c.013-.184.084-2.347.257-2.09 0 .426.162 1.86-.256 2.09.053-.734.53-.29 0 0zm-.554-16.65c.122.286-.086.584.354.68.04-.236.08-.47.118-.705.157.605.21 1.096.21 1.723a6.324 6.324 0 0 0-.366-.327c-.21-.07-.977 0-1.266-.04-.543-.067-1.162-.075-1.65-.29.74-.62 1.71-.76 2.6-1.04.085.202-.89.28 0 0zm-2.268-6.538c-.167-.375-.18.91-.18-.355l.13-.017.05.373zm.906-10.727l-.542.428c-.04-.484-.04-.484.543-.428zM35.87 21l.256 1.744c-.338-.297-.39-.716-.255-1.743zm.235 3.81c-.014-.524-.33-1.55-.042-1.886 0 .664.078 1.206.042 1.886-.01-.422.022-.423 0 0zm.096 4.418v-.838c.037 0 .074 0 .11-.002.027.384.165.682-.11.84zm-.263 6.17c.297.027.122-.192.22.476l-.16.024-.06-.5zm-.145-4.7c-.225-.218-.243-.354-.055-.41.772 1.36.003-.01.054.41zm.505 8.778c.164.347.142.51-.064.488-.154-.305-.132-.467.065-.488zm-.112-1.29l-.27-.38c.313-.008.174-.13.453.243l-.183.136zm.294 6.364c-.14-.238-.046-.363-.156-.608.275.12.21.786.3 1.08-.463-.257-.104-.126-.145-.472zm.215-9.097v.758c-.06-.157-.06-.602 0-.756zm-.12-2.083l.19 1.12c-.385-.33-.57-.664-.19-1.12zm.25 4.866c-.063-.14-.064-.515 0-.658v.658zm.108 2.666c-.285-.692-.25-1.41-.18-2.234.46.786.23 1.517.18 2.234zm.017 1.548l.192.563c-.34-.234-.34-.234-.193-.563zm.06 2.442v-1.2c.13.225.13.972 0 1.2zm.26 1.527l-.04.69c-.087-.207-.14-.627.04-.69zm-.052-.388c-.275-.25-.14-.477-.152-.783l.152.002v.78c-.303-.275 0-.307 0 0zM35.362 24.65c.03-.29.06-.578.093-.866.15.904.695 1.23.695 2.04-.32-.23-.388-.058-.592.2-.462-.572-1.375-.217-1.95-.63l1.754-.745c.018-.18-.6.253 0 0zm-.377-2.375c-.23-.297.33 1.14-.252-.28l.105-.045c.05.108.098.217.147.325zm-.13-3.792l-.146.756-.135-.004a177.74 177.74 0 0 0-.19-.71c.157-.016.314-.03.47-.044-.057.29-.198.018 0 0zm.19-1.39c-.057-.145-.112-.29-.212-.54.402.162.258.363.212.54zm.326 4.673c.167.34.146.506-.062.497-.167-.363-.145-.53.064-.497zm-.25-3.565c.157.12.187.38.247.648-.068.004-.138.01-.207.013l-.04-.66zm.204 1.02c.11.274.097.474-.226.543.145-.144-.21-.498.226-.542zm-10.36 36.954c-.332.212-.332.212-.492 0h.492zm1.804 2.853a1.01 1.01 0 0 1-.142.86c-.18-.843-.463-2.61.012-3.27.22.464-.01.967.144 1.44.163.487-.165.413-.013.97.08.298-.07-.26 0 0zm.126 4.16l.036.43c-.05.008-.097.015-.144.02-.06-.396.066-1.344-.406-1.513.71-.596-.095-1.425.323-2.147.255.923.396 2.336.19 3.21-.032.135.034-.145 0 0zm-.118 2.08v-.8c.276.27.298.53 0 .8zm-1.552 1.07c.725.258.862-.356 1.408.24.073-.32.06-.817.236-1.075.098.29.215.57.35.842-.863.355-1.785.722-2.647.025a.666.666 0 0 1 .654-.03c.497.175-.215-.078 0 0zm.656-5.28l.225-.87c.153.81.153.81-.226.87zm.118-2.31c-.05-.272-.1-.543-.148-.815l.137-.027c.073.365.232.642.01.842zm-.67-8.21c.42-.783.464 1.212.5 1.498-.468-.373-.25-.94-.5-1.5zm-.64 1.167c.03-.21.178-.203.45.02l-.035.117-.414-.136zm1.254 2.47l.16 2.278c-.05.008-.103.014-.154.02a20.38 20.38 0 0 1-.16-1.806l-.595.58a5.665 5.665 0 0 0-.115-.108l.864-.962c.056.796-.335.373 0 0zm.452-2.015c.115.857.127 1.722.2 2.584.056.66.59 1.597-.24 1.806 0-.686-.535-4.198.04-4.392.185 1.39-.415.14 0 0zm-.093-1.354v1.172a2.818 2.818 0 0 0-.137-.013c.16-.392-.143-.788.14-1.16 0 .392-.29.382 0 0zm-2.603-1.98c.487-.094 1.04-.52 1.534-.237l.097-.757c.158.38.163.934.54 1.188l-.066-1.457c.39.704.306 1.506.228 2.273l-.227-.466-.32.652c-.576-.95-1.97-.09-2.69-1.063.302-.04.606-.084.907-.136.184-.036-.296.057 0 0zm-.577-5.304c-.238.453-.47.152-.67 0h.67zm.742-12.37l-.138-.852c.23.162.23.162.138.852zm-.428-3.402c.14.11.187.378.25.63l-.14.03-.11-.66zm.334 1.432l.04.555c-.41-.044-.425-.23-.04-.555.01.126-.068.117 0 0zm.224 8.52l-.14-.49c.325.13.19.327.14.49zm-.152-1.143v-.498c.295.176.3.322 0 .497zm1.008-3.19c-.27-.063-.35-.616.038-.616l-.038.614zm-.26 3.597l.07 1.316-.136.007c-.025-.425-.183-1.114.066-1.322zm-.11-1.07l.148.764c-.286-.227-.457-.41-.147-.763zm-.232 3.865c.134.42.08.61-.16.57.015-.28-.076-.52.16-.57zm-.02-4.97c.15-.073.21.03.185.313-.153.08-.215-.024-.183-.312zm.767-.457l-.37-.347c.124-.115.246-.23.37-.343v.69c-.154-.145 0-.26 0 0zm-.037 1.423c-.037-.39-.242-.665.02-1.046.04.386.126.806-.02 1.046zm-.285 4.66V39.3c.02.37.367.722 0 1.117zm.405 5.202l-.067-.563.122-.02c.096.918.23.486-.056.583zm.156 1.35c.04.115.075.22.147.44-.31-.152-.413-.25-.146-.44zm.445-1.03c-.372-1.204-.218-2.824-.325-4.086.497.522.347 1.586.42 2.244.116 1.072.135 2.16.204 3.236-.472-.33-.15-.915-.3-1.394-.054-.174.078.254 0 0zm-.522-9.498c.503 1.602.224 3.575.452 5.255-.714-.706-.286-2.018-.482-2.943-.216-1.027.27-1.94-.302-2.833.38.01.456.214.333.52zm-.67-6.69c.103.942.185 1.853.26 2.788-.536-.52-.234-1.64-.374-2.32-.143-.687-.523-1.863-.233-2.53.398.6.27 1.37.346 2.06.056.517-.035-.32 0 0zM23.43 22.56c.052-.154.104-.308.158-.46.034.01.07.016.103.023-.075.498.056.534-.26.437zm-.267-2.194l.073-.665c.09.206.33.418-.073.665zm-.38-5.833c.286.22.196.393.2.687l-.17-.02-.03-.666c.335.255.014.295 0 0zm-.86-1.742c.092-.213.15-.346.238-.554.048.26.153.453-.236.555zm.9 11.77c.47-.087.744.297.902-.25.38.296.292 1.41.25 1.817-.095-.322-.09-.745-.416-.894-.328.482-1.178.1-1.84.218 0-.71.41-.765 1.102-.89.254-.047-.363.065 0 0zm-6.31 42.107c.524.144.58-.063.995-.07-.1.393.78.13.956.108-.81.43-2.33.715-2.905-.26.317.068.635.142.95.222.303.083-.302-.082 0 0zM16.31 62.4c-.093.21-.156.49-.503.185l.5-.186zm.313-4.927c.022.02.266 0 .19.26l-.19-.26zm.398.722c.234.212-.142.775-.12 1.022l-.48-.75c.06.066.12.133.177.2.14-.158.283-.315.424-.472.236.213-.156.175 0 0zm1.03 6.235a36.73 36.73 0 0 0-.387-.246c.458-.562-.29-.49.086-.83.43.237.34.67.302 1.077-.144-.09.04-.44 0 0zm-.173.167c.234.4.216.51-.06.88.08-.34.1-.536.06-.88.256.436.023.203 0 0zm-1.158-9.3c-.113.61.35.332.455-.083-.37-.452-.202-1.328-.14-1.854-.002-.03-.364-.444-.22-.147-.115-.24.034-.645.073-.882.378.788.283 2.116.302 2.91.057 2.252.508 4.56.62 6.832-.63-.372-.445-2.2-.53-2.828-.154-1.138-.03-2.253-.29-3.38l-.145.007-.144.693c-.324-.76-.29-.424-.865-.797.284-.344.468-.35.883-.47zm-.11-3.878v-.946h.144c0 .392.066.76-.145.946zm-.047 3.61c-.28-.147-.194-.77-.218-1.134.197.345.47.732.218 1.135zM15.51 70.414c.404-.043.646-.06.74.405-.268-.148-.452-.247-.74-.405zm-1.41 4.642c-.395-.063-1.468.08-.79-.427-.215.026-.49.077-.705.116.232-.203.428-.275.726-.133.095.006.964.045.75.438.153.054.026-.098.434-.09.42.005.864.285 1.235.447-.573.19-1.14-.106-1.65-.35zm.005 6.132l.052-.457c.19.237.19.237-.052.457zm-.57 4.878c.262.226.128.493.04.722a82.7 82.7 0 0 1-.04-.722zm.47-2.96v-.492c.15.116 0 .504 0 .492zm.055 2.242c-.118.535-.353.58-.706.132.307-.02.38-.51.706-.134-.083.14-.33-.382 0 0zm-.52 3.933l-.368.64c.056-.278-.155-.598.367-.64zm-.277 5.023l.904.374c-.465.113-.757.097-.904-.374zm.983 3.024l-.118 1.088c-.197-.335-.248-.658.118-1.088zm-.11-.114c-.002-.37-.094-.644.156-.973 0 .32.143.9-.157.973zm5.465-25.81c-.1.297.19.188-.544.06.01-.05.02-.104.028-.157l.518.097zm34.626-.452c-.327.07-.665.19-1.078-.117l1.078.12zm-30.282-1.714l-.074.342a5.727 5.727 0 0 1-.174-.07c.012-.27.095-.36.247-.272zm3.034 0c-.29.43-.192.57-.74.344.265-.286.354-.39.74-.344-.11.163-.38-.044 0 0zm1.426.486l-.39.353c-.427-.53.002-.418.39-.352-.154.142-.24-.04 0 0zm5.188-1.253l-.52.043c.134-.114.256-.348.52-.043zm7.235 1.03c-.258.39-.562.11-.592-.156l.592.155c-.26.393-.212-.057 0 0zm.22-.12l1.133.07c-.334-.04-.756.544-1.132-.072zm1.176.52c-.204.29-.308.17-.413 0h.414zm.893-1.02c-.564-.033-.73.304-.483-.505l.483.506c-.32-.02-.21-.22 0 0zm1.65 1.19c-.397.19-.586.167-.57-.067.387-.188.577-.165.57.068zm3.526-1.26c-.065.04-.128.084-.192.127-.01-.214-.025-.142.115-.304l.076.178zm.9.606l-.57.135c-.01-.047-.02-.095-.027-.144 1.123-.194.455-.263.597.01zm3.55-.32c.01-.098.018-.194.026-.29.04.01.08.017.12.025-.008.29-.072.24-.104.396.178.02.43.18.368.175-.232.016-.525.04-.686-.025 1.463-.71-.044.04.277-.28zm7.9-1.514c.343.155.778-.066.963.096-.325.46-.82.802-1.34.396-.517.328-.94.243-1.558.222-1.326-.045-2.703-.154-4.024-.113-2.46.08-4.885-.228-7.348-.33-1.08-.046-2.142.133-3.196-.003-1.49-.192-3.185-.17-4.69-.168-2.518.003-5-.202-7.493-.085-.62.03-1.19-.04-1.8-.14-.51-.08-.595.122-1.03.115-1.63-.023-3.297.164-4.926.233-.895.037-8.203.324-8.103 1.103-.005-.04 2.73.414 2.975.456 1.5.26 2.983.57 4.49.808 1.602.254 3.28.26 4.9.257.518 0 1.188.077 1.697-.003.58-.09 1.374.295 1.567-.278.352.78 3.278.212 4.12.23 1.7.038 3.428-.09 5.125.044 1.75.136 3.478-.212 5.217-.106 1.123.07 3.57-.553 4.42.18.294-.657 3.5-.377 4.362-.437 1.395-.095 2.687.027 4.12-.065 3.765-.245 7.643.048 11.374-.554-.584-.502-1.984-.482-2.733-.643-1.29-.277-2.983-.672-4.303-.672L63.39 68c.127-.043 1.083-.01 1.37.05.57.11 2.574.084 2.914.488.534.635 3.634-.076 4.053 1.288-1.256.16-2.564.133-3.796.345-.836.148-4.31-.34-4.515.476-.3 1.174 6.365-.647 6.305.353-.772.084-1.002.337-1.704.456.45-.69-.137-.382-.617-.3-.633.106-1.274.132-1.913.154-.784.026-2.155.422-2.787-.14.34-.056.503.05.65-.246.28-.524-.643-.574-.805-.556-.973.108-4.816-.33-5.11.526-.283-.644-2.015-.395-2.598-.375-.82.03-2.034-.3-2.17.637-.277-.092-.04-.567-.31-.638-.715-.186-.19.623-.304.792.81 0 2.393.25 2.92-.417.136.324.408.3.7.29.607-.02.463.204.98-.338.097.504 1.25.678 1.43-.038.355.433.222.56.81.142-.127.806 1.436-.18 1.42-.178-.04.662.368.4.572-.052.37.83 1.18-.153 1.527.683-.488.037-1.95.395-2.122-.248-.606.508-1.076.288-1.892.355l-1.68.136v1.056c-.734-.613.12-1.31-1.308-1.1l-.31-.024c-.177-.224-.346-.213-.507.03-.626.07-1.295.04-1.928.058-2.07.062-4.194.193-6.258.045.454-.41 1.52.072 1.745-.44.375-.83-2.206-.727-2.226-.112-.112-.65-1.47-.357-2.08-.357 0 .652.092 1.022.676.41.2.508 1.4.237 1.812.237-.22.798-4.666.548-5.468.437-.858.135-1.907.088-2.77.02-.705-.053-1.74-.25-2.382.06.052-1.024 2.026.277 2.28-.724.148 1.19 2.554-.194 2.83.252.168.27.643.114 1.023.063.29-.038.242-.498.33-.712-1.293 0-2.606.107-3.895.008-.976-.073-1.937-.124-2.925.005-1.43.186-3.046.044-4.494 0-.677-.02-1.35-.115-2.027-.063-.376.03-1.365-.12-1.684.012-.56.23-2.12.157-2.732.07-.46-.323-1.014-.18-1.53-.264-.8-.126-1.578-.348-2.378-.475-1.137-.18-2.28-.45-3.38-.793-.338-.106-1.583-.444-1.744-.758.277-.14 1.5-.434 1.413-.674.737.327 1.804-.32 2.657-.317 1.545 0 3.126-.028 4.664-.14 3.8-.287 7.608-.3 11.42-.276 2.834.015 5.37.27 8.225.15.85-.035 1.62.105 2.455.13.58.018.913.002 1.415-.09.71-.128 1.76.093 2.488.155.523.043 1.045-.067 1.57-.006.775.09.557.012.75-.714.175.163.35.323.528.485l-.632.208c1.53.522 3.594.26 5.205.356 1.95.113.442-.413-.4-.534l.045-.172c.676.29 2.25.557 2.667-.23l.078.988.71-.332c.16.074-.236.11 0 0zm12.61 2.952c-.867.664-1.93-.146-2.516.88-.28-.438-.442-.315-.665-.788h1.048c-.417-.003.785.168.57.195.53-.066.96-.286 1.562-.287-.506.387-.57 0 0 0zm-3.667 1.41c.363.168.274.375.19.574l-.19-.574zm-14.07 1.322c-.184-.393-.157-.578.082-.554.18.365.152.55-.082.554zm-1.912-1.12v.497c-.058-.21-.35-.34 0-.495zm-1.34.416l.376-.182.044.094-.375.183-.045-.095zm-16.17-.25v.95c-.35-.295-.328-.607 0-.95zM26.3 73.557v.464c-.22-.25-.22-.25 0-.464zm-.045-.222c0-.19.01-.523.058-.627 0 .195-.003.517-.058.627zm8.623.022l.05-1.116c.302.738.3.86-.05 1.116zm-2.762-1.435c.604-.28 3.32-.737 3.368 0h-3.367c.385-.18 1.235 0 0 0zm-1.13-.1c.393-.08.786-.154 1.18-.232-.752.832-2.803.385-3.814.384-1.15 0-3.524.465-4.436-.333.745 0 1.286.27 1.397-.542.04 0 .076 0 .115.002l.064.56c.837-.238 2.004-.11 2.876-.113.884-.003 2.026-.105 2.88.12-.088.015-.232.138-.263.152zm-8.416-.017c.286-.34.414-.053.73-.135l-.006.135h-.723c.298-.35.317 0 0 0zm-1.27 1.06c-.235-.163-.235-.163-.048-.343l.047.343zm-1.308-1.34c.627-.152.962-.137 1.598-.008-.57.378-1.02-.086-1.598.007.247-.06.493-.08 0 0zm2.425 4.076l-.336-.045c.276-.28.27.017.338.047zm.944-.11v.99a7.998 7.998 0 0 1-.156.007c-.065-.355-.102-.698.158-.996 0 .33-.283.327 0 0zm50.38-2.723c1.495.54 3.122-.53 4.606.264-1.078.45-2.605.555-3.736.66-.55.05-2.575-.186-2.705.487-.578-.398-2.39-.793-2.014.564-.37-.306-.535-.224-.1-.617-.785-.36-1.46-.526-1.86.49-.197-.88-1.203-.688-1.806-.24-.913-.205-1.85-.15-2.788-.033-1.01.124-2.025-.026-3.036.062-.85.075-1.75.337-2.576.087-.325.733.057 1.497-.334 2.233l-.1-2.046c-.7-.29-.42.094-.91.358.04-.6-.67-.736-.736-.217-.092.72.21 1.427-.16 2.075-.22-.653.22-1.54-.112-2.11-.134-.23-.534-.434-.734-.146.024.44.048.88.07 1.32-.317-.11-.57-2.453-1.15-.925-.397-.706-2.338-.368-3.016-.308-1.318.12-2.714.097-4.04.07-1.376-.03-2.732-.046-4.11-.025-.762.01-4.355-.328-4.49.324-.344-.31-.7-.334-.964.09-.87-.945-.91.468-1 1.17-.426-.662.268-1.15-.6-1.52-.693-.296-1.26-.155-1.26.662l-.12.01c-.08-1.013-.714-.608-.813.177-.045 0-.09-.002-.134-.003-.127-.953-.4-.824-1.33-.814-.657.01-.442.8-.442 1.26-.234-.563-.26-.87-.106-1.46-.59.154-.902.005-.923.69l-.044 1.393c-.355-.57.11-1.693-.573-1.9-.403-.123-.42.793-.337 1.016.108.283-.243 1.256-.243.053v-1.107c-.46 0-.69-.162-.858.31-.62-1.315-.817.717-.946.79-.177-.818-.72-1.78-.92-.37h-.15c-.09-.804-.163-.768-.995-.773-.7-.006-1.344-.09-1.96.25-.235-1.027-2.59.19-2.8-1.14.617 0 1.655.333 2.02-.338.222.538 1.087.807.963-.007.15.608.685.634.92.092.07.172.174.49.42.483.653-.018.548-.513.583-1.003.04 0 .08.002.12.004 0 .52-.25.998.47.99.203 0 .966.144 1.12.033.407-.29.22-.63.12-1.016.48.24-.016.407.145.616.64.87.67.055.91-.368.244.905.72.95.936.013.143.193.14.555.33.675.67.427.66-.777.695-1.047.228.343.21.51.112.91.502.277.63.183.895-.313.075.277.225.564.544.603.563.07.345-.522.475-.827.09.71.09.675.798.773l.078-.833c.683 1.3.894.628.894-.51.28.266.304 2.184 1.1.874.195.477.4.455.81.408.782-.09.926.042 1.092-.8.142.97.867 1.084 1.075.072.016.213.047.532.21.682a.336.336 0 0 0 .387.003c.594-.266.18.037.694.09.09.01 1.202-.036 1.166-.013l.39-.358c.354.264.41.432.848.296.667-.21 1.638-.016 2.343-.047.862-.038 1.727-.08 2.587.014.86.097 1.67-.09 2.52-.127.607-.023 1.52.3 1.57-.468.14.37.715.92.817.157.19.158.38.32.57.478.15-.258.302-.515.454-.772.357 1.068.776.088 1.034-.42.034.486-.177.92.404.92.61 0 .42-.505.485-1.026.37.26.057.636.29.945.193.258.763.16.716-.22.316.24.872.626.845-.1-.005-.148.01-.648.21-.64.193.01.173.9.188 1.06.923-.203.555-1.15.675-1.88.28.402.203.84.207 1.294.006.68.507.473 1.034.463 1.017-.02 2.045-.05 3.058-.128 1.526-.118 2.87-.246 4.278-.114a92.88 92.88 0 0 1-.034-.52l.103-.023c.192.662.264.468.88.405-.094-.16-.19-.323-.283-.485.486-.08.213.268.548.504.438.306.666-.284.7-.565.728 1.384.76-.427 1.022-.804 0 .83.083 1.903.916.884-.006.416.54.422.753.173.28-.322.016-.92.185-1.355.072.487.145.974.215 1.46.673 0 .517-.066.647-.636.187.128.117.41.31.53.38.234.716-.206.786-.51-.004.718.646.45 1.002.244.073.026-.194.112 0 0zm.95-2.403c-.235.387-.235.387-.78.21.187-.39.487-.006.78-.21zm1.255-.113l.283.176c-.033.048-.066.095-.098.144-.897-.404-.063-.034-.186-.32zm.237 4.084c.362-.244-1.456.16.357-.233.08.18-.037.256-.357.234zm.277 5.658c-.338.225-.58.068-.984-.032.266-.554.504-.182.983.033zm-.543 4.11c.253.19.506.378.083.682-.03-.257-.057-.47-.083-.68zm-1.527-7.798l.5-.185c-.21.34-.21.34-.5.184zm.757-.02c.416-.038-.994-.48.394-.055l-.03.12-.364-.07zm.212 2.043c-.08.213-.2.145-.52.22l-.02-.142.54-.078zm-6.634-3.685l.288-.09.037.105c-1.207.382-.002-.03-.325-.015zm-1.85.64c.293-.16.214.074.35.444-.045.02-.09.037-.135.056-.07-.167-.144-.333-.214-.5zm-2.975.106c.227-.164.355-.157.38.02-1.043.503-.004.025-.38-.02zm-5.54.213c.295-.136.113-.19.37.38-.187.03-.536-.104-.37-.38zm-3.93 1.45l.056-.89c.26.483.26.483-.055.89zm-1.212-1.525c.133-.06.267-.12.4-.178v.876l-.4-.698c.14-.062.128.223 0 0zm-.653.848c.062-.2.067-.41.015-.626l.15.027c-.014.05-.137 1.132-.143 1.14-.31-.296-.11-.24-.023-.54zm.792 12.4c-.572.195-.854-.102-1.163-.318.447-.186.72.113 1.163.318zm.537.102c-.22.216.586.212-.444.075l.043-.19.4.114zm-1.717-4.572V82.74c.12.33.117 1.263 0 1.563zm.007 1.36c.204.202.218.33.043.38-.64-1.012-.013.002-.043-.38zm-.425-.336l-.15.812a1.963 1.963 0 0 0-.126-.02c.083-.37-.157-.52.275-.793-.067.364-.473.3 0 0zm-2.927.995c.028-.35.06-.695.106-1.046.262.48.314.674-.107 1.047.023-.287.437-.386 0 0zm-.118-2.07c.302.148.28.458.222.734-.464-.28-.495-.133-.222-.733.302.148-.08.18 0 0zm-.794-8.008l.407.18c-.355.326-.49.266-.406-.18.148.066.013.168 0 0zm-13.016-.454v-.58l.102-.002c0 .27.04.47-.102.582zm-.985 1.095V75.68c.457.44.457.44 0 1.203zm-.904-.174l.062-.635c.334.272.09.45-.062.635zm-5.063-1.31l.362-.04.006.16c-1.41 0-.044-.063-.367-.12zm-1.81 1.35v-.876c.247.227.34.79 0 .877zm.178 28.068c.286.01.405.31.628.614l-.746.12c.318-.354.364-.245.12-.733zM25.01 88.505c.068.284.125.348.48.606.336-.35.76-.16.574.24-1.158.247-3.363.548-4.344-.237.732-.126 1.612.18 2.183-.45.123.38 1 .406 1.108-.158zm.13-4.903l-.12.26c-.096-.18.145-.294.12-.26zm-.05-.304c-.05-.12-.102-.24-.154-.36l.138-.06c.657 1.48-.038.002.018.42zm.097-8.2c.2.4.1-1.865.1.54-.05-.18-.373-.354-.1-.54zm-.003 1.816l.25.376c-.552.02-.928.098-1.206-.423.306.177.67.43.957.047.088.13-.286.38 0 0zm-1.354 27.908c-.19.01-.34.02-.56.03.242-.264.385-.322.56-.03zm-.425-7.41c-.27-.227.513 1.072-.264-.23l.09-.054c.057.094.115.19.174.283zm-.097-4.717c-.132-.254-.113-.426.056-.518.123 1.11.212.466-.057.518zm.083.662l.02.398c-.16-.216-.16-.216-.02-.398zm-.556 6.518c-.158-.245.255.926-.22-.25l.142-.045c.027.1.052.197.08.295zm.284-.374a86.3 86.3 0 0 0-.306-.136c.19-.17.382-.336.573-.504v1.548c-.374-.287-.073-.58-.266-.91-.08-.034.154.264 0 0zm.81-4.24c-.167.05-.188-.07-.065-.364.143-.016.165.105.063.363zm1.334-.61c-.24-.124-.24-.124-.15-.418.044.123.09.243.15.417zm-.15-.9c-.164-.03-.16-.138.01-.323l.105.054c-.04.09-.078.18-.116.27zm-.192 2.217c-.012-.277.075-.37.278-.51l.103.096-.38.414c-.016-.377.178-.192 0 0zm.105 1.428l.06.994c-.223-.384-.223-.384-.06-.995zm-.072 1.596l-.063-.437c.16.12.343.24.063.438zm.025 1.588c-.182-.037-.174-.164.026-.378l.118.045-.145.332zm.002 2.75c-.164-.428-.154-.827-.006-1.255l.143.01c-.047.415-.092.83-.138 1.246-.206-.538.056-.51 0 0zm-.067.663c-.165-.35-.143-.514.066-.494.164.35.142.514-.067.495zm.014 2.63v-.64l.15.024c-.025.244-.036.488-.15.617zM24.58 94.3c0 .2.007.38-.01.576-.3-.238-.092-.302.01-.576 0 .19-.08.216 0 0zm.287 14.095c.113-.26-.415-.432.14-.532v.914l-.63-.435c.163.02.327.037.49.054.074-.17-.156-.016 0 0zM25.092 91c.015.133.032.266.05.398-.345-.216-.444-.397-.592-.006-.138-.12-.277-.238-.414-.356-.148.477-.62-.37-.768.256-.21-.682-.42-.068-.845-.39-.37-.28-.634-.242-.96-.592.333-.154.52-.3.692.075.644-.782 3.53-.67 4.402-.173-.555.69-.643.788-1.566.788.017.122.328 0 0 0zm.21 17.563v-.49c.36.2.27.34 0 .49zm.124-10.917c.088.063.225-.115.24.208-.168.04-.124-.09-.24-.208zm1.588-11.18l.08-.673c.185.37.185.37-.08.672zm.092-.886c-1.018-.624.772-1.1 0 0zm1.4.033c-.026-.004-.333.102-.376-.103l.376.103zm.88-.486c-.1.3.05.2-.508.03.015-.048.027-.097.042-.145.155.04.312.077.467.115zm1.94.052c-.157.135-.39.034-.666-.02l.054-.134c.203.05.408.1.61.152zm10.874-.316l-.378.054v-.12c.254-.123.38-.102.378.065zm1.842-.034c-.357.17-.53.14-.518-.09.812-.07.398-.18.518.09zm2.996-.123l-.66.165c.045-.445.12-.463.66-.165zm.74-.95c-.534.177-4.386-.247-4.282.46-1.22-.52-2.882-.163-4.196-.113-.542.02-1.543.196-2.05.046-.62-.183-1.305.29-1.91.18-1.638-.3-3.567.14-5.236.165-.697.01-1.65.18-2.323-.004-.56-.15-.52-.512-.92.228-.044-1.29.02-2.632-.18-3.91-.18-1.134.175-3.2-1.088-3.578.83-.083 1.62-.114 2.24.25l.29-.503.74.54c.08-.167.158-.334.236-.502.352.23.6.688 1.014.218.765.337.722.363 1.124-.372.112.84.747.736.906-.037.115.685.586.876.955.203.294.61 1.383.525 1.938.422.16-.028 1.24-.064 1.29-.02.448.375 1.75.03 2.29.014.78-.02 1.633.325 2.355.313.49-.402 2.045-.268 2.67-.312.886-.06 1.986-.023 2.873.057.49.043 1.13.12 1.51.11.507-.013 1.667-.462 1.288.464-.45-.364-.945-.19-.597.405.328.56-.14 1.5-.253 2.075-.116.6-.225 1.25-.4 1.836-.12.4-.928 1.01-.278 1.373-.397.13-.427-.238 0 0zm-.153 8.12c.126-.01.252-.023.377-.034.004.186-.122.198-.377.034.125-.01.12.02 0 0zm-.897.647c.366-.01.5-.282.88-.01-.285.06-.734.26-.88.01zm-2.606-.463c.656-.484 1.456-.073 2.195-.254l.016.116c-.74 0-1.423.297-2.21.14.412-.306.522.105 0 0zm-1.135-.23l.735.157c-.243.075-.5.26-.735-.158zm-1.48.35c.122-.348 1.14-.238 1.353 0h-1.354c.168-.478.45 0 0 0zm-1.283-.103c.322-.014.952-.247 1.145.08-.17.104-1.08-.105-1.147-.08zm-1.31.086c.63-.244.63-.244.865.06l-.868-.06zm-2.71.152c.286-.41 1.806-.184 2.404-.184l.013.13c-.806 0-1.633.173-2.414.055zm-3.768.07l.53-.13.04.154c-.73.166-.438.267-.57-.025zm-.733.703c-.07 1.287-.782 1.358-.908-.016-.043-.467-.035-1.394.644-1.384.34.397.282.972.262 1.4zm-4.07 8.673v1.18c-.317-.56-.285-.595 0-1.18 0 .466-.138.287 0 0zm1.064-1.06c-.176-.01-.353-.017-.53-.026.126-.34-.61.203.37-.36l.16.386c-.195-.01-.065-.157 0 0zm2.545-.27h-.47c.186-.13.313-.295.47 0zm1.402-.176c-.512.395-.512.395-1.03-.052.31.017.62.032 1.03.053zm2.092-.095c-.292.29-.292.29-.445-.095.153.03.293.062.447.094zm.49.393c-.096-.003-.313.24-.116-.208l.116.208zm5.79-.492l-.48-.17c.23-.216.23-.216.48.17zm1.513-.256c-.305.023.926.297-.316.06 0-.037.002-.073.003-.11l.31.05zm2.71-.03h-.855c.273-.307.273-.307.855 0zm2.76-4.66c-.567.89-.638 2.574.027 3.36l-.696.49c-.67-.984-3.233-.097-4.395-.21-.906-.09-2.18.09-3.066.19-1.067.12-2.13.013-3.193.187-.854.14-1.8.137-2.663.12-.855-.02-1.648.09-2.52.142-.77.047-1.81.146-2.554.008-.192-.035-1.017.038-1.028-.134-.015-.232-.018-.36-.298-.16-.15-.512-.067-1.043-.04-1.565.023-.484-.186-.945-.137-1.42.062-.59-.324-1.26.002-1.76.43.768 1.386.52 2.22.52.32.004.745-.292 1.07-.07.535.368.4-.034 1.065-.006 1.89.063 3.784.216 5.657.2 2.043-.11 3.984-.022 5.955 0 1.247.014 2.49-.112 3.736-.143.308-.555 1.03-.08 1.68.01-.034.414-.524.265-.825.247zm1 5.594c.202.363.004.405-.22.665-.22-.332.202-.475.066-.743-.285-.563.258-.983-.664-1.138.424-.404.232-.475.043-.982l.096-.057c.416.41 1.243 1.79.68 2.254zm7.782-9.07c-.476.248-.535.198-1.183.062.13-.208 1.122-.096 1.18-.063zm.928.034c-.185.052-.37.105-.556.156l-.04-.136c.68-.198.43-.297.596-.02zm1.327.046l-.957.126c.003-.518.818-.377.957-.126zm9.28-.37c.217-.32.48-.15.73-.077-.238.05-.435.456-.73.078zm1 2.128c-1.096.383-2.3.348-3.488.348.25-.292.374-.106.63 0 .38-.07-.4.204.23-.257.21-.155.684-.026.915-.006.56-.194 1.134-.24 1.71-.085-.228.08-.588-.16 0 0zm.793-.025c-.038.174-.156.17-.357-.01l.04-.116c.105.043.21.086.317.128zm.17-1.077c-.056.32-.135.63-.53.39-.41-.252-.524-1.25-.45-1.683a2.29 2.29 0 0 0-.038-.548c.45-.09.782-.377.966.12.234.628.168 1.05.052 1.72-.04.227.065-.375 0 0zm1.293-2.503c-1.037-.1-2.074-.214-3.113-.293-.924-.072-1.886.23-2.815.137-.71-.07-1.804.266-2.45-.007-.238-.1-2.333-.208-2.453-.128-.396.262-1.442-.04-1.976.03-.492.064-.987.13-1.475.22-.447.084-.896-.1-1.326-.002-.886.205-1.943.07-2.853.055-.73-.012-2.642.313-3.197-.063 0 .01-.006.01-.015 0v.32c-.334-.515-.948.01-1.322-.428.453-.015.92.1 1.322.1.043.036.067 0 .073-.11.126-.25.665-.08.895-.06-.273-.646.185-2.28 1.018-1.7.254-.417.156-1.152.156-1.64.326.064.342 1.918.62.668.358.437.71.674 1.113 1.115-.692-.085-1.214-.515-1.878-.133-.22.128-1.28 1.33-.735 1.603.742.373 2.525-.07 3.398-.042.627.02 1.21-.07 1.832.046.57.106 1.094.3 1.415-.328-.68-.24-1.38-.525-2.1-.613-.925-.114-1.642-.13-1.665-1.213-.017-.737-.095-1.46-.03-2.196.088-1.024-.215-1.963-.173-2.972.032-.78-.03-1.53-.04-2.297-.008-.6.127-.38-.18-.923.484-.374.032-.287.08-.784.108-1.09-2.61-.375-3.268-.615l.35-.484c.088.35.548.483.73.278.17-.615-.208-.85.12-1.414.097.292.202 1.357-.126 1.43.41.152.945-.238 1.16-.165.327.107.782.302.892-.296.12.26.323.588.665.443.5-.214.636-.09 1.19.087.05-.193.096-.386.144-.58.195.764.793.633.966.014.22-.78-.73-1.35.164-1.817.005.413-.265 1.487-.146 1.818.176.494 1.097.744.81-.124.47.314 2.03.9 2.198.268.912.348 2.068.137 3.037.106 1.315-.043 2.67-.044 3.977-.182 2.538-.27 5.175-.276 7.673-.756 0 .625-.852.394-1.26.394-.185.715-.167 1.416-.254 2.15-.1.852-.27 1.67-.288 2.532-.012.626-.235.944.378 1.228.947.438.18 0 .355.285-.4 0-.844-.21-.92.337-.12.823-.12 1.65-.22 2.475-.17 1.393-.452 2.828-.452 4.227-1.055-.103 0-.243 0 0zm1.965.585c-.21.062-.422.126-.632.19l.185-.406.45.216c-.23.068-.186-.09 0 0zm1.154-.16a6.034 6.034 0 0 1-.084.335c-.296-.503.117-.576.084-.336-.01.07.01-.087 0 0zm1.94 4.062v.59c-.045-.182-.382-.362 0-.59zm-.237 7.332l.135.402-.107.04c-.64-1.282.02.002-.028-.443zm.034-.344c-.308-.12-.177-.434-.177-.826.22.242.28.516.175.825zm-.086-8.493l.074-.516c.138.22.34.384-.075.517zm.12-.808c-.265-.073-.18-.333-.207-.653.276.168.313.373.206.652zm-.666-1.555c.213-.126.426-.25.64-.375 0 .35.057.643-.122.895-.057-.275-.157-.597-.52-.52.188-.11.358-.076 0 0zm.298 4.56l.078 1.18c-.647-.314.146-1.11-.706-.647l.628-.534zm-.244-1.08c-.212-.262-.215-.467.083-.562.157.543.235.853.003 1.372-.214-.26.13-.54-.086-.81-.238-.295.223.278 0 0zm.003-1.786c.122.23.247.685.044.92-.446-.537.3-1.01-.44-1.436-.15.142-.158.343-.02.603-.142-.302.033-1.135.56-.827-.28.225.144.514-.144.74zm-.625 5.135c-.132.06-.265.116-.398.175-.018-.16-.034-.32-.05-.48l.448.305c-.14.06-.16-.11 0 0zm-.24-4.424c.15-.027.297-.056.502-.094-.14.38-.35.15-.5.094zm1.906 5.43l.052.837c-.25-.417-.25-.417-.052-.837zm.027 2.09c.11.184.11.707.11 1.052l-.11-.03v-1.022zm.298-13.463c-.337.135-.676.27-1.014.407.223.266.9.324 1.213.37.136 1.467-4.55 1.088-5.026.296.71-.074 1.407-.236 2.118-.303.54-.05 1.298.21 1.634-.33-1.087-.052-2.176-.102-3.265-.155.873-.63 3.39-.772 4.34-.286-.365.146-.71-.364 0 0zm.91 6.188l.106.46-.117.03c-.255-.85-.233-.31.012-.49zm.736 10c.07.193-.065.26-.402.195l-.024-.163c.142-.012.285-.024.426-.034zm-25.136 7.17a13.057 13.057 0 0 1-.34-.015l.016-.132c1.358.127.007.046.324.147zm-38.77 1.295l.206.274c-.255.103.216.213-.397-.013.064-.087.13-.174.19-.262.076.1-.07.098 0 0zm4.828 3.58c-.292.082-.522.083-.673-.34l.673.34zm-11.48 4.985l.304-.718c.044.485.246.647-.305.718.098-.23.135-.017 0 0zm-.244 2.1c-.03-.332-.03-.332.447-.343l-.445.342zm-.654-12.51c-.166-.3-.43.868.04-.5.305.098.12.19-.04.5zM13.294 3.147c-.085.32.87-.258-.407.313-.02-.05-.04-.104-.062-.156l.47-.157zm.776-.347c.035.297.08.193-.323.368-.16-.264.025-.228.324-.368.013.096-.145.07 0 0zm1.027-.24l.31-.116c-.195.24-.273.28-.58.285l.27-.17zm1.01-.35a.684.684 0 0 0 .036.043c.122.117.036.22-.26.306-.027-.034-.053-.067-.082-.1l.31-.25zM24.815.766c-.027.028-.02.22-.225.285-.026-.042-.05-.085-.075-.13l.3-.154zm-3.6 2.06l-.85-.075c.214-.247.487-.243.85.076zm41.508 26.97c-.008-.11.135.418 0 .55v-.55zm16.95 93.61c-.368-.653-.003-1.728-.097-2.467-.088-.685.06-1.294.042-2.057-.027-1.023-.225-2.05-.27-3.034-.027-.593.4-1.36-.192-1.73.757-.155.276-1.075.132-1.5.16-.648-.022-1.4-.01-2.076.036-1.68-.06-3.35-.13-5.027-.133-3.24-.53-6.332-.257-9.45.06-.675-.315-1.102-.14-1.784-.072-.415-.192-.672-.227-1.137-.062-.86-.062-1.7-.08-2.56-.01-.446.076-1.83-.315-2.11.166-.513-.065-1.466-.107-2.01-.052-.66-.116-1.4-.214-2.05-.128-.847.088-2.865-.803-3.26.622-.347.33-.388.023-.912.514-.105.076-2.268-.115-2.79-.35-.97-.226-1.1-1.216-1.343.916-.474 2.134-.257 3.14-.783.76-.403.357-1.84.665-2.563.18-.422.104-1.04.12-1.495.036-.948-.24-.893-1.136-1.005-.86-.145-1.808-.3-2.482-.873-.374-.317-1.012-.29-1.465-.425-.33-.1-1.19-.097-1.428-.232-1.22-.7-2.773-.67-4.105-1.062-2.634-.775-5.786-1.124-8.51-1.215.183-.73.636-1.703.454-2.403-.11-.428.23-.786.145-1.213-.1-.513-.1-1.104.078-1.593.102-.274 0-.676.027-.977.057-.614.203-1.19.29-1.8.114-.81.645-2.692.017-3.24.85-.293.62-4.235.636-5.138.015-.88.418-1.75.16-2.63.024-.68.113-1.734.38-2.365.134-.312-.11-.862-.046-1.22.075-.422.038-.836.207-1.24.12-.292.086-.837-.042-1.156-.18-.448.19-1.48.187-2-.006-.988.294-1.936.25-2.934-.037-.898.023-1.897.123-2.793.047-.44.338-.6.085-.98-.14-.212.16-.457.272-.583-.44-.343-.114-1.236-.167-1.726-.06-.55.036-1.173.002-1.726.29-.3.235-1.23.192-1.688-.093-1 .072-2.016-.028-3.024-.046-.446.045-.846.317-1.208-.434-.305-.475-.19-.352-.778.066-.317-.474-1.732-.016-1.897-.44-.337-.49-.244-.37-.678.077-.284-.283-1.214-.356-1.52-.14-.6-.5-.678-.3-1.36-.292-.084-.81-1.143-.91-1.388a9.273 9.273 0 0 0-.99-1.765c-.163-.234-1.047-1.743-1.26-1.787-.96-.192-1.33-1.95-2.016-2.144-.634-.18-1.038-1.165-1.528-1.56-.997-.798-2.13-1.47-3.174-2.206-1.03-.725-6.98-2.787-6.864-3.562-.484.215-1.82-.048-2.153-.153-.835-.502-1.86-.708-2.73-.7-.415.005-.96-.21-1.386-.265-.426-.052-1.22-.45-1.604-.393-.634.095-1.26-.062-1.887-.126-.612-.063-.74.3-1.266.378.14.706 3.134.83 3.576.543.397.753 2.19.11 2.762.293-.065.126-.448.187 0 .36.5.19.316-.99.57.146.72-.56.848.552 1.523.01.39.62 1.182.75 1.69 1.24l-.172.203c.006-.004.01-.003.012.004.536-.215 1.16.15 1.676.308-.167.59 1.418 1.238 1.12 2.002.06-.153-1.494-.682-1.71-.757-1.147-.394-2.235-.73-3.43-.982-1.074-.23-2.147-.444-3.24-.568-.578-.066-2.626-.583-2.976.028-.35-.418-.758-.297-1.138-.69.167.506-.08.326-.497.35l.053-.18c-.59.23-1.442.175-2.097.073-.958-.15-1.88-.196-2.865-.202-2.117-.01-4.225.02-6.318.22-3.705.356-6.828 1.544-10.607 2.584.486-1.198 3.22-1.545 4.27-1.917.78-.276 1.643-.26 2.43-.534a10.28 10.28 0 0 1 2.48-.516c.922-.065 10.583-.824 10.606.03.497-.236.918-.164 1.47-.13.64.037 1.227-.127 1.83-.086 1.08.074 2.07.36 3.142.408 1.045.05 2.302.39 3.477.644.613.133 3.137 1.25 3.562.856a13.81 13.81 0 0 0-4.74-2.116c-1.16-.274-2.287-.38-3.47-.47-.565-.044-3.62.1-3.67-.602-.495.61-1.974.192-2.744.143a26.085 26.085 0 0 0-3.765.045c-1.1.094-2.242.287-3.334.324-.418.013-.693-.124-1.047-.07-.484.49-2.45.32-3.148.46-1.094.22-2.133.604-3.19.945-2.01.644-3.768 1.516-5.46 2.764.38.263.684-.324 1.033.014-.443.306-1.39 1.2-1.888 1.19-1.38-.03-2.613.662-3.75 1.363-2.148 1.324-3.05 3.85-3.81 6.097-.558-.63-.31-1.115.06-1.794.24-.44.446-.9.678-1.344.15-.293.682-.813.69-1.17.005-.205.824-1.1.975-1.306.232-.313.973-.998 1.317-1.124.79-.287 1.575-.753 2.352-1.095.802-.353 1.465-.082 2.082-.876.6-.773 1.55-1.27 2.33-1.873.47-.362 1.96-.504 1.75-1.12.66.09 1.79-.304 2.385-.58.284-.13.452.03.688-.044A3.118 3.118 0 0 1 19.69 1.9c.8-.132 2.017-.11 2.723-.495.57-.306.356-.255.97-.127.57.12 1.19.043 1.755-.078-.23-.847-.315-.594-1.147-.56-.44.017-.87.062-1.295.084-.744.45-3.685-.36-3.292 1.062l-1.47.336c-.012-.044-.022-.09-.035-.133.236-.078 1.223-.216 1.27-.57.066-.474-1.688-.05-1.986.02-.8.18-1.578.435-2.363.66-.49.14-1.214.54-1.7.58-1.326.108-2.18 1.16-3.378 1.447-.883.556-1.948 1.192-2.782 1.88-.385.317-.82.885-1.31 1.022-.37.103-.473.802-.86 1.14-.95.816-1.454 1.872-2.355 2.706-.778.723-1.25 2.274-1.46 3.303-.076.365-.187 1.242-.513 1.45-.45.288-.487.82.17.82-.695.317-.5.74-.276.383.085.257.012.475-.22.652-.02.06.283.046.157.292-.162.315-.06.728-.19 1.055-.306.786.176 1.594.257 2.35.09.84 0 1.712.172 2.57.137.68.51 1.645.37 2.364-.07.355.37.634.098.98.366.33.28 1.26.362 1.7.2 1.074 1.007 2.848.824 3.915-.044.26.198 1.476.447 1.84.564.83.344 2.225.69 3.14 1.38 3.667 1.853 7.688 2.77 11.325.576 2.294 1.147 4.65 1.504 6.99.18 1.186.504 2.363.73 3.543.126.65.14 1.297.24 1.947.082.518.54 1.168.2 1.583.523.313.79 2.903.16 3.057.52.652-.046.626-.586.523-.56-.106-1.457.044-1.63.56-.342 1.015-.195 2.516-.2 3.59a38.72 38.72 0 0 0 .03 2.044c.563.162 1.268.514 1.83.586.66.084.697-.07 1.06.275.15.1.31.143.49.127.605.035.02.094.265.29.04.034.433-.176.312.07.69-.58.5.48-.023.833.154-.03.307-.058.46-.09-.554 2.18-1.238 4.56-1.363 6.796-.02.364-.34.406-.35.694-.004.283.257.132.12.525-.26.74.12 1.74-.663 2.266.75-.108.083 1.207.02 1.716-.066.536-.19.9-.272 1.465-.142.982-.263 1.966-.39 2.95-.03.238.066.633.02.833-.067.287-.337.49-.233.808.098.306-.11 1.252-.138 1.585-.067.79-.293 1.596-.386 2.39-.108.91-.062 5.474-.738 5.69.77.287-.462 4.593-.347 5.548.056.476-.127 1.514-.223 1.998-.234 1.172-.237 2.42-.388 3.61-.29 2.275-.485 4.55-.807 6.82-.17 1.194-.225 2.396-.37 3.59-.133 1.085-.61 2.372-.39 3.465.15.747 1.627 1.684 2.34 1.78.572.078 2.05-.158 2.16-.88.177-1.174.498-2.32.7-3.49.118-.666.504-1.663.5-2.302-.007-1.727.593-3.632.964-5.34.163-.75.39-1.385.556-2.087.19-.796.666-1.48.204-2.236.734.036 1.508.71 2.15 1.026.95.47 1.906.925 2.875 1.352.705.31 3.147 1.11 2.985 2.1.414-.34.39-.197.798.052.18-.506.275-.473-.077-.95.17-.395.235-.83.12-1.253-.022-.086-.17-1.576-.12-1.608.477-.3-3.264-1.793-3.72-2.07-.78-.478-1.677-.71-2.47-1.145-.4-.22-.78-.49-1.17-.726-.667-.406-.777-.475-.68-1.284.166-1.375 1.265-3.56.447-4.798.675-.183.507-.147.6.395 1.182-.197 2.485-.28 3.686-.28 1.046 0 2.385-.548 3.392-.25-.022-.523-.273-1.39.02-1.857.362.506.258 1.45.097 2.062-.102.396.102 1.043.048 1.498a9.476 9.476 0 0 0-.05 1.873c.092 1.33.033 2.66.074 3.99.02.648-.146 1.273-.07 1.92.1.86.05.928.862 1.196a94.81 94.81 0 0 0-.76.112c.054.527.11 1.056.162 1.585.07.758.087 1.49.11 2.267.064 2.142.138 4.292.232 6.425.157 3.657.465 7.302.594 10.966.033.904-.435 3.685.683 4.03.676.213 1.826.864 2.53.75.402-.063 1.61-.373 1.906-.635.58-.515-.097-1.434.362-1.79-.04-.63-.073-1.1-.018-1.774.084-1.024.48-2.736-.405-3.25.77-.1.453-.44.54-1.145.126-1.03.046-2.057.012-3.09-.022-.705.088-.753.046-1.47a31.743 31.743 0 0 1-.057-3.063c.073-1.9.004-3.81.12-5.702.118-1.918.214-3.882.214-5.808.31.76.85.608 1.59.508 1.178-.156 2.315.115 3.492.09.87-.018 1.694-.043 2.564.01.725.043 1.656-.287 2.346-.196 1.918.253 3.93-.207 5.873.034.95-.037 4.045.345 4.388-.846.617.718 1.726.426 2.604.177-.338-.37-.08-.848-.29-1.252-.24-.466-.215-.567-.215-1.216-.67-.164-.146 1.71-.815 1.94-.05-.317-.052-1.67-.294-1.858-.167-.133-1.31.073-1.573.064.56-.666 1.576.132 1.505-.97-.02-.326.015-.613.35-.775.464.33.374.885.515 1.364.563-.1.368-.42.325-.85-.07-.697.623-.417.847-.01.15.268.062 1.18.754.742.414-.263-.102-1.004.452-1.296.363.283.26.91.908.686-.11.14-.22.28-.332.417 1.08.112 2.164-.09 3.247-.013-.29.276-.924.12-1.035.482.29.34.77-.066 1.1.297h-2.02c.242-.107.484-.21.728-.315-.55-.365-1.296-.1-1.93-.024l-.015.155.63.09-.81.316c.206.27-.04.725-.198.99-.376.623-.42-.765-.433-.803-.12-.352-.625-.237-.896-.223l-.5 2.244c1.11-.187 4.95-.95 5.42.054.96-.8 2.573-.465 3.793-.58 1.935-.18 3.88-.248 5.82-.433 1.835-.176 3.67-.404 5.513-.27.226-.155-.362-2.555-.88-2.76.774.12.193-.118.687-.425.428-.266.725-.19.9.154.29.575 1.757.08 2.236 0l-.374-.794c.788.473.424 1.252.95 1.715.692.598-.69 1.725-.985 2.027-.634-.562-.374 1.463-.36 1.834.037.833-.275 2.663.728 3.003-.803.025-.498 1.543-.41 2.152.162 1.136-.033 2.4.257 3.515.3 1.158.173 2.636.237 3.835.07 1.33.307 2.645.353 3.966.037 1.078.23 2.15.393 3.204.158 1.026.234 2.26.59 3.232.355.97 1.627 1.08 2.45.852.48-.135 1.016-.037 1.45-.337.195-.594-.043-1.33.365-1.685-.19-.34-.25-1.425-.106-1.89.342-1.086.122-2.552.134-3.716l.03-3.457c.01-.655-.172-1.954.097-2.536-.318-.565-.206.443 0 0z" fill="#814D07" fill-rule="evenodd"/>
</svg>
