<svg width="160" height="140" viewBox="0 0 160 140" xmlns="http://www.w3.org/2000/svg"><title>Artboard 1</title><path d="M108.718 39.86c-.333-.377-.566-.39-.92-.057.295.295.59.258.92.058zm-7.338-4.385c.575.26 1.173.18 1.77.156.002-.047.006-.094.01-.143l-1.748-.127-.032.115zm-5.76 5.67c-.53-.195-1.063-.336-1.614-.14-.004.055-.008.107-.01.16l1.625.108v-.13zm14.395-1.146c.433.203.844.095 1.257.008-.482-.32-.97-.32-1.257-.01zm-3.885 9.105l-2-.113c0 .053-.004.107-.007.16l2.005.164c0-.07 0-.14.002-.21zm-4.218-2.71l.008-.223c-.73.03-1.446-.24-2.186.044.727.02 1.443.427 2.178.178zm4.237 3.958c-1.034-.258-2.01-.044-2.96-.17.503.264 2.614.383 2.96.17zm-9.89-9.11c1.234.098 2.39.19 3.546.285-.674-.457-2.46-.588-3.546-.286zm23.963-4.07c-1.286-.134-2.57-.27-3.857-.406l-.017.163c1.29.087 2.55.456 3.85.446.01-.067.016-.135.023-.202zm-17.133.9c.29.062.593.204.873.17.642-.075 1.233.014 1.82.273.328.147.67.155.953-.102 0-.05.002-.1.004-.15l-3.638-.3-.012.11zm10.632 3.575l3.065.37c-.51-.437-2.672-.738-3.057-.51l-.008.14zm-4.374-.59c-.678-.01-1.34-.29-2.03-.17.588.318 3.733.674 4.096.43-.677-.18-1.365-.25-2.066-.26zm-7.848-4.453c-.075.036-.147.076-.302.156 1.53.237 2.96.34 4.397.34l.014-.145-3.855-.47c-.103.05-.18.083-.255.12zm7.236 10.338c-1.58-.096-3.136-.475-4.73-.377.784.365 4.372.642 4.73.377zm-.235-3.49c-.782-.386-5.625-.812-6.055-.495l6.036.62c.008-.042.014-.084.02-.126zm-6.69-.757c-.175-.04-.346-.107-.523-.118-1.398-.083-2.797-.15-4.195-.233-.572-.033-1.142-.114-1.714-.14-.558-.024-1.117-.005-1.674-.005l-.004.137c.888.166 1.784.245 2.692.25.894.004 1.792.01 2.68.094.903.085 1.798.274 2.71.145l.028-.13zm-10.873-5.182c.26.018.517.055.775.05.762-.013 1.524-.075 2.284-.06.844.018 1.687.094 2.53.154.93.066 1.857.146 2.787.214.578.04 1.158.072 1.737.11l.02-.138c-.187-.05-.373-.124-.564-.143-.77-.078-1.542-.137-2.313-.207-.27-.024-.538-.076-.81-.086-1.706-.06-3.413-.122-5.12-.163-.442-.01-.883.052-1.325.08v.19zm-.47 1.21c1.25.04 2.498.074 3.746.12 1.235.048 2.47.13 3.703.155 1.224.025 2.44.396 3.67.1-.125-.067-.253-.084-.382-.094-.975-.074-1.95-.153-2.925-.22-1.487-.102-2.973-.222-4.462-.284-1.01-.044-2.025-.007-3.037 0-.107 0-.214.042-.322.064l.01.16zm10.05-2.192c-3.734-.468-7.483-.568-11.24-.527 0 .05-.003.1-.005.15l11.235.497.01-.12zm-14.04-1.707c.26.04.52.1.78.11.458.012.917-.025 1.375-.01 2.067.068 4.135.15 6.203.22 1.284.043 2.57.014 3.845.258.47.09.972.005 1.46 0v-.177c-.178-.023-.355-.06-.533-.07-.66-.04-1.317-.08-1.976-.11-1.65-.075-3.274-.463-4.947-.347-1.283.088-2.575.03-3.862.03-.27 0-.54-.042-.81-.046-.502-.008-1.003-.002-1.505-.002-.008.048-.017.095-.027.143zm52.727 7.64c-.247-.143-.48-.344-.746-.42-1.534-.427-3.068-.86-4.618-1.223-1.252-.293-2.53-.473-3.792-.727-1.86-.374-3.707-.814-5.574-1.142-1.8-.318-3.62-.538-5.43-.787-1.21-.166-2.42-.313-3.63-.456-.163-.02-.333.035-.5.056-.01.05-.022.1-.034.15.126.08.246.21.38.227 1.126.135 2.256.248 3.385.37.59.063 1.18.11 1.766.204.886.143 1.765.333 2.648.483 1.053.18 2.114.31 3.16.512 1.065.205 2.113.486 3.174.707 1.708.354 3.427.66 5.13 1.04 1.188.267 2.358.623 3.535.94.35.094.7.193 1.05.29.03-.076.064-.15.097-.226zM45.634 61.63c.094-.182.19-.366.275-.533-.288-.237-.515-.268-.614-.01-.052.14.077.348.124.525l.214.02zm-11.4-3.607c-.138-.05-.275-.11-.417-.146-.688-.17-1.382-.313-2.064-.502-1.17-.325-2.334-.677-3.5-1.017-1.378-.4-2.774-.75-4.13-1.213-1.76-.6-3.49-1.286-5.23-1.95-.23-.09-.425-.27-.64-.403-.283-.177-.567-.35-.896-.552l-.19.352c.73.456 1.395.92 2.105 1.3.592.32 1.235.545 1.855.812.217.093.426.21.65.28.48.148.974.26 1.455.41.354.108.69.29 1.05.377 1.46.356 2.936.663 4.394 1.033 1.64.416 3.264.885 4.9 1.318.202.055.426.032.64.046l.02-.143zm43.29 6.216c.193.008.387.024.582.026.763.006 1.526-.002 2.29.016 1.793.043 3.586.135 5.38.137 1.882 0 3.764-.075 5.645-.12.713-.018 1.425-.034 2.135-.078.213-.014.432-.09.626-.185.47-.23.928-.484 1.39-.728-.173-.073-.347-.083-.52-.07-2.01.132-4.02.266-6.028.406-.184.012-.363.083-.547.104-.468.055-.938.107-1.408.137-.23.015-.396-.09-.37-.478 1.485-.12 2.98-.185 4.49-.198 1.496-.014 2.99-.257 4.594-.41-.43-.72-1.233-.27-1.626-.752-.22-.723-.327-.792-1.08-.7-.052.007-.102.015-.153.018l-6.085.346c-.524.03-1.048.088-1.572.096-1.17.018-2.34.007-3.51.022-.172.003-.344.084-.517.13.01.044.017.09.025.135.163.02.326.056.488.057 1.033.008 2.067.02 3.1.006 1.983-.026 3.966-.055 5.95-.107.743-.02 1.485-.117 2.23-.155.286-.015.577.036.866.058l.018.172c-.126.056-.25.15-.38.165-.775.09-1.55.195-2.326.237-1.993.106-3.99.18-5.984.27-1.724.08-3.448.162-5.172.235-.15.007-.3-.042-.45-.057-.266-.024-.532-.055-.798-.057-.77-.005-1.552.228-2.295-.19-.185-.106-.395-.045-.51.285.205.047.386.114.57.125 1.247.074 2.492.175 3.74.19 1.827.025 3.655-.02 5.484-.02.245 0 .488.082.817.14-.13.182-.175.302-.224.305-2.95.156-5.9.302-8.848.45-.004.012-.01.023-.012.034zM32.105 49.63c.436.032.876.06 1.338-.213-.458-.187-.458-.187-1.338.214zm102.353 1.666c-.416-.135-.75-.293-1.107-.045.257.404.44.415 1.106.046zM103.35 56.71l-.016-.202-1.31.057.01.187c.442.186.882.15 1.316-.043zm-62.647-2.266c-.536.036-.97.066-1.494.1.686.406 1.188.39 1.495-.1zm-5.46-4.106c.467.257 1.347.054 1.586-.34-.606-.078-1.235.047-1.585.34zm-2.048 2.52c-.17.12-.273.204-.39.267-.114.063-.242.1-.396.164.605.396 1.025.33 1.397-.21l-.61-.22zm1.276-4.914c-.833-.195-1.54.267-2.323.333.013.066.025.132.04.198.755-.207 1.56-.157 2.283-.53zm.673 4.944c.817.14 1.57-.06 2.295-.413-.773.088-1.587-.062-2.294.413zm-.622-2.234l-.033-.167c-.582-.168-2.31.207-2.597.67.877-.166 1.755-.334 2.63-.503zm4.112 1.547l.023.208c.776.147 1.52-.23 2.286-.268.14-.006.273-.138.41-.212l-.068-.17c-.872.22-1.795.137-2.652.443zm48.8 5.424l.04-.23c-.156-.036-.31-.098-.47-.106-.298-.016-.6-.008-.9.002-.42.013-.84.03-1.26.067-.088.007-.167.106-.25.163l.033.104h2.806zm32.053-3.97c.545.81 2.08 1 2.634.326-.92.122-1.662-.633-2.635-.326zm.233 1.09l-.003-.126c-.155-.036-.31-.097-.467-.105-.843-.05-1.687-.09-2.53-.12-.185-.01-.377 0-.556.043-.16.038-.308.132-.462.2l.012.146c.425.163.836.376 1.326.328.588-.058 1.177-.113 1.764-.187.308-.04.612-.12.916-.18zM43.378 45.25l-.038-.144c-.66-.232-4.997.52-5.4 1.026.324-.026.562-.038.8-.066.934-.11 1.875-.195 2.804-.35.62-.103 1.223-.308 1.834-.467zm87.357 4.364c.416.325.828.46 1.256.493 1.154.087 2.255.375 3.337.765.238.085.486.152.664-.124-.574-.62-4.428-1.495-5.255-1.134zm-94.077-5.98l.026.172c.29-.014.583-.01.87-.047.336-.042.666-.123 1-.174.684-.104 1.37-.193 2.05-.3.687-.107 1.366-.264 2.055-.338 2.07-.223 4.146-.414 6.22-.624.114-.01.222-.08.333-.124 0-.044 0-.087-.002-.13-.144-.055-.29-.157-.433-.154-.507.008-1.018.026-1.522.087-1.698.21-3.394.426-5.088.662-1.475.206-2.947.432-4.418.67-.37.06-.728.197-1.092.298zm14.596 4.594c-.345-.332-.683-.298-1-.264-1.11.12-2.222.25-3.332.392-2.62.338-5.243.677-7.86 1.04-.492.068-.97.246-1.453.374.01.046.022.093.034.14.202 0 .408.025.605-.005.598-.09 1.19-.223 1.79-.3.773-.1 1.55-.158 2.324-.244 1.196-.132 2.392-.268 3.588-.41 1.493-.18 2.986-.363 4.478-.552.248-.03.49-.1.824-.17zm75.945-.683c-.052.637.334.703.646.76.83.153 1.675.24 2.508.39 1.78.32 3.562.646 5.336 1.007.502.103.976.34 1.566.554l.58-.308-.02-.113c-.137-.05-.27-.113-.41-.148-1.446-.356-2.888-.727-4.34-1.053-1.702-.384-3.413-.733-5.124-1.083-.228-.045-.474-.005-.743-.005zm2.78-4.307c.004.534.348.544.63.603.88.185 1.77.32 2.638.54 1.886.476 3.76 1.003 5.643 1.49.765.195 1.543.337 2.387.52l.19-.676c-.34-.03-.616-.013-.868-.082-1.908-.522-3.8-1.1-5.72-1.58-1.394-.347-2.817-.58-4.232-.846-.21-.04-.44.02-.67.032zm-69.066-6.792c.044-.484-.106-.694-.567-.69-.846.01-1.696.02-2.538.102-1.363.13-2.72.325-4.08.48-.47.056-.948.06-1.417.12-1.898.253-3.793.52-5.69.78-2.08.287-4.157.574-6.236.867-.144.02-.282.097-.423.146l.045.166c1.754 0 3.46-.48 5.2-.628 1.738-.148 3.465-.416 5.2-.592 1.753-.178 3.508-.33 5.264-.456 1.746-.123 3.496-.198 5.24-.294zm-.077 6.02l-.183-.494c-.382.024-.72.04-1.053.07-1.4.133-2.802.26-4.2.41-1.214.132-2.423.31-3.637.433-1.855.187-3.716.317-5.57.52-1.596.177-3.188.405-4.777.64-1.86.274-3.714.577-5.57.88-.228.037-.444.153-.667.232l.042.202c.336-.04.676-.054 1.005-.12.698-.136 1.384-.34 2.085-.442 1.09-.16 2.188-.253 3.28-.39 1.33-.164 2.653-.366 3.985-.51 1.583-.175 3.17-.305 4.755-.454 1.383-.13 2.765-.272 4.15-.388 1.925-.16 3.854-.3 5.78-.456.162-.014.32-.073.575-.134zm60.72 1.94l-.05.164c.15.1.287.25.45.29.477.118.96.204 1.445.277 2.312.346 4.624.684 6.935 1.026.134.02.264.065.395.1.72.184 1.436.407 2.165.55 2.15.414 4.262.962 6.36 1.58.31.092.63.123.855-.292-.142-.06-.253-.125-.374-.158-.36-.1-.724-.175-1.082-.277-1.106-.32-2.2-.682-3.317-.96-1.595-.395-3.203-.733-4.806-1.09-.957-.212-1.91-.442-2.875-.61-1.403-.246-2.81-.452-4.22-.658-.63-.092-1.26-.056-1.882.06zM35.59 51.45c.01.053.023.105.034.156.55-.045 1.103-.066 1.65-.143.564-.08 1.12-.23 1.684-.317.57-.086 1.146-.12 1.717-.194.99-.13 1.98-.276 2.97-.408 1.09-.147 2.183-.284 3.274-.43.904-.12 1.808-.27 2.717-.362 1.002-.103 2.01-.148 3.015-.23.473-.04.94-.124 1.414-.16 1.06-.083 2.123-.145 3.184-.222 2.13-.153 4.258-.31 6.387-.47.165-.012.326-.077.49-.117 0-.047.002-.094.003-.14-.323-.297-.7-.443-1.166-.377-.403.055-.807.107-1.213.137-1.503.112-3.008.23-4.514.316-2.228.128-4.4.74-6.637.794-.084.002-.167.033-.25.043-1.377.167-2.752.34-4.13.498-1.088.126-2.185.194-3.266.36-2.293.356-4.58.757-6.867 1.142-.168.03-.332.082-.497.124zm45.206-4.964l-.03-.245c-.3-.074-.597-.217-.894-.212-2.473.045-4.947.086-7.42.19-2.436.103-4.872.26-7.307.426-2.74.187-5.482.388-8.22.623-1.653.143-3.3.36-4.95.553-.15.018-.292.1-.438.15.627.3 1.248.255 1.87.19.927-.094 1.852-.22 2.78-.285 2.198-.155 4.397-.302 6.597-.416 3.42-.178 6.842-.326 10.263-.485.71-.033 1.423-.072 2.134-.084 1.374-.022 2.747-.024 4.12-.04.288-.003.584.01.86-.053.224-.05.425-.203.636-.31zm-7.218 11.17c.59.324 10.128.17 10.775-.184-.17-.052-.288-.117-.408-.12-.88-.032-1.76-.072-2.64-.07-.876.003-1.754.064-2.63.08-.73.01-1.46-.004-2.19-.012-.173-.003-.347-.027-.52-.04-.003-.064-.003-.127-.005-.19.28-.015.56-.032.84-.045.623-.028 1.244-.058 1.866-.08.387-.014.798-.1 1.158-.004.685.187 1.342.055 2.015.013.792-.05 1.59-.053 2.385-.044 1.213.012 2.425.066 3.638.08.61.004 1.217-.07 1.825-.064 1.877.012 3.754.044 5.63.07.102 0 .203.008.305.007 1.288-.01 2.574-.01 3.862-.037.162-.003.322-.13.483-.198l-.02-.206c-.248-.057-.493-.15-.743-.164-.625-.037-1.25-.043-1.878-.05-.59-.003-1.18.01-1.77.012-.085 0-.168-.025-.25-.034-.465-.052-.928-.137-1.393-.146-.692-.014-1.386.04-2.08.038-1.438-.003-2.878-.038-4.317-.03-1.067.005-2.132.07-3.198.083-1.018.014-2.034-.025-3.05-.01-1.42.023-2.84.084-4.26.11-.98.02-1.962-.01-2.943.015-1.455.038-2.91.106-4.366.157-.37.013-.745 0-1.116.013-1.318.048-2.637.103-3.954.154-.22.01-.44.004-.66.02-.96.077-1.917.156-2.875.24-.217.02-.432.063-.65.096l.015.21c3.14.054 6.275.352 9.408.133.202-.128.417-.306.635-.31.964-.014 1.928.02 2.892.04.077.003.152.054.234.084-.02.137-.034.25-.052.38zm-24.984-1.828c-.01.062-.017.125-.025.187.077.053.155.152.234.153.505.008 1.037.088 1.51-.04.5-.133.978-.22 1.492-.188.32.02.644-.023.966-.046 1.586-.118 3.17-.25 4.758-.357 1.52-.1 3.044-.183 4.567-.255 2-.094 4-.17 6-.25 1.493-.058 2.985-.107 4.477-.16 1.848-.068 3.696-.158 5.544-.193 2.594-.05 5.188-.07 7.78-.083 2.63-.014 5.26-.02 7.887-.002 2.223.016 4.445.07 6.668.11.66.01 1.32.017 1.977.06.856.058 1.71.19 2.564.21.437.01.87-.142 1.23.248.075.08.253.08.386.086.83.04 1.658.065 2.486.112.19.01.376.092.563.14l-.042.22c-.906-.064-1.812-.116-2.716-.196-.317-.03-.628-.176-.944-.183-1.418-.034-2.84-.02-4.258-.057-.93-.022-1.856-.103-2.784-.147-1.472-.07-2.944-.166-4.416-.18-1.54-.017-3.08.057-4.618.078-2.254.03-4.51.044-6.763.075-2.747.036-5.494.07-8.24.13-2.237.05-4.476.123-6.714.213-1.44.06-2.88.155-4.318.253-2.144.146-4.287.308-6.432.466-1.13.082-2.26.168-3.392.26-.107.008-.21.07-.317.108l.023.135c.57.034 1.142.12 1.71.097 1.102-.042 2.2-.155 3.3-.213.34-.017.685.047 1.027.075.197-.01.395-.136.603-.16.605-.067 1.213-.11 1.82-.132.982-.035 1.964-.035 2.945-.072.422-.017.842-.122 1.263-.13.946-.02 1.895.008 2.842-.005 1.88-.025 3.758-.066 5.638-.103.532-.01 1.063-.238 1.6-.014.04.017.098-.008.15-.01.675-.046 1.35-.12 2.026-.127 2.542-.028 5.086-.027 7.628-.047 1.405-.012 2.81-.067 4.214-.062 2.064.01 4.128.06 6.193.08 1.538.016 3.08.05 4.62.006 1.237-.037 2.444.368 3.685.21.064-.01.132.032.2.036.827.054 1.66.186 2.48.137 1.16-.07 2.31-.282 3.468-.41.45-.05.908-.02 1.36-.058.743-.063 1.485-.14 2.224-.237.152-.02.29-.155.432-.237l-.032-.18c-.198-.02-.395-.055-.592-.054-.253.002-.51.073-.758.045-1.967-.215-3.95-.278-5.9-.67-.616-.125-1.275-.034-1.913-.046-.17-.002-.344.004-.502-.043-1.26-.378-2.53-.29-3.842-.124-.524-.41-.524-.397-1.258-.396-.933.003-1.868.03-2.797-.037-1.895-.137-3.79-.165-5.686-.096-.692.026-1.388-.073-2.08-.06-1.95.036-3.897.11-5.846.15-1.305.027-2.61.02-3.914.027-1.12.006-2.24-.018-3.357.018-1 .034-1.995.148-2.995.2-2.608.136-5.216.234-7.822.393-2.046.125-4.09.315-6.132.485-.844.07-1.686.172-2.53.243-1.013.085-2.027.155-3.04.226-.167.01-.337 0-.506-.013-.95-.063-1.868.108-2.64.265l-2.424.133zm50.43-5.96c0 .014-.004.03-.006.044h-3.02c-.254 0-.507-.023-.76-.023-1.015 0-2.03.016-3.046.006-.73-.007-1.457-.073-2.186-.068-1.88.012-3.76.055-5.643.074-.963.01-1.926-.023-2.89-.012-1.897.023-3.797.028-5.693.105-2.843.117-5.684.28-8.525.443-1.42.08-2.842.176-4.26.316-2.868.284-5.733.606-8.6.907-1.5.16-3.004.314-4.507.457-1.333.126-2.672.196-4 .36-1.785.22-3.563.502-5.343.767-.146.023-.28.126-.42.19l.055.167c.138-.012.276-.02.413-.04.216-.037.43-.098.646-.12 1.937-.215 3.875-.43 5.814-.63 1.65-.17 3.302-.34 4.956-.482 3.26-.277 6.523-.54 9.786-.796 1.89-.15 3.78-.296 5.674-.41 1.638-.097 3.28-.152 4.922-.218 2.22-.09 4.44-.203 6.66-.25 2.513-.05 5.025-.054 7.536-.05 1.286 0 2.573.065 3.86.097 2.405.062 4.812.114 7.218.182.592.016 1.182.08 1.773.125.486.037.972.085 1.46.112.472.025.946.012 1.417.05 1.03.083 2.055.183 3.082.286.302.03.6.09.902.137-.006.053-.01.107-.017.16-.14 0-.278.01-.416 0-.49-.033-.98-.074-1.47-.107-.997-.07-1.993-.133-2.99-.208-.758-.057-1.513-.143-2.27-.19-.455-.028-.913.007-1.368-.01-.39-.014-.778-.088-1.167-.09-2.967-.015-5.933-.02-8.9-.026-1.067-.002-2.135-.016-3.202.006-2.832.057-5.664.1-8.495.208-2.063.08-4.13.06-6.188.35-1.37.193-2.77.17-4.155.257-2.05.13-4.1.227-6.144.42-2.765.26-5.523.594-8.283.907-.688.08-1.368.245-2.057.3-1.553.128-3.11.2-4.663.32-.337.025-.666.16-1 .243l.024.152c.28 0 .562.016.84-.002.965-.067 1.927-.148 2.89-.216.304-.022.613-.002.915-.033 1.633-.166 3.265-.344 4.897-.514.81-.084 1.617-.177 2.43-.236 1.214-.09 2.434-.138 3.65-.23 1.69-.127 3.375-.32 5.066-.41 2.913-.156 5.83-.266 8.745-.374 2.675-.1 5.35-.192 8.026-.248 2.593-.054 5.188-.078 7.783-.075 2.254.004 4.507.068 6.76.094.49.007.986-.077 1.474-.045 1.824.115 3.642.364 5.477.263.133-.007.27.025.404.043.89.122 1.78.24 2.67.37.126.02.246.083.368.126l-.02.176c-.31.018-.622.07-.928.045-1.028-.087-2.054-.21-3.082-.303-.692-.064-1.385-.116-2.08-.145-.912-.04-1.826-.04-2.74-.07-1.406-.045-2.81-.138-4.218-.14-2.12-.003-4.24.043-6.36.09-2.22.048-4.44.12-6.66.185-1.81.054-3.624-.105-5.435.1-1.01.114-2.03.11-3.048.167-.912.05-1.824.108-2.735.165-1.59.098-3.184.176-4.772.303-1.74.14-3.475.333-5.212.485-2.01.177-4.02.337-6.032.498-1.486.12-2.976.214-4.46.35-1.215.11-2.427.258-3.638.4-.142.018-.277.11-.415.165l.023.168c.18.014.363.052.542.037.893-.08 1.786-.185 2.68-.26 2.803-.24 5.608-.477 8.412-.703.998-.08 1.997-.137 2.995-.193 1.146-.063 2.294-.094 3.44-.17 1.436-.097 2.87-.262 4.307-.332 2.252-.11 4.507-.173 6.762-.244.964-.03 1.93-.025 2.894-.048 1.967-.044 3.935-.073 5.9-.153 1.998-.083 4.003.14 5.994-.162.082-.013.17-.002.253.002.523.026 1.046.066 1.57.076 1.44.027 2.88.045 4.32.06 1.052.01 2.103-.016 3.153.02 1.526.05 3.052.12 4.575.224 1.856.126 3.71.295 5.562.446.524.042 1.05.07 1.57.133 1.313.16 2.623.352 3.937.505.503.06 1.015.063 1.522.06.203-.003.404-.1.63-.16-.143-.428-.462-.46-.756-.494-.724-.085-1.452-.135-2.175-.226-1.56-.195-3.12-.404-4.68-.617-.183-.026-.357-.11-.535-.167.004-.06.01-.12.013-.177.2-.017.402-.067.598-.046 1.838.193 3.673.4 5.51.596.64.068 1.304.252 1.914.144.84-.15 1.566.093 2.337.276.434.104.9.09 1.352.078.166-.004.327-.16.49-.246l-.018-.137c-.182-.065-.36-.164-.546-.188-1.135-.144-2.272-.277-3.41-.4-1.732-.19-3.467-.365-5.2-.555-.174-.018-.34-.097-.637-.185.188-.167.287-.33.385-.33.467.002.934.027 1.397.08.674.078 1.342.204 2.016.278 1.06.118 2.12.2 3.18.315.774.086 1.542.214 2.316.303.99.114 1.994.146 2.97.326 1.01.186 2.036.25 3.044.504.596.15 1.303-.138 1.96-.23-.535-.177-1.083-.31-1.64-.375-2.103-.25-4.2-.547-6.26-1.062-.226-.056-.47-.05-.705-.068-.303-.023-.608-.034-.91-.068-1.765-.193-3.53-.38-5.294-.595-.54-.065-1.07-.216-1.604-.327v-.158c.143-.028.29-.088.43-.077.96.076 1.916.152 2.87.256.91.1 1.81.312 2.72.33 1.482.032 2.913.395 4.375.56 1.702.195 3.39.496 5.084.755.587.09 1.17.21 1.757.285.28.036.61.134.87-.295-.26-.097-.477-.22-.71-.26-1.216-.213-2.437-.412-3.66-.6-2.377-.37-4.757-.734-7.137-1.093-.553-.083-1.112-.135-1.665-.21-1.29-.18-2.58-.365-3.868-.55-.11-.015-.218-.05-.326-.08l.017-.12c.166-.012.33-.044.493-.03 1.447.112 2.893.22 4.337.36.607.06 1.205.197 1.81.278 1.477.198 2.954.382 4.432.575 1.526.2 3.05.405 4.577.61.148.02.295.068.443.097.412.08.823.165 1.236.234.5.08 1.003.136 1.5.222.45.077.894.21 1.346.264.378.046.76 0 1.157-.374-.283-.08-.462-.15-.647-.177-1.184-.165-2.398-.1-3.554-.48-.095-.032-.2-.035-.302-.044-.27-.024-.543-.02-.808-.07-1.346-.247-2.687-.527-4.035-.76-1.136-.194-2.283-.328-3.42-.51-1.457-.234-2.905-.516-4.364-.724-1.068-.152-2.15-.215-3.223-.327-.15-.015-.294-.08-.44-.12 0-.053.002-.106.003-.157.165-.03.33-.082.493-.082.185 0 .368.054.554.07 1.452.13 2.907.23 4.355.39.84.093 1.663.31 2.502.423 1.643.22 3.295.387 4.937.62 1.24.174 2.474.395 3.705.634 1.293.25 2.636.203 3.9.65.2.07.44.04.656.023.095-.007.185-.096.277-.148 0-.046-.004-.092-.006-.137-2.1-.75-4.347-.79-6.506-1.26-2.2-.48-4.446-.755-6.673-1.118-2.193-.357-4.387-.71-6.58-1.066l.01-.15c.313 0 .628-.024.937.008.232.024.454.154.686.176.876.083 1.76.098 2.63.217 2.587.355 5.168.745 7.752 1.122.117.018.23.055.35.074 1.085.172 2.172.348 3.26.507.275.04.54-.015.718-.43-1.875-.494-3.776-.63-5.63-1-1.863-.37-3.752-.6-5.627-.9-1.863-.298-3.726-.607-5.666-.923.126-.063.172-.107.214-.104.86.06 1.722.1 2.578.198 1.01.113 2.014.272 3.02.418 1.98.287 3.962.574 5.942.868.603.09 1.202.214 1.805.302.314.046.626.035.67-.51-1.86-.485-3.78-.646-5.656-1.03-1.87-.38-3.778-.526-5.626-1.015.052-.05.1-.08.145-.076 1.492.144 3.018.052 4.453.622.09.036.198.036.298.046.773.074 1.55.106 2.313.227 1.858.294 3.71.63 5.565.947 1.6.273 3.21.515 4.804.82 1.096.21 2.177.504 3.262.767.395.096.784.212 1.173.33.253.076.51.15.748.265.39.19.684.075.777-.36-.082-.038-.166-.095-.258-.12-1.64-.423-3.28-.846-4.92-1.26-.46-.117-.927-.21-1.392-.307-1.72-.363-3.434-.75-5.16-1.077-1.448-.274-2.91-.475-4.362-.714-.685-.114-1.368-.245-2.054-.358-1.12-.186-2.24-.365-3.362-.542-.812-.13-1.628-.247-2.44-.38-.114-.018-.218-.088-.326-.136.01-.033.02-.068.032-.102 1.948.044 3.858.575 5.907.57l-.134-.646c-1.024-.16-2.005-.265-2.964-.47-.962-.207-1.97-.208-2.895-.595.052-.056.098-.08.14-.075 1.65.17 3.3.344 4.95.52.083.01.164.043.246.06.545.12 1.084.272 1.634.35 1.42.198 2.847.348 4.267.55.67.095 1.324.276 1.99.392 1.216.213 2.44.386 3.654.615 1.263.238 2.518.522 3.774.794.315.07.624.16.935.246.947.264 1.892.54 2.842.792.44.116.894.19 1.34.28.01.05.016.1.025.15.173-.173.546-.176.457-.585-.37-.085-.718-.15-1.058-.247-.798-.232-1.585-.502-2.387-.717-1.11-.296-2.227-.574-3.348-.826-1.6-.36-3.205-.702-4.812-1.028-.912-.184-1.833-.324-2.75-.48-1.622-.273-3.245-.543-4.87-.812-1.252-.207-2.507-.406-3.76-.62-.266-.045-.524-.136-.785-.206l.02-.137c.228-.034.46-.112.687-.094.655.052 1.31.118 1.96.22 1.12.177 2.232.392 3.35.578 1.555.258 3.11.506 4.666.754.493.08.987.15 1.534.23l.066-.66c-5.08-1.04-10.162-1.826-15.236-2.67 4.592.297 9.115 1.078 13.648 1.817 4.564.745 9.025 1.904 13.56 3.195-.03-.29-.044-.446-.06-.624-.87-.263-1.703-.54-2.548-.77-1.178-.322-2.362-.624-3.55-.907-1.764-.42-3.532-.825-5.303-1.215-1.088-.24-2.19-.43-3.28-.658-.694-.146-1.375-.36-2.072-.477-1-.167-2.012-.274-3.02-.405-1.192-.155-2.386-.297-3.577-.47-1.038-.148-2.073-.33-3.11-.5-.1-.016-.196-.057-.295-.086.004-.037.01-.074.013-.11.277 0 .556-.027.83.004.722.08 1.442.186 2.163.276 1.075.134 2.15.258 3.223.393.438.055.874.124 1.31.192 1.86.288 3.723.55 5.576.876 1.602.28 3.197.613 4.786.96 1.77.39 3.534.805 5.293 1.238.754.187 1.487.458 2.236.67.21.058.44.042.66.06l.074-.14c-.096-.14-.164-.314-.29-.414-.333-.26-.703-.47-1.038-.73-1.237-.952-2.498-1.847-4.163-1.826-.067 0-.134-.02-.2-.034-2.615-.577-5.228-1.16-7.843-1.73-1.172-.255-2.348-.495-3.524-.732-.93-.186-1.863-.354-2.793-.537-.085-.017-.16-.084-.238-.127l.012-.135c.2 0 .41-.03.603.005 2.116.377 4.233.747 6.343 1.156 1.013.197 2.01.473 3.016.712.378.09.757.178 1.137.262.32.07.646.178.997-.082-.118-.093-.194-.192-.293-.228-.43-.155-.86-.32-1.303-.43-1.81-.454-3.615-.916-5.434-1.324-1.506-.337-3.02-.653-4.544-.89-1.503-.233-3.022-.353-4.534-.526-1.347-.153-2.693-.315-4.04-.467-1.634-.185-3.268-.365-4.902-.542-1.348-.145-2.697-.293-4.046-.426-.64-.063-1.283-.092-1.924-.14-.93-.068-1.86-.14-2.79-.205-1.84-.13-3.682-.3-5.528-.37-2.2-.083-4.405-.077-6.607-.11-2.238-.037-4.475-.084-6.713-.108-1.438-.015-2.877-.02-4.316.01-1.51.028-3.025.03-4.523.19-.69.07-1.333.2-2.05.085-.74-.115-1.52.026-2.283.078-2.786.193-5.57.392-8.355.598-.574.042-1.143.142-1.716.187-1.198.095-2.4.144-3.594.26-1.25.124-2.492.3-3.736.46-2.17.28-4.338.557-6.505.85-1.325.18-2.647.38-3.967.59-.308.048-.605.164-.908.25l.038.17c.158 0 .32.02.473-.005 1.71-.258 3.413-.555 5.126-.777 1.51-.197 3.032-.316 4.548-.46.625-.06 1.25-.1 1.876-.15 2.565-.213 5.13-.436 7.694-.638 1.337-.104 2.675-.17 4.013-.262 1.69-.115 3.38-.287 5.072-.348 2.355-.084 4.712-.08 7.07-.128 1.132-.024 2.265-.12 3.397-.118 2.527.008 5.055.054 7.582.094.23.004.462.078.694.12-.006.04-.01.084-.015.126-.076.02-.153.058-.228.06-1.22.014-2.44.04-3.66.033-1.252-.004-2.506-.077-3.758-.053-2.067.038-4.134.14-6.2.196-1.035.028-2.075-.055-3.103.024-2.16.165-4.316.403-6.473.616-.09.01-.18.057-.268.087.112.123.227.177.347.2.55.096 1.098.19 1.65.274.15.025.305.028.456.018 1.617-.115 3.234-.265 4.853-.34 1.186-.054 2.375 0 3.563-.016 1.153-.014 2.305-.058 3.46-.077.93-.017 1.863 0 2.794-.03.384-.015.762-.13 1.146-.18.275-.037.556-.065.835-.058.18.006.36.112.543.12 1.238.054 2.475.095 3.713.14.644.022 1.288.04 1.93.07.09.003.175.06.262.09l.01.11c-.133.034-.265.09-.4.096-1.048.036-2.102.13-3.148.077-1.983-.1-3.958-.158-5.947-.072-2.693.118-5.393.074-8.09.12-.42.007-.835.13-1.255.184-.35.046-.7.084-1.052.103-.982.054-1.966.078-2.946.148-.978.07-1.95.19-2.927.268-1.708.14-3.418.243-5.124.397-1.215.11-2.424.287-3.637.415-1.247.13-2.5.21-3.745.36-1.683.2-3.363.44-5.044.67-1.377.19-2.754.39-4.13.594-.183.027-.356.114-.533.173l.026.164c.26 0 .524.03.78-.006.757-.1 1.508-.243 2.265-.34 1.935-.24 3.87-.492 5.81-.69 1.532-.155 3.073-.224 4.608-.355 2.215-.19 4.426-.42 6.642-.593 1.352-.107 2.712-.12 4.065-.217 1.672-.12 3.34-.354 5.012-.416 2.572-.095 5.148-.084 7.722-.117 1.27-.018 2.54-.03 3.81-.052.865-.016 1.73-.082 2.594-.058 1.184.033 2.368.128 3.552.2 1.005.064 2.01.134 3.015.2-.412.083-.823.082-1.234.083-2.185.002-4.37.032-6.557-.008-.88-.015-1.75-.04-2.632.013-1.55.093-3.11.03-4.665.094-2.983.123-5.963.27-8.943.444-2.13.126-4.257.303-6.385.474-1.69.135-3.38.273-5.065.453-2.04.217-4.076.487-6.115.723-1.263.146-2.53.247-3.79.414-.99.13-1.963.387-2.953.49-1.91.2-3.78.58-5.64 1.04-.077.02-.142.088-.31.195.22 0 .32.016.414-.003 1.463-.278 2.917-.616 4.39-.83 1.91-.274 3.832-.464 5.75-.667 1.908-.202 3.817-.384 5.726-.553 1.47-.13 2.945-.216 4.415-.338 1.77-.147 3.537-.317 5.307-.46.42-.036.852.04 1.266-.02 2.558-.373 5.137-.417 7.71-.52 2.357-.097 4.716-.11 7.075-.142 2.406-.03 4.81-.062 7.217-.05 1.337.01 2.674.103 4.01.17.203.01.402.086.603.132l-.003.14c-.153.037-.306.106-.46.106-1.44.007-2.883.013-4.325-.004-1.118-.01-2.235-.085-3.353-.077-2.017.014-4.034.07-6.052.107-1.457.028-2.916.022-4.372.093-2.336.115-4.67.276-7.005.426-.507.033-1.012.09-1.517.153-1.105.137-2.207.317-3.316.423-2.65.25-5.306.465-7.958.704-1.25.112-2.498.243-3.746.376-1.754.186-3.508.36-5.258.58-1.374.17-2.744.38-4.11.61-.537.092-1.058.287-1.586.434l.045.155c.31-.068.614-.156.925-.198 1.556-.21 3.11-.43 4.672-.606 2.812-.32 5.626-.624 8.442-.906.754-.075 1.523-.008 2.28-.08 2.21-.205 4.418-.47 6.63-.67 1.62-.148 3.248-.222 4.87-.345.844-.064 1.684-.2 2.53-.24 1.64-.074 3.286-.106 4.93-.15 1.68-.046 3.358-.097 5.037-.12 1.61-.024 3.222-.02 4.833-.02.78 0 1.563-.016 2.34.036 1.165.076 2.326.226 3.49.307.63.044 1.264.007 1.897.007l.007.114c-.447.038-.893.106-1.34.106-.728 0-1.457-.064-2.187-.06-1.796.006-3.594.035-5.392.056-2.97.035-5.938.066-8.908.11-.54.007-1.082.07-1.624.11-.54.038-1.082.09-1.623.118-1.185.06-2.37.09-3.553.17-.914.063-1.82.2-2.735.27-1.216.09-2.44.104-3.65.228-2.563.26-5.12.57-7.68.865-.158.02-.31.097-.465.148l.015.15c.138.025.278.08.415.07.692-.043 1.382-.098 2.073-.157.895-.076 1.788-.177 2.684-.238 2.08-.143 4.16-.267 6.24-.4 2.504-.16 5.008-.325 7.514-.475.76-.047 1.52-.04 2.282-.072 1.98-.084 3.96-.193 5.942-.256 1.2-.038 2.404-.002 3.606-.014.677-.007 1.354-.067 2.03-.06.71.01 1.423.05 2.13.11.715.058 1.425.152 2.137.23l-.008.112c-.162.01-.324.023-.487.027-1.86.043-3.723.083-5.586.123-.135.003-.27-.01-.406-.013-.966-.025-1.932-.087-2.897-.066-1.558.037-3.118.12-4.676.194-1.237.058-2.473.12-3.708.202-1.792.12-3.582.26-5.374.39-.507.037-1.016.057-1.522.11-.316.035-.623.122-.794.553.663 0 1.264.023 1.863-.006 1.184-.058 2.366-.16 3.55-.216 1.12-.052 2.24-.037 3.358-.105 1.282-.078 2.55-.275 3.846-.248 1.507.032 3.016-.083 4.525-.123.694-.02 1.39-.008 2.084-.01 1.576-.002 3.152-.037 4.727.002 1.32.033 2.64.15 3.958.233.143.01.285.035.427.053.002.047.006.095.01.143-.27.03-.538.086-.807.087-.642.003-1.284-.03-1.927-.032-.49 0-.983.053-1.473.035-1.455-.053-2.903-.096-4.364-.016-2.166.12-4.342.013-6.51.09-2.255.08-4.505.264-6.757.406-1.794.113-3.588.213-5.38.354-2.636.208-5.274.42-7.906.68-2.225.217-4.44.513-6.663.755-1.077.118-2.16.183-3.24.292-.264.026-.522.133-.783.202l.023.2c.272.013.547.06.814.032 1.65-.167 3.3-.36 4.95-.524 1.335-.132 2.672-.233 4.007-.347 1.908-.164 3.815-.36 5.725-.482 2.54-.163 5.083-.27 7.625-.398 1.928-.097 3.857-.194 5.787-.28.474-.023.95.006 1.424-.015 1.272-.057 2.54-.153 3.81-.188 1.528-.042 3.056-.045 4.583-.053 1.304-.006 2.618-.098 3.908.036.982.103 1.945.2 2.932.136.45-.03.91.086 1.368.136l-.01.214c-.24 0-.48.005-.72 0-.894-.024-1.79-.066-2.685-.07-.49-.002-.98.084-1.47.09-1.877.027-3.755.032-5.632.056-1.644.022-3.288.05-4.932.092-1.983.054-3.967.09-5.947.202-2.183.123-4.362.332-6.544.487-1.624.113-3.254.166-4.875.31-2.173.192-4.342.44-6.512.676-1.685.182-3.37.37-5.053.572-2.053.245-4.106.492-6.156.766-1.042.14-2.077.33-3.112.513-.2.036-.39.14-.583.214.016.046.032.09.05.136.13 0 .26.015.39-.003 1.392-.195 2.78-.418 4.175-.587 1.176-.14 2.362-.203 3.538-.338 1.126-.128 2.243-.337 3.37-.455 2.462-.255 4.928-.49 7.394-.703 1.64-.143 3.283-.24 4.924-.348 1.947-.126 3.892-.263 5.84-.356 1.83-.087 3.66-.11 5.49-.183 1.593-.063 3.184-.225 4.774-.224 2.61.002 5.22-.262 7.83-.062.17.013.34-.017.51-.02.896-.025 1.798-.1 2.692-.06 1.743.083 3.483.247 5.226.348 1.927.113 3.856.193 5.784.29.033.003.065.03.146.07-1.073 0-2.085.023-3.097-.005-.98-.026-1.96-.126-2.942-.15-1.047-.027-2.094 0-3.142 0-.118 0-.236-.028-.354-.03-.678-.014-1.354-.035-2.032-.032-.388 0-.777.06-1.166.063-1.933.026-3.867.035-5.8.06-1.085.017-2.17.055-3.254.08-1.44.036-2.882.044-4.32.11-1.166.05-2.328.195-3.494.255-1.45.074-2.903.08-4.353.16-1.762.096-3.52.23-5.28.364-1.302.098-2.604.204-3.902.344-.99.108-1.974.306-2.966.407-2.21.226-4.424.408-6.635.625-.792.077-1.58.2-2.368.3-.806.105-1.613.205-2.42.31-.954.126-1.912.23-2.86.393-.67.118-1.324.322-1.985.488l.028.14c.078 0 .157.01.233 0 .723-.096 1.443-.203 2.167-.288.47-.056.952-.042 1.418-.124 1.527-.27 3.045-.604 4.608-.604.086 0 .17-.022.253-.032.89-.113 1.78-.237 2.673-.336.606-.067 1.218-.08 1.823-.15 1.262-.145 2.518-.355 3.784-.457 2.516-.203 5.035-.373 7.555-.517 2.91-.165 5.824-.293 8.737-.425 1.712-.078 3.425-.138 5.137-.198 1.402-.05 2.803-.242 4.208-.04.1.016.203 0 .305-.003 1.982-.056 3.964-.14 5.947-.16 1.49-.016 2.98.033 4.47.08 1.153.035 2.304.11 3.455.17 1.2.058 2.4.106 3.602.18.642.038 1.28.113 1.92.183.096.01.186.08.28.123l-.018.105c-.213.012-.426.047-.637.036-.93-.05-1.86-.136-2.792-.165-2.118-.064-4.235-.11-6.354-.15-1.405-.027-2.812-.032-4.217-.04-.826-.005-1.653-.012-2.477.01-.46.013-.947-.043-1.396.328.145.092.233.19.333.206.582.09 1.165.206 1.752.23.777.03 1.558-.045 2.336-.03 2.207.04 4.413.075 6.617.166 1.76.072 3.52.222 5.28.34.91.06 1.822.122 2.732.184.878.06 1.757.11 2.636.182.365.03.728.105 1.093.158l-.015.126c-.165 0-.332.008-.497 0-1.878-.103-3.755-.24-5.634-.304-3.39-.117-6.783-.258-10.174-.267-4.038-.012-8.074.094-12.11.17-1.917.04-3.833.124-5.75.197-1.49.056-2.98.126-4.47.192-.51.023-.716.182-.774.64.146.01.29.033.43.03.357-.01.712-.04 1.07-.047 2.1-.04 4.204-.066 6.307-.12 1.406-.035 2.812-.11 4.218-.165.71-.028 1.42-.052 2.13-.077.983-.036 1.965-.09 2.947-.1.695-.006 1.39.088 2.084.072 1.2-.03 2.397-.112 3.596-.17.1-.003.21-.005.302.028.494.178.987.196 1.5.066.17-.042.367.027.55.04.303.025.605.062.907.066.458.004.918-.045 1.374-.018.91.056 1.82.162 2.73.22 1.118.074 2.234.13 3.352.176 1 .042 2 .048 3 .098.316.017.63.126.944.193l-.02.2c-.207 0-.413.008-.62-.002-2.236-.102-4.472-.214-6.708-.306-.525-.022-1.053.043-1.578.03-1.95-.053-3.896-.15-5.844-.176-1.798-.022-3.596.017-5.394.043-1.442.02-2.883.063-4.325.1-1.88.05-3.763.086-5.645.162-1.49.06-2.978.175-4.468.265-1.35.082-2.7.14-3.936.49-.4-.075-.744-.21-1.078-.187-1.25.086-2.498.222-3.747.342-1.198.116-2.4.218-3.594.358-1.33.154-2.652.358-3.98.513-2.556.3-5.115.578-7.672.874-.18.02-.354.114-.53.173l.023.162c.225 0 .452.024.672-.005.637-.086 1.268-.225 1.907-.286 1.434-.137 2.874-.22 4.307-.36 1.908-.182 3.81-.438 5.718-.59 2.866-.23 5.738-.4 8.607-.59.473-.032.948-.048 1.423-.075 1.167-.068 2.334-.16 3.502-.2 1.118-.038 2.243.054 3.34-.25.096-.028.2-.022.303-.022 1.44 0 2.88.026 4.318 0 1.575-.03 3.15-.143 4.724-.157 2.086-.02 4.173.03 6.26.034 1.25.003 2.486.18 3.75.057.89-.084 1.81.157 2.718.245.406.04.81.077 1.218.092 1.016.04 2.033.065 3.05.102.092.002.184.037.277.058zm-5.41 7.923c-.098-.09-.196-.18-.298-.276-.052.033-.092.06-.133.085-.152.084-.298.224-.458.242-.84.097-1.68.196-2.524.23-1.268.048-2.54.038-3.81.063-1.34.026-2.68.067-4.017.094-.526.01-1.052-.002-1.578 0-2 .012-4.002.04-6.003.027-.932-.006-1.862-.106-2.793-.13-1.607-.042-3.213-.047-4.818-.09-1.337-.033-2.675-.098-4.012-.145-.49-.017-.984.004-1.473-.036-2.684-.223-5.367-.455-8.05-.69-2.007-.176-4.017-.332-6.02-.553-1.448-.16-2.886-.42-4.33-.624-.77-.11-1.544-.18-2.313-.287-.352-.048-.695-.156-1.046-.21-.887-.134-1.78-.238-2.667-.387-.493-.082-.975-.233-1.465-.345-1.305-.297-2.628-.533-3.915-.898-1.695-.48-3.35-1.1-5.044-1.59-1.585-.458-3.072-1.157-4.6-1.755-1.336-.524-2.377-1.415-3.31-2.49-.65-.75-.98-1.61-1.01-2.54-.02-.573.182-1.22.472-1.724.554-.968 1.286-1.83 2.18-2.516.41-.317.88-.568 1.34-.81 1.232-.645 2.464-1.278 3.826-1.626.967-.246 1.898-.634 2.865-.874 1.412-.35 2.842-.626 4.266-.93.746-.16 1.49-.33 2.24-.457 1.154-.196 2.32-.32 3.467-.545.72-.14 1.424-.254 2.166-.28 1.06-.04 2.113-.288 3.17-.434.553-.076 1.11-.127 1.663-.193 1.646-.196 3.29-.4 4.937-.59 1.514-.173 3.03-.346 4.546-.494 1.214-.117 2.43-.267 3.648-.273 1.646-.01 3.254-.37 4.89-.405.98-.02 1.957-.006 2.935-.01.17 0 .34.015.508-.008 1.917-.27 3.847-.206 5.773-.243 2.068-.04 4.133-.11 6.2-.144.69-.012 1.384.064 2.076.07.44.006.88-.064 1.32-.062 1.068.005 2.137.016 3.206.057 1.49.056 2.978.15 4.467.21.507.02 1.018-.04 1.526-.022 1.25.05 2.5.117 3.75.19 1.15.068 2.3.14 3.45.234 1.285.105 2.566.246 3.85.353 2.433.204 4.87.36 7.3.605 1.394.14 2.775.42 4.165.617.988.14 1.98.248 2.973.356 1.13.123 2.265.19 3.388.353 1.575.23 3.14.516 4.707.8 1.25.23 2.5.462 3.736.753.87.206 1.718.504 2.57.778.757.245 1.524.473 2.255.78 1.514.637 3.013 1.31 4.507 1.994 1.13.518 2.177 1.19 3 2.12.918 1.035 1.26 3.117.177 4.413-.607.728-1.184 1.466-1.866 2.136-.64.63-1.382 1.04-2.173 1.355-1.556.618-3.132 1.194-4.73 1.7-1.14.36-2.332.557-3.49.864-.4.107-.772.325-1.294.552-.562-.13-1.238-.027-1.913.29-.246.117-.606-.04-.895.02-.806.17-1.6.39-2.4.59-.05.013-.1.03-.15.03-1.95.06-3.845.524-5.767.794-1.844.26-3.696.472-5.55.66-2.31.234-4.625.424-6.938.63-.826.073-1.663.077-2.475.223-1.066.194-2.155.087-3.2.28-.953.18-1.88-.008-2.817.073-.702.06-1.404.114-2.106.17l-.066-.102zm-41.66 30.982c.41.01.71.553 1.187.22l.032-.142-1.174-.24-.045.162zM1.595 52.038l.406-1.092-.163-.06c-.416.256-.32.712-.384 1.108l.14.044zm1.236-2.92c-.522.35-.684.687-.492 1.222l.576-1.16c-.028-.02-.056-.04-.084-.062zm8.1 2.48c.026.626.515.734.78 1.02-.03-.486-.334-.74-.78-1.02zm25.553 13.435c.577.09 1.12.407 1.725.297.01-.05.018-.1.026-.15-.58-.095-1.158-.19-1.737-.287l-.015.14zM4.045 47.77c.464-.116.54-.584.853-.795-.532-.084-.85.215-.854.794zm70.98 38.017c-.597-.35-1.234-.13-1.856-.116-.005.048-.01.093-.013.14l1.84.17c.008-.064.018-.13.028-.193zm-61.87-31.044c-.15-.64-.428-1.197-1.01-1.56.294.548.432 1.195 1.01 1.56zm49.02 36.262c-.45-.262-1.527-.422-1.87-.25.68.375 1.45.47 1.87.25zM56.3 92.212c.468.255 2.175.45 2.432.247l-2.408-.41-.024.162zM39.292 65.567c.936.318 1.918.372 2.88.538l.03-.175-2.87-.576-.04.213zm14.225 20.89c1.028.312 2.034.27 3.007.384-1.414-.476-2.678-.65-3.007-.384zM33.964 66.76c-.742-.214-1.268-.912-2.143-.497.303.39 1.588.693 2.144.497zm-19.64-2.496c.085.118.146.272.26.347.485.324.98.636 1.485.926.14.08.335.072.506.105l.05-.154c-.258-.19-.494-.423-.78-.558-.5-.237-.906-.71-1.533-.654l.01-.012zm39.52 25.866l-.665.258c.043.418.348.717.762.77.333.042.6-.054.697-.515l-.795-.513zM1.7 48.515c-.154.308-.235.69.102 1.104.47-.884.9-1.696 1.333-2.507-.508.413-1.122.77-1.436 1.402zm130.934 36.413c-.292.147-.56.318-.467.717.452.105 1.617-.304 1.832-.632.19-.29.133-.467-.19-.648-.43.205-.806.378-1.176.563zM35.282 68.426c-.496-.454-3.078-1.257-3.59-1.08.016.122.035.256.05.358l3.507.883c.01-.054.02-.108.032-.16zm99.394 14.56l-.376-.087c-.22.122-.4.214-.57.317-.343.208-.696.402-1.017.64-.2.147-.31.37-.07.634.88-.052 2.067-.916 2.033-1.504zm-95.655 18.53c-.693-.954-1.943-.93-2.785-1.64-.31-.264-.753-.374-1.143-.538-.08-.034-.19.004-.408.014 1.348 1.123 2.825 1.678 4.337 2.163zm40.823-16.51c.53.044 1.06.093 1.59.132.993.07 1.987.14 2.98.2.336.02.676.017.94-.442-.223-.078-.41-.198-.593-.198-1.487.002-2.973.025-4.46.047-.155.003-.31.047-.467.073l.01.19zM31.837 73.642c.14.125.26.313.42.362 1.52.458 3.027.974 4.62 1.137-.01-.097-.03-.155-.07-.167-1.453-.51-2.906-1.022-4.367-1.513-.162-.054-.366.016-.55.028l-.053.153zm1.682 4.573c1.48.35 2.964.69 4.45 1.02.21.047.44.006.663.006.005-.048.008-.096.012-.145-1.764-.926-3.784-1-5.682-1.756.042.635.132.773.556.873zm42.783 7.842c.23.044.456.11.686.126 1.738.122 3.476.238 5.216.342.472.03.947.033 1.42.01.295-.014.562-.125.51-.59-.463.02-.914.05-1.365.058-1.03.017-2.063.047-3.094.024-.943-.02-1.884-.11-2.827-.157-.178-.01-.357.028-.537.044l-.01.145zM32.715 75.353c.28.072.556.15.835.222 1.272.334 2.544.67 3.818 1 .49.128.982.247 1.478.355.324.07.653.116.98.172l.013-.106c-1.285-.415-2.552-.896-3.857-1.226-1.287-.326-2.518-.886-3.915-1.088.087.512.362.597.647.67zm6.86 2.745c-2.3-.71-4.603-1.42-6.95-2.146l-.262.498c2.353.947 4.726 1.498 7.165 1.788l.046-.14zm-12.28 14.687c.06.175.083.38.19.522.432.583.857 1.178 1.348 1.71 1.136 1.235 2.387 2.337 3.817 3.235.502.317.968.677 1.557.813.102.024.216.004.407.004-1.348-1.046-2.65-1.953-3.83-2.996-1.186-1.048-2.252-2.23-3.37-3.352l-.12.063zm64.182-26.223H89.78c-.352 0-.706.03-1.057 0-.568-.046-1.133-.178-1.7-.19-.864-.017-1.728.05-2.592.06-1.59.014-3.183.006-4.774.023-.406.005-.812.07-1.218.108l.008.11c.062.014.126.038.19.04 1.673.07 3.345.16 5.018.202 1.302.034 2.605.01 3.907.012.44 0 .88.004 1.32-.01.786-.023 1.574-.056 2.36-.095.09-.004.174-.077.26-.118l-.023-.142zm-29.11 31.02c.107.04.21.104.32.116.942.102 1.885.204 2.83.29 2.208.197 4.42.39 6.63.576.777.066 1.555.12 2.334.15.21.01.42-.084.63-.13l.005-.225c-.22-.05-.44-.135-.664-.143-.418-.015-.844.06-1.26.014-.79-.085-1.572-.265-2.364-.338-.882-.082-1.725-.34-2.634-.346-1.313-.01-2.625-.28-3.94-.418-.434-.045-.88-.05-1.317-.01-.215.018-.416.183-.624.282.02.06.04.122.058.183zm15.477-20.32c1.29.088 2.58.18 3.872.263.27.017.542-.007.812.005 1.945.092 3.89.21 5.836.276 1.235.042 2.473.007 3.71.006.067 0 .153.022.2-.01.15-.106.375-.21.413-.354.068-.264-.155-.406-.4-.405-.59.004-1.182.056-1.773.056-2.423 0-4.847-.008-7.27-.023-.947-.006-1.894-.048-2.84-.056-.37 0-.74.055-1.11.063-.484.012-.967.003-1.45.003v.177zm.373-8.418c.294.036.59.093.884.105.962.037 1.924.06 2.885.09.925.03 1.852.07 2.778.094.915.025 1.83.032 2.747.05 1.776.038 3.555.192 5.326-.125.344-.062.706-.02 1.06-.037.104-.005.208-.05.335-.082-.158-.402-.437-.512-.785-.486-.27.02-.537.09-.807.096-1.64.04-3.283.098-4.925.096-2.338-.006-4.676-.07-7.015-.084-.823-.004-1.646.065-2.47.1-.003.06-.008.12-.01.182zm14.527 5.686c-.88.03-1.758.095-2.638.11-1.118.02-2.236.013-3.355-.004-.844-.012-1.69-.063-2.536-.083-1.318-.033-2.638-.07-3.957-.076-.54-.003-1.08.067-1.62.105v.16c.31.066.618.163.932.19.842.07 1.685.122 2.53.16 1.505.067 3.01.132 4.517.173 1.98.054 3.96.083 5.94.124.497.01.656-.137.743-.782-.205-.03-.38-.084-.556-.078zm-62.758-7.998c-.426-.11-.86-.204-1.274-.346-.88-.302-1.743-.648-2.625-.944-.8-.268-1.63-.445-2.414-.746-1.388-.53-2.753-1.125-4.127-1.695-.093-.037-.174-.1-.265-.147-.586-.3-1.17-.605-1.764-.89-.102-.048-.247-.006-.48-.006.097.215.122.408.227.474.626.393 1.24.83 1.915 1.113 1.822.765 3.67 1.467 5.514 2.182.536.208 1.086.386 1.635.557 1.226.382 2.454.756 3.686 1.118.165.048.357.006.605.006-.09-.426-.317-.592-.632-.674zm48.93 5.9c1.537.088 3.076.173 4.615.24 1.117.046 2.235.06 3.35.098.98.035 1.96.116 2.937.12 1.336.008 2.672-.034 4.008-.062.2-.004.414-.013.594-.087.112-.045.24-.218.24-.332-.002-.115-.134-.29-.247-.327-.183-.06-.397-.048-.597-.04-.354.018-.708.07-1.063.08-1.356.043-2.714.115-4.07.1-1.794-.022-3.59-.147-5.385-.163-1.627-.014-3.255.058-4.882.095-.027 0-.052.034-.16.112.27.07.462.156.66.167zm13.573 3.285c-.71.044-1.42.132-2.127.14-1.797.016-3.593.003-5.39-.008-1.218-.008-2.437-.024-3.656-.05-1.15-.024-2.3-.07-3.45-.092-.2-.003-.398.07-.597.107.004.045.006.09.008.137.226.042.45.107.676.123 1.436.098 2.872.192 4.31.272.438.024.88-.01 1.32.003 2.86.09 5.72.188 8.58.274.592.017.755-.157.83-.882-.19-.01-.348-.034-.505-.025zm-15.532-4.534c5.986.315 11.973.59 17.948.372.16-.582.05-.76-.425-.778-.202-.007-.405.014-.61.02-1.93.075-3.858.193-5.788.207-1.88.014-3.76-.094-5.64-.12-1.438-.02-2.875-.007-4.313.015-.398.005-.793.093-1.19.143.006.047.013.093.018.14zm16.43 2.043c-.49.03-.977.12-1.467.122-2.25.008-4.5.003-6.752-.014-2.794-.022-5.588-.062-8.383-.09-.1 0-.203.042-.305.064.068.087.128.116.19.12.926.04 1.818.343 2.765.273.617-.043 1.247.12 1.872.143 2.555.087 5.11.172 7.666.223 1.438.028 2.878-.004 4.317-.026.493-.008.725-.242.767-.768-.243-.02-.457-.06-.668-.046zM77.12 69.88c.273.06.543.16.818.175 1.772.094 3.545.197 5.32.247 2.638.073 5.278.12 7.918.15 1.05.01 2.1-.054 3.15-.093.126-.006.252-.07.408-.114l.034-.45c-.12-.07-.21-.17-.293-.165-5.602.392-11.208-.093-16.81.054-.18.005-.357.05-.535.078l-.01.12zm-53.51-9.277c.277.045.562.066.833.14.308.082.6.228.907.315.684.194 1.376.363 2.063.552.814.224 1.616.49 2.438.686 1.482.353 2.97.68 4.46.99 1.19.248 2.385.45 3.576.673.35.065.697.144 1.05.186.21.024.43-.012.645-.02l.005-.158c-.154-.04-.308-.09-.465-.116-.68-.11-1.362-.193-2.036-.32-.7-.13-1.397-.284-2.088-.456-1.643-.41-3.294-.797-4.92-1.27-1.69-.492-3.344-1.104-5.03-1.61-2.38-.712-4.638-1.71-6.866-2.79-.223-.108-.484-.138-.727-.205l-.078.16c.153.14.29.31.463.413.32.19.66.348.994.51 1.068.516 2.136 1.03 3.207 1.54.528.252 1.062.494 1.593.74l-.026.04zm-6.09 4.366c.544.25 1.086.513 1.635.757 1.372.608 2.742 1.224 4.124 1.808.843.355 1.7.675 2.564.976.893.31 1.794.6 2.703.86.88.252 1.778.432 2.66.68 1.09.308 2.168.667 3.26.975.37.106.77.107 1.15.19.842.184 1.68.396 2.522.582.127.03.27-.016.405-.028v-.104c-.254-.07-.51-.13-.762-.208-1.18-.366-2.36-.735-3.54-1.107-.965-.304-1.925-.63-2.896-.92-1.477-.444-2.968-.84-4.437-1.306-.56-.177-1.06-.538-1.617-.73-.878-.304-1.784-.53-2.672-.805-.188-.06-.354-.192-.527-.294-.162-.094-.31-.21-.48-.283-1.134-.488-2.27-.97-3.406-1.447-.305-.128-.613-.197-1.006.26.107.047.213.093.32.143zm20.432 7.847c-.237-.07-.476-.132-.71-.21-1.286-.423-2.564-.87-3.857-1.272-1.29-.4-2.603-.73-3.89-1.14-1.565-.5-3.113-1.05-4.67-1.575-.37-.123-.758-.198-1.115-.35-.64-.268-1.253-.6-1.895-.865-1.263-.52-2.588-.89-3.758-1.633-.3-.19-.652-.11-.966.165.06.19.122.378.17.524l.77.442c.113-.094.227-.187.385-.314.205.085.426.162.633.266.513.257 1.006.555 1.53.783.686.297 1.396.532 2.087.814.183.076.335.225.5.34l-.07.193c-.298-.05-.613-.053-.888-.16-.582-.226-1.162-.472-1.708-.774-.546-.303-1.227-.272-1.706-.73-.08-.076-.26-.05-.393-.07l-.06.13 1.303 1.15c.906.29 1.542.46 2.15.7.943.372 1.864.802 2.802 1.187.42.173.864.294 1.295.442.832.284 1.673.548 2.492.866 1.117.433 2.366.393 3.438.978.073.04.163.047.244.07 1.6.432 3.198.877 4.804 1.29.738.192 1.49.324 2.237.482l.033-.134c-.172-.054-.343-.11-.516-.162-1.373-.425-2.75-.84-4.12-1.276-1.403-.445-2.8-.913-4.202-1.36-.723-.23-1.462-.42-2.183-.66-1.022-.342-2.036-.71-3.05-1.082-.184-.067-.346-.195-.52-.296l.065-.18c.234.04.478.05.702.12.932.3 1.85.642 2.79.922 1.8.538 3.604 1.065 5.417 1.558 1.337.363 2.69.67 4.036.99.116.03.25-.014.376-.024l.018-.145zm-.994 11.45c-.617-.523-1.183-.708-1.586-.536.05.477.794.744 1.586.538zm-1.164 3.73c.54.068.986.42 1.485.19.016-.058.03-.12.045-.18l-1.59-.614.06.604zm-2.608-5.924c.51.487 2.397.96 2.778.733-.87-.552-1.823-.65-2.778-.733zm-2.186 2.588c.184.46.53.568.86.685 1.288.46 2.57.947 3.878 1.35 1.457.45 2.94.81 4.408 1.22 1.32.37 2.633.76 3.953 1.125 1.272.353 2.547.692 3.825 1.025.703.184 1.41.353 2.12.51 1.388.31 2.782.596 4.165.92.532.126 1.044.336 1.565.507l-.022.144c-.474-.037-.95-.056-1.42-.112-.657-.078-1.315-.162-1.964-.28-.865-.16-1.726-.35-2.587-.535-.89-.19-1.777-.388-2.667-.582-.065-.015-.138-.018-.196-.05-1.438-.75-3.04-.94-4.593-1.195-.918-.15-1.73-.523-2.6-.756-.744-.2-.88-.265-1.504-.113.168.147.27.31.405.345.814.22 1.578.654 2.46.587.05-.004.107.002.15.025 1.524.84 3.29.89 4.888 1.49.393.148.83.17 1.24.278 1.443.375 2.878.785 4.327 1.137 1.004.244 2.024.42 3.04.62 1.297.256 2.597.503 3.897.758.126.025.248.08.373.12l-.007.112c-.316 0-.64.04-.95-.006-2.046-.296-4.094-.586-6.132-.93-.966-.162-1.914-.432-2.87-.663-.576-.14-1.143-.332-1.727-.43-.355-.06-.733.02-1.055-.044-.37-.164-.723-.392-1.11-.48-1.22-.285-2.488-.406-3.662-.808-.783-.268-1.582-.46-2.364-.71-1.543-.494-3.074-1.026-4.607-1.55-.737-.25-1.47-.517-2.204-.78-.858-.31-1.72-.62-2.574-.94-.49-.185-.98-.38-1.46-.593-1.176-.52-2.348-1.045-3.517-1.582-.384-.175-.756-.377-1.12-.592-.13-.078-.222-.227-.32-.332.168-.317.364-.218.55-.14 1.282.54 2.56 1.09 3.843 1.62 1.89.783 3.8 1.507 5.772 2.064.39.11.755.3 1.134.45.23.09.467.175.765.287l.136-.45c-1.95-.654-3.848-1.267-5.73-1.93-.916-.326-1.802-.74-2.7-1.118-.735-.31-1.476-.602-2.198-.935-.676-.314-1.334-.665-1.992-1.014-.284-.15-.424-.378-.216-.75 1.31.595 2.583 1.247 3.912 1.755 1.31.5 2.603 1.092 3.993 1.353.026-.06.052-.12.08-.18-.192-.1-.378-.214-.577-.295-1.037-.42-2.072-.84-3.115-1.245-.754-.292-1.54-.515-2.272-.85-.844-.385-1.654-.846-2.462-1.305-.144-.082-.2-.316-.296-.48.037-.035.075-.07.113-.103.11.02.227.017.325.06.712.307 1.415.635 2.13.934 1.203.5 2.4 1.014 3.62 1.47 1.714.642 3.447 1.237 5.172 1.854.16.057.31.15.47.182.18.038.366.026.55.035.012-.044.023-.087.036-.13-.08-.072-.144-.178-.237-.21-1.21-.43-2.427-.843-3.64-1.27-.575-.202-1.137-.444-1.717-.632-2.08-.672-4.057-1.6-6.065-2.448-.322-.137-.612-.362-.893-.576-.116-.09-.172-.256-.294-.45.19-.02.298-.068.37-.036.496.217.983.45 1.473.678.108.05.21.114.32.156 1.136.434 2.268.88 3.412 1.293 1.642.59 3.29 1.156 4.938 1.73.718.25 1.436.5 2.158.738.15.05.32.044.48.064l.053-.132c-.128-.07-.25-.157-.388-.21-.738-.276-1.474-.565-2.224-.807-.852-.275-1.72-.506-2.58-.755-.097-.028-.21-.03-.29-.085-1.078-.752-2.367-.966-3.56-1.425-.33-.126-.633-.32-.956-.465-.417-.188-.85-.335-1.258-.538-.702-.35-1.393-.724-2.077-1.108-.114-.064-.172-.227-.204-.416 3.885 1.46 7.68 3.1 11.655 4.232l.09-.172c-.114-.088-.217-.21-.346-.256-1.18-.41-2.367-.79-3.542-1.212-1.353-.485-2.715-.954-4.036-1.518-1.29-.55-2.54-1.202-3.797-1.83-.187-.095-.317-.302-.434-.518.52-.133.955.07 1.36.256 1.245.57 2.485 1.128 3.787 1.568 1.232.417 2.393 1.044 3.62 1.475 2.237.784 4.494 1.512 6.754 2.226 1.663.527 3.338 1.02 5.02 1.484 1.495.413 3.012.747 4.51 1.157.79.218 1.558.52 2.31.876-1.915-.42-3.874-.583-5.755-1.18-1.863-.59-3.786-.94-5.69-1.36-.02.052-.037.103-.055.154.314.142.618.325.947.42 2.083.604 4.168 1.2 6.26 1.775 1.158.318 2.327.594 3.493.887.85.214 1.703.424 2.553.64.056.014.102.062.13.194-.632-.057-1.278-.048-1.893-.183-1.67-.366-3.31-.884-4.99-1.167-1.397-.236-2.69-.805-4.077-1.034-.263-.044-.538-.006-.81-.006-.016.053-.032.107-.05.16.13.105.247.258.395.305.548.173 1.108.31 1.662.46 1.47.403 2.936.808 4.405 1.203.177.048.37.037.553.067.214.036.43.074.64.136.3.09.59.218.892.3.922.245 1.85.476 2.773.712-.01.06-.022.122-.034.182-.547-.07-1.106-.088-1.638-.216-1.794-.432-3.573-.92-5.367-1.352-1.12-.27-2.265-.432-3.377-.722-1.062-.277-2.098-.657-3.146-.99-.305-.098-.61-.198-.986.078.14.104.222.21.327.24 2.066.605 4.132 1.212 6.203 1.796 1.938.548 3.882 1.072 5.823 1.605.7.19 1.4.38 2.096.574.088.025.168.08.252.123l-.013.12c-.238 0-.483.036-.712-.006-1.33-.245-2.648-.527-3.942-.957-1.17-.388-2.41-.552-3.61-.85-1.924-.478-3.85-.948-5.755-1.492-1.155-.33-2.27-.802-3.41-1.192-.376-.13-.772-.2-1.232-.317zm-9.345-13.89l1.483.447c.01-.038.023-.076.035-.115-.636-.5-1.17-.66-1.517-.332zm-4.016-2.12c-.143-.413-1.054-1.005-1.487-1.037l-.366.7.11.12.645-.317 1.097.534zm8.506 6.178l.07-.135c-.136-.102-.26-.248-.415-.3-.826-.278-1.657-.535-2.42-.975-.225-.128-.427-.044-.415.36 1.2-.084 1.982 1.11 3.18 1.05zm-3.497-2.894c-.146.432.12.478.33.563 1.187.483 2.37.976 3.565 1.443.242.093.523.085.786.125l.046-.198c-1.566-.64-3.133-1.28-4.726-1.933zM3.01 58.456c-.057.03-.114.062-.17.093-.222.445-.135.894-.007 1.41.715-.116 1.13.307 1.52.79.102.128.256.227.406.295.096.044.228.008.405.008-.067-.14-.08-.226-.125-.25-.5-.248-.666-.772-.99-1.166-.333-.405-.692-.788-1.04-1.18zM44.92 82.19c-.996-.187-1.995-.357-2.986-.567-1.557-.33-3.113-.667-4.66-1.04-.95-.23-1.884-.537-2.83-.793-.31-.085-.637-.114-1.01-.177.192.594.535.81.995.792.24-.01.496.05.73.123 1.064.34 2.114.73 3.186 1.037 1.368.393 2.752.732 4.133 1.08 1.18.298 2.367.568 3.547.87.436.112.856.283 1.284.428l-.022.164c-.18 0-.368.03-.54-.004-1.18-.24-2.36-.48-3.534-.747-.64-.145-1.267-.354-1.906-.516-.672-.17-1.357-.294-2.025-.484-1.662-.473-3.32-.968-4.975-1.462-1.103-.33-2.21-.653-3.302-1.016-1.108-.37-2.198-.793-3.3-1.178-.86-.3-1.733-.56-2.587-.873-.635-.233-1.262-.492-1.866-.794-.832-.415-1.637-.88-2.455-1.322-.31-.165-.513-.373-.367-.766 1.46.55 2.793 1.367 4.337 1.646-1.02-.597-2.017-1.24-3.243-1.5-.234-.898-1.376-.706-1.84-1.45l.718-.468-1.074-.774c-.366.758.215 1.46.054 1.96l1.77 5.9-.103.04.28.262c.234.78.4 1.476.65 2.138.223.593.542 1.15.813 1.724.325.69.642 1.38.964 2.07.194.415.37.84.592 1.237.586 1.043 1.197 2.074 1.794 3.113.03.052.024.125.043.24-.41.002-.633-.243-.83-.5-.22-.29-.43-.597-.612-.914-.368-.642-.75-1.277-1.062-1.944-.448-.95-.815-1.938-1.262-2.89-.582-1.242-1.087-2.507-1.445-3.837-.322-1.19-.72-2.358-1.116-3.526-.12-.347-.373-.647-.508-.99-.267-.677-.498-1.367-.734-2.054-.032-.09-.035-.207-.01-.3.17-.64-.027-1.237-.173-1.846-.085-.355-.112-.724-.165-1.087l.127-.072c-.19-.176-.382-.35-.572-.53-.33-.31-.648-.64-.998-.927-.213-.176-.48-.288-.72-.43-.538-.317-1.075-.63-1.61-.95-.187-.11-.38-.215-.556-.34-.323-.234-.64-.478-.956-.72-.132-.1-.258-.21-.417-.342l.382-.435c-.396-.328-.52.055-.74.235-.59-.027-.78-.562-1.003-.804-1.01-.438-1.973-.7-2.74-1.24-.59-.413-1.154-.818-1.803-1.137-.33-.162-.524-.576-.83-.81-.503-.383-1.065-.69-1.57-1.072-.436-.33-.827-.72-1.237-1.082-.05-.046-.087-.116-.145-.14-.955-.41-1.193-1.263-1.323-2.016-.36-.55-.637-.98-.953-1.466-.02-.285 0-.647-.077-.988-.075-.337-.245-.653-.375-.98L0 54.96c.08-.87.16-1.74.235-2.613.02-.236-.03-.486.03-.71.128-.5.285-.997.476-1.477.048-.12.267-.168.414-.254.054.115.084.15.08.175-.26 1.153-.53 2.304-.786 3.457-.092.416-.083.826.185 1.302l.508-.603c.047 0 .092-.002.138-.003.038.3.06.6.12.894.06.292.16.576.25.89l-.556.08-.155.912.128.087c.2-.09.398-.182.633-.29l.41.615c.24-.7.002-1.293-.128-1.903.674.672.857 1.677 1.684 2.25.112-.15.19-.253.298-.4.803.667 1.537 1.36 2.013 2.336-.45.184-.834-.514-1.29-.05.142.468.676.25.904.527.22.272.434.55.706.895l.308-.038c.125-.466-.284-.44-.494-.663l.144-.41c.672.367 1.25.722 1.597 1.42l-.466.4.177.55-.685.202c.197.564.81.567 1.116 1.05.092-.286.145-.455.222-.7.175.03.344.057.596.098-.17.214-.27.34-.36.45 0 .556.162 1.02.69 1.213.446.165.832.004 1.073-.43l.758-.14c-.78-.86-1.85-1.215-2.658-1.928.276-.297.498-.26.7-.097.48.388.946.8 1.427 1.19.36.29.733.56 1.137.87-.05.102-.117.243-.18.378l.652.828c.707.31 1.383.567 2.02.898.383.2.717.5 1.046.787.18.156.323.287.592.146-.222-.65-.985-.722-1.39-1.284.66-.076 1.046.28 1.458.544.356.226.696.48 1.026.744.353.282.687.588 1.025.887.165.147.318.307.48.456.472.43.944.857 1.4 1.27l-.116.547c.037.043.056.088.08.09.783.13 1.216.66 1.564 1.313.35.65.733 1.284 1.093 1.912.144-.49.138-.583-.6-2.074-.334-.674-.756-1.303-1.15-1.97.26-.266.542-.16.808-.072.514.174 1.022.362 1.53.55 1.064.39 2.13.777 3.19 1.185.962.372 1.912.776 2.872 1.155.203.08.424.114.635.176.286.086.57.18.854.268-.148.467-.36.58-.77.443-1.668-.562-3.335-1.13-5.004-1.686-.157-.053-.33-.06-.496-.086l-.057.155c.252.14.488.337.76.413.65.18 1.26.452 1.885.704 1.126.453 2.304.778 3.453 1.174.21.072.39.23.58.35-.013.06-.03.123-.043.184-.164.038-.334.125-.49.104-.4-.058-.794-.164-1.19-.25-.354-.073-.707-.145-1.082-.144.553.486 1.227.688 1.89.91.338.11.694.185 1.01.338.18.088.3.302.447.46l-.076.174c-.198 0-.412.05-.59-.008-.998-.326-1.984-.69-2.982-1.018-.285-.092-.595-.11-.937-.17.024.442.284.46.498.535.94.326 1.88.657 2.824.977.32.11.648.193.973.288.47.136.65.318.716.788-.147.007-.298.05-.427.017-1.024-.276-2.056-.51-3.03-.97-.823-.39-1.713-.634-2.567-.96-.426-.163-.833-.376-1.26-.54-.278-.11-.575-.17-.864-.253l-.07.17c.175.11.338.25.526.328 1.25.52 2.497 1.052 3.76 1.534.675.257 1.388.41 2.07.643.302.102.568.306.865.423.347.137.71.236 1.067.34.455.132.832.357 1.103.94-.438-.088-.797-.122-1.128-.234-1.28-.43-2.557-.876-3.827-1.336-.65-.236-1.28-.526-1.93-.768-.16-.06-.357-.032-.55.018.38.553.983.663 1.517.875 1.1.436 2.216.833 3.33 1.234.67.24 1.34.478 2.02.683.552.167.68.076.912-.485.056-.135.146-.256.24-.42 1.29.402 2.54.807 3.8 1.18 1.285.377 2.577.73 3.87 1.08 1.254.342 2.514.667 3.77 1-.018.07-.038.14-.058.21zM157.085 50.63c-.038.01-.076.023-.115.034.13.56.26 1.118.392 1.678.07-.02.14-.037.21-.055l-.486-1.657zm-112.33 45.66c-.016.06-.032.122-.05.183l1.658.444.044-.164-1.65-.46zm76.355 2.155c-.444-.253-1.105-.052-1.49.41.57-.155 1.03-.282 1.49-.41zM9.705 48.183c-.188-.178-.302-.378-.446-.402-.188-.03-.4.077-.672.14.34.425.646.42 1.118.263zm92.83 37.007l-.045-.238-1.716.27c.01.062.02.125.028.187l1.732-.22zm1.748-22.63l-.023-.24-1.47.123.014.116h1.478zM37.4 94.14c-.314-.412-.89-.58-1.413-.415.46.25.86.484 1.412.415zm98.997-27.965c-.48-.017-.805.105-.992.505.39.307.587.212.992-.505zm-51.553 30.44c0 .072-.002.146-.004.22l2.08-.108c0-.04 0-.076-.002-.114h-2.074zm43.94-5.14l-.11-.173-1.238.294c.006.048.012.097.02.145l1.115.126c.07-.126.14-.26.213-.393zm-87.13 4.003c.25.33 1.11.576 1.77.505-.56-.363-1.306-.576-1.77-.505zm58.502-10.07l-.01-.242c-.63.144-1.278-.047-1.91.105.004.046.008.09.01.136h1.91zm8.245 16.317c0-.06-.002-.12-.005-.178-.622.054-1.244.11-1.866.167l.012.163c.64.29 1.243-.052 1.86-.153zm-42.55-.98l.022-.21c-.576-.302-1.19-.14-1.785-.2l-.022.23 1.785.18zM98.422 87.81c.722-.11 1.47.29 2.18-.098-.747-.33-1.453.063-2.18.098zm-61.19 5.162c-.642-.236-1.188-.746-1.92-.69.51.6 1.267.506 1.92.69zM143.91 55.676l-.21-.12c-.295.45-.598.897-.88 1.356-.03.052.07.183.11.277.04.002.077.007.116.01.25-.53.712-.942.864-1.524zM101.695 71.49c.494.306 1.44.273 1.877-.082-.66-.087-1.213-.165-1.877.08zm-1.328-11.894c-.73-.188-1.44-.027-2.15.134.733.28 1.443.102 2.15-.134zm-1.532 29.43v-.143c-.827-.2-1.635-.09-2.438.105l.007.154c.81-.04 1.62-.076 2.43-.115zm-52.55 10.25c-.692-.598-1.338-.796-1.976-.67.538.586 1.304.487 1.975.67zm76.542-3.93l.032.137c.82.188 1.53-.17 2.263-.42l-.038-.19-2.258.473zM114.61 64.28l-.035-.123c-.888-.153-1.853.05-2.194.55l2.23-.428zm-7.876 38.345c.93.172 1.834.08 2.712-.283-.47 0-.934.05-1.392.14-.44.085-.918-.325-1.32.143zM126.34 61.16c-.298-.18-.498-.16-1.666.18-.103.03-.183.14-.303.235.48.223 1.736-.075 1.97-.415zM99.67 77.633c.005.047.008.095.01.142.612.295 2.196.17 2.718-.296l-2.727.153zm51.752-14.063c.523-.282 1.065-.534 1.56-.858.207-.137.315-.425.47-.643l-.14-.122c-.887.23-1.29 1.064-1.89 1.622zM32.816 93.702l.046-.125c-1.156-.742-2.675-1.37-3.16-1.184 1.04.436 2.077.873 3.114 1.31zm54.544 4.13c1.048.046 2.097.195 3.12-.137-.508-.26-2.8-.172-3.12.138zm15.32-37.42c-.84-.225-3.38.043-3.7.417 1.312-.03 2.505-.25 3.7-.418zM58.003 99.436c-.6-.403-3.335-.9-3.903-.694 1.34.234 2.487.836 3.904.694zm37.61-12.833c-.962.07-1.944-.216-2.975.177.512.37 2.64.245 2.973-.177zm-84.65-38.58c.37-.332-.05-.488-.08-.62-.082-.387.013-.774-.41-.817l-.94.683c.51.267.958.505 1.43.754zm33.56 46.202c.02-.072.044-.144.065-.216-.9-.51-1.93-.58-2.93-.75.853.653 1.842.863 2.864.965zm55.93-7.758l-.015-.188c-1.403.092-2.81.123-4.207.346 1 .083 1.997.107 2.992.072.412-.014.82-.15 1.228-.23zm3.57-10.153c-1.036-.24-3.717-.022-4.007.29 1.375.057 2.696-.086 4.007-.29zM117.8 58.646l-.022-.197-4.942.824.03.206c1.636-.336 3.317-.362 4.934-.834zm-17.12 7.027c1.246 0 2.486-.074 3.783-.31-.644-.288-3.423-.11-3.783.31zm34.872-.23c.222-.045.41-.025.487-.108.405-.446.527-.985.473-1.567-.642-.108-1.576.15-1.94.537.454.074.954-.388 1.367.213l-.388.924zm-72.12 34.91l.03-.137c-.148-.054-.292-.13-.446-.158-1.278-.223-2.555-.448-3.836-.65-.29-.046-.592-.007-.89-.007-.002.072-.003.143-.006.213 1.705.32 3.417.592 5.147.74zM47.09 96.936c-.01.038-.018.076-.026.114.63.427 6.154 1.64 6.57 1.415l-6.544-1.53zm-12.4-6.05l-.06.168c.23.114.45.254.69.337.892.308 1.79.598 2.686.895.868.287 1.733.583 2.606.856.18.06.385.035.58.05l.014-.153c-1.903-.667-3.804-1.34-5.71-1.995-.256-.09-.535-.106-.805-.156zm71.834 12.59c-.68-.22-5.1.31-5.47.62.453.066.866.25 1.192.15 1.183-.363 2.41-.367 3.613-.543.226-.034.443-.148.664-.226zm21.733-17.172c-.16.13-.293.188-.348.288-.188.336-.353.684-.517 1.032-.185.393-.367.787-.534 1.187-.123.294-.22.6-.35.965.86-.164 1.91-2.31 1.747-3.472zM67.72 99.52c.263.308.264.296 1.958.332.657.013 1.31.104 1.966.147.674.042 1.35.058 2.022.106.882.063 1.69.01 2.017-.2-.23-.025-.39-.057-.55-.06-.895-.015-1.79.012-2.68-.045-1.283-.08-2.56-.23-3.842-.33-.274-.024-.554.03-.89.05zm21.588-11.373c.52.374 5.67.138 6.317-.29-1.843.02-3.59.04-5.337.063-.185.003-.372.018-.553.054-.125.024-.24.095-.427.173zm8.563 6.54c-.414-.367-5.038.015-7.035.54 2.438.033 4.74-.224 7.036-.54zm-71.304-31.79l-.01.225c1.32.504 2.6 1.146 4.116 1.15-.04-.458-.333-.534-.598-.61-.923-.27-1.846-.54-2.777-.777-.228-.057-.486.006-.73.013zM97.614 96.89c-.45-.193-6.352.47-6.665.763 2.33.132 4.494-.332 6.664-.764zm-6.722-.602c0 .048.003.094.005.14.74.24 6.94-.41 7.293-.784-.345-.196-.693-.105-1.034-.048-.25.042-.493.13-.744.156-1.192.114-2.386.21-3.578.32-.65.063-1.295.144-1.942.216zm14.104.778c1.152.346 3.862-1.597 3.94-2.897-1.327.974-2.63 1.933-3.94 2.896zm-17.85-2.87c.552.168 10.293-.354 10.807-.543.045-.017.066-.102.15-.24-.204-.014-.34-.042-.475-.03-.573.053-1.144.125-1.717.174-.99.084-1.984.164-2.977.233-.874.06-1.75.11-2.627.152-.945.047-1.89.08-2.836.128-.074.003-.147.055-.323.126zm17.547-12.98l-.046-.19c-.313 0-.627-.027-.937.003-.768.075-1.53.21-2.3.258-1.096.07-2.195.087-3.293.12-1.083.032-2.166.05-3.25.086-.233.008-.508-.015-.66.298.116.057.202.134.288.133.355-.003.71-.024 1.065-.046 1.907-.128 3.815-.27 5.724-.38.873-.05 1.75-.02 2.625-.062.263-.014.522-.146.783-.223zm-9.008-2.035c.09.295.33.295.567.275.944-.08 1.888-.17 2.832-.244 1.72-.135 3.442-.257 5.162-.394.504-.04 1.006-.11 1.51-.167-.463-.235-9.757.32-10.07.53zM88.92 95.355l.014-.115c-.05-.038-.1-.105-.15-.107-.574-.02-1.15-.055-1.723-.037-.924.028-1.848.127-2.773.137-1.557.016-3.112-.017-4.67-.02-.215 0-.444.03-.496.432 3.295-.007 6.555.103 9.8-.29zM37.857 93.13l-.052.143c.164.09.32.208.494.264.79.25 1.583.484 2.377.723 1.02.306 2.037.634 3.066.91 1.52.406 3.048.778 4.577 1.15.19.047.4.007.6.007l.018-.133c-.365-.12-.724-.26-1.096-.353-.72-.18-1.454-.314-2.174-.5-.933-.242-1.862-.5-2.783-.782-1.308-.4-2.68-.584-3.92-1.22-.32-.166-.736-.143-1.108-.207zm99.345-16.757l-.192.592-.507.245c-.192.796.144 1.696-.533 2.363-.02.02-.02.067-.016.098.096.577-.103 1.02-.583 1.346-.028.02-.02.092-.045.216h.983c.2-.508.41-1.03.61-1.557.32-.847.387-1.782.922-2.56.153-.222.17-.537.26-.856l-.898.113zM16.762 50.757l.57.397c.417.29.813.616 1.254.862 1.486.824 3.087 1.374 4.704 1.874.196.06.423.027.634.037.02-.07.038-.142.057-.213-.194-.1-.38-.223-.585-.293-.508-.175-1.044-.283-1.535-.495-1.408-.608-2.897-1.058-4.126-2.03-.524-.413-1.118-.727-1.463-1.362-.293-.54-.72-1.005-1.088-1.503-.42.117-.442.253-.145.61.582.697 1.148 1.408 1.724 2.117zM88.396 84.41c.3.388.317.408.707.405.56-.005 1.122.01 1.676-.05.788-.083 1.57-.228 2.353-.343.1-.015.2-.017.3-.016 1.014.007 2.027.043 3.04.016 1.25-.034 2.496-.112 3.745-.19.358-.02.714-.107 1.07-.164l-.005-.126c-.107-.037-.213-.112-.318-.108-4.09.138-8.182.282-12.272.433-.087.002-.17.08-.296.143zM67.12 99.6c.008-.04.014-.077.02-.116-.107-.033-.213-.08-.324-.1-1.018-.163-2.036-.324-3.055-.482-.116-.02-.237-.007-.355-.02-.836-.103-1.694-.06-2.5-.38-.47-.188-.948-.37-1.44-.472-1.25-.258-2.54-.25-3.792-.54-.855-.2-1.737-.283-2.602-.447-.897-.17-1.787-.38-2.682-.56-.28-.056-.568-.07-.852-.102-.01.05-.023.102-.035.152.09.058.17.145.267.17.475.126.952.248 1.433.35 1.623.344 3.246.69 4.873 1.012.897.177 1.8.313 2.704.454.583.09 1.175.13 1.754.24.694.13 1.372.346 2.067.462.95.157 1.907.28 2.864.37.55.052 1.108.01 1.66.01zm37.51-35.87v.17c.077.055.156.16.23.157 5.496-.284 10.947-.978 16.388-1.77.095-.014.176-.12.264-.184l-.018-.13c-.202-.015-.408-.06-.606-.04-1.058.12-2.11.267-3.17.38-1.177.125-2.36.21-3.537.34-.362.04-.71.21-1.074.247-1.126.112-2.255.183-3.38.277-1.485.126-2.97.255-4.45.394-.22.022-.432.105-.647.16zm-2.312 19.11l.01-.165c-.125-.02-.25-.053-.372-.054-.473-.006-.947-.017-1.42.002-1.675.064-3.35.15-5.026.21-1.777.06-3.556.14-5.334.142-1.523 0-3.048-.073-4.57-.157-1.726-.095-3.45-.253-5.174-.35-.592-.035-1.19.028-1.794.048.09.635.22.772.762.808.826.052 1.654.102 2.48.112 2.252.03 4.503.03 6.754.058.506.006 1.014.144 1.514.112 1.59-.105 3.172-.276 4.76-.39.57-.04 1.145.04 1.715.013 1.115-.055 2.228-.15 3.34-.227l2.355-.16zm39.505-26.93c.04.057.08.117.118.175-.176.212-.367.413-.524.638-.142.202-.355.433-.35.645.027.788-.443 1.144-1.056 1.456-.382.195-.72.478-1.076.722l.06.105c.582-.005 1.075-.706 1.856-.242l-.922.812c.194.122.345.218.557.35-.03.182-.002.42-.106.554-.194.247-.457.444-.704.645-.227.182-.47.345-.706.517l.06.112c.35-.07.7-.14 1.05-.208l.096.103c-.064.15-.087.35-.2.443-.296.246-.63.445-.947.67-.174.123-.338.26-.507.393.49.21.883-.312 1.317.03.06.718-.84.66-.906 1.148l-.744.36c.507.258.916-.506 1.383.015.105.607-.57.717-.697 1.088.227.19.505.308.568.498.113.34-.22.477-.46.64-.128.086-.228.214-.39.372l.555.164c.017.872-.808 1.054-1.29 1.56.426.242.735.147 1.014-.116.197-.186.364-.407.574-.577.68-.546.963-1.286 1.084-2.116.137-.936.187-1.897.436-2.803.308-1.116.525-2.237.65-3.386.086-.79.288-1.564.417-2.35.16-.962.167-1.966.84-2.775.06-.073.085-.19.087-.288.01-.357.212-.573.456-.81.233-.223.45-.52.542-.825.428-1.39.81-2.796 1.205-4.196.067-.234.17-.48-.11-.71-1.374 1.613-2.983 2.934-4.72 4.127.127.064.24.1.306.06.625-.37 1.24-.756 1.86-1.13.147-.09.31-.155.465-.23l.118.138c-.056.125-.077.29-.172.37-.608.504-1.224 1.004-1.857 1.478-.288.217-.563.427-.7.802.483-.188.937-.42 1.335-.722.25-.19.448-.326.796-.122-.09.138-.18.237-.225.353-.074.194-.187.41-.156.597.076.448-.103.685-.474.9-.318.182-.584.458-.873.693l.074.1.993-.224zm13.574-5.33l.113-.024c.854 1.49 1.22 3.105 1.283 4.82.068 1.768-.785 3.214-1.622 4.77.852-.31 1.08-.987 1.35-1.583.85-1.858.942-3.797.462-5.764-.16-.656-.387-1.296-.607-1.935-.217-.63-.195-1.35-.7-1.876-.056-.06-.03-.193-.04-.28.105-.156.2-.295.303-.45-.093-.603-.627-.892-1.01-1.207-.392-.32-.978-.405-1.48-.592.007-.043.013-.086.018-.13.19-.016.395-.082.57-.037.338.088.66.24.988.362.16.06.326.105.49.158.024-.185.01-.252-.027-.302-.05-.066-.107-.138-.178-.18-.68-.382-1.42-.688-2.182-.5-1.07.266-2.18.47-3.073 1.243-.533.462-1.167.805-1.74 1.226-.924.68-1.836 1.373-2.745 2.073-.112.085-.213.225-.25.36-.115.407-.23.82-.28 1.238-.043.367-.116.775.273 1.073.37-.284.497-.573.31-1.02-.067-.158.058-.447.182-.61.06-.075.324.01.553.024-.093.26-.14.39-.19.524l.058.026c.23-.268.46-.535.68-.787v-.535c-.02-.03-.038-.06-.056-.092.53-.36 1.058-.722 1.56-1.065l.544.306 1.228-.51.323-.414c.69.044 1.38.09 2.032.442l-.243.502c.318.247.623.46.898.705.238.212.52.426.644.703.273.615.44 1.277.685 1.907.304.78.29 1.6.315 2.406.022.76.013 1.517-.513 2.178-.33.416-.542.926-.822 1.384-.185.302-.365.615-.6.873-.66.72-1.34 1.415-2.022 2.11-1.026 1.045-2.275 1.793-3.51 2.556-.328.203-.676.378-1.015.568-.92.518-1.846 1.032-2.76 1.562-.187.11-.323.3-.504.425-.878.6-1.777 1.17-2.64 1.792-.463.335-.92.707-1.29 1.14-.656.768-1.256 1.585-1.847 2.407-.12.167-.093.44-.134.665l.154.064c.147-.13.34-.23.43-.39.713-1.233 1.91-1.988 2.884-2.962.295-.295.534-.657.862-.906.454-.346.958-.63 1.456-.914 1.38-.786 2.767-1.56 4.15-2.338.396-.222.8-.432 1.184-.67.34-.213.675-.442.99-.692.342-.27.64-.594.99-.85.237-.173.575-.22.793-.41.93-.805 1.828-1.645 2.746-2.463.143-.128.33-.207.47-.293.2.12.344.204.486.288.03-.03.06-.064.087-.096l-.26-.507c.148-.232.328-.475.465-.74.65-1.258 1.09-2.562 1.175-4.007.075-1.267-.158-2.44-.574-3.613-.13-.365-.183-.757-.273-1.137zm-1.27 2.368l-.152-.01c-.135-.226-.29-.44-.403-.678-.508-1.066-1.73-1.47-2.68-.804-.91.637-1.774 1.343-2.63 2.05-1.514 1.256-2.635 2.854-3.783 4.423-.65.885-1.253 1.807-1.85 2.73-.195.305-.36.653-.44 1.004-.154.657-.242 1.33-.347 1.998-.096.6-.153 1.21-.272 1.807-.104.526-.28 1.04-.403 1.564-.038.164-.005.346-.005.52.042.032.085.062.128.092.337-.17.684-.325 1.01-.518.72-.428 1.403-.926 2.15-1.302 1.055-.53 1.986-1.245 2.977-1.87.4-.253.786-.526 1.17-.8.862-.62 1.795-1.166 2.557-1.89.867-.825 1.776-1.668 2.144-2.887.033-.11.114-.21.183-.305.627-.858.877-1.816.79-2.873-.063-.75-.096-1.503-.143-2.254zm-52.696 5.277c.03-.037.056-.073.085-.11.198.07.43.1.59.223.362.28.76.36 1.196.324 1.267-.106 2.535-.19 3.797-.334 1.682-.195 3.35-.517 5.037-.642 1.593-.118 3.17-.295 4.745-.552 1.955-.32 3.92-.587 5.88-.885.906-.137 1.81-.276 2.713-.438 1.183-.214 2.366-.43 3.54-.684.94-.203 1.867-.466 2.8-.704.884-.225 1.772-.432 2.65-.682.925-.265 1.837-.575 2.758-.858.632-.194 1.348-.245 1.88-.586 1.23-.785 2.763-1.11 3.676-2.378.04-.053.104-.088.162-.123.92-.555 1.698-1.235 2.07-2.286.034-.094.1-.177.15-.265.368-.64.43-1.306.2-2.008-.067-.207-.08-.43-.142-.64-.128-.45-.264-.898-.412-1.34-.07-.207-.217-.393-.254-.603-.085-.49-.382-.823-.742-1.117-.38-.31-.77-.61-1.163-.902-.19-.14-.39-.27-.605-.367-.893-.403-1.79-.8-2.692-1.18-.81-.34-1.626-.665-2.447-.98-.456-.175-.927-.317-1.392-.472-.755-.25-1.507-.507-2.267-.74-.58-.18-1.17-.34-1.76-.486-1.068-.262-2.136-.535-3.214-.748-.945-.187-1.905-.297-2.86-.44l-4.52-.676c-.2-.03-.4-.07-.6-.1-1.62-.247-3.24-.516-4.865-.73-.937-.124-1.888-.15-2.832-.237-1.774-.165-3.546-.35-5.32-.512-2.28-.21-4.558-.418-6.84-.602-.655-.053-1.32.013-1.976-.024-1.49-.082-2.975-.206-4.464-.288-1.536-.084-3.073-.143-4.61-.205-1.574-.063-3.148-.148-4.723-.166-2.07-.024-4.14-.01-6.208.02-2.425.035-4.85.095-7.274.168-1.22.037-2.437.134-3.656.186-1.388.06-2.778.08-4.166.157-1.143.063-2.284.184-3.427.274-1.67.128-3.34.25-5.013.377-.81.06-1.62.134-2.43.187-.658.043-1.32.04-1.978.1-1.633.144-3.267.293-4.896.476-1.413.158-2.824.345-4.23.555-1.257.19-2.507.43-3.762.643-1.47.248-2.948.448-4.407.742-1.574.32-3.136.703-4.692 1.1-.902.228-1.786.53-2.677.807-1.035.32-2.08.61-3.1.976-.7.25-1.333.706-2.043.892-1.762.46-3.093 1.573-4.386 2.74-.74.668-1.113 1.62-1.468 2.524-.477 1.213.04 2.354.753 3.27.812 1.044 1.853 1.91 2.797 2.85.047.047.113.076.174.105 1.3.61 2.59 1.246 3.906 1.82 1.768.768 3.604 1.357 5.46 1.87 1.224.34 2.46.64 3.696.93 1.17.275 2.347.514 3.522.766.082.018.175.033.252.01.716-.21 1.364.116 2.04.242 1.192.226 2.387.446 3.582.66.62.112 1.245.208 1.868.312l-.006.14c-.298 0-.6.034-.894-.005-1.338-.182-2.675-.375-4.01-.58-1.202-.184-2.406-.364-3.6-.592-1.81-.347-3.625-.676-5.397-1.193-1.382-.4-2.754-.832-4.134-1.235-.18-.053-.382-.025-.575-.034l-.045.215c.247.11.486.247.744.323.794.23 1.597.432 2.395.654 1.826.507 3.65 1.02 5.477 1.523.178.05.37.04.554.068.367.06.75.076 1.09.202.752.278 1.513.48 2.313.535.116.008.23.077.343.118-.01.048-.016.097-.024.145-.22-.018-.444-.02-.66-.057-.348-.06-.69-.155-1.038-.224-1.11-.224-2.226-.42-3.33-.672-.604-.137-1.183-.387-1.784-.546-2.208-.583-4.43-1.113-6.627-1.736-1.283-.365-2.538-.84-3.78-1.328-.634-.25-1.323-.412-1.814-.98-.177-.203-.53-.253-.807-.374l-.3.4-.496.198c.025.11.015.225.064.265.434.346.838.76 1.325.998.91.445 1.87.788 2.81 1.168.313.127.632.24.95.358 1.094.406 2.175.854 3.287 1.206 1.744.55 3.503 1.056 5.267 1.54 1.288.357 2.596.648 3.893.972.11.028.206.1.308.15-.472.22-.892.13-1.308-.025-.158-.06-.315-.128-.478-.163-1.06-.228-2.122-.43-3.176-.676-.69-.16-1.37-.377-2.053-.57-.505-.142-1.01-.29-1.515-.43-.485-.133-.976-.25-1.46-.393-.405-.12-.807-.257-1.204-.4-.7-.252-1.4-.5-2.09-.78-.532-.216-1.046-.48-1.573-.712-.202-.09-.418-.208-.677-.01.325.203.592.418.895.554.942.423 1.89.828 2.846 1.22.61.25 1.23.488 1.86.683 1.26.39 2.533.747 3.798 1.12.944.28 1.875.606 2.83.84 1.346.325 2.71.583 4.064.876.13.028.25.098.374.15l-.04.168c-.34-.03-.686-.04-1.023-.092-.65-.103-1.295-.218-1.937-.352-.78-.16-1.56-.318-2.325-.53-1.24-.344-2.46-.762-3.704-1.094-1.52-.405-3.064-.7-4.497-1.416-1.288-.645-2.644-1.154-3.737-2.157-.198-.567-.27-.634-.92-.872l-.616.553c.164.197.333.42.523.622.19.205.372.446.61.572.626.33 1.286.597 1.922.91.515.255.993.598 1.527.8 1.2.45 2.42.842 3.64 1.243.22.072.475.037.697.106 1.26.39 2.508.824 3.773 1.193 1.267.37 2.547.693 3.828 1.013 1.346.337 2.7.646 4.052.964.096.022.2.006.3.013.42.033.842.05 1.257.106.437.058.865.172 1.3.233 1.427.2 2.855.39 4.283.576 1.46.188 2.918.395 4.382.544 1.6.162 3.21.262 4.814.398 1.57.133 3.136.288 4.706.41 1.32.102 2.64.173 3.96.255 1.98.123 3.96.268 5.943.36 2.573.118 5.148.203 7.723.28.637.02 1.278-.057 1.917-.06 1.287-.004 2.574.023 3.862.018 2.538-.01 5.08.095 7.612-.173.385-.04.78.008 1.168 0 .677-.012 1.354-.033 2.03-.055.66-.023 1.322-.03 1.98-.082.945-.075 1.884-.216 2.83-.272 2.062-.125 4.127-.21 6.19-.325.188-.01.37-.124.556-.19l-.018-.205c-.232-.046-.463-.127-.695-.13-.32-.003-.64.066-.963.08-1.508.07-3.015.14-4.524.182-.295.01-.602-.078-.887-.17-.123-.04-.204-.205-.313-.323.105-.082.143-.135.184-.14 1.34-.16 2.658-.557 4.03-.388.215.027.44.04.554-.308-.174-.024-.316-.07-.455-.06-.726.056-1.453.11-2.176.19-.54.058-.92-.123-1.158-.684.668-.376 1.4-.067 2.08-.22.693-.157 1.417-.18 2.128-.26 0-.068 0-.134-.002-.2-.37-.02-.744-.072-1.113-.052-.66.036-1.317.112-1.975.18-.386.038-.728-.014-.987-.414.215-.137.4-.258.628-.406l-1.095-.994c-.266.02-.675.018-1.07.096-.492.098-.976.248-1.455.405-.56.18-1.104.398-1.66.59-.157.053-.325.092-.492.104-.98.076-1.96.142-2.94.208-.69.045-1.378.106-2.067.122-.798.02-1.595 0-2.393-.005-1.544-.008-3.09-.014-4.633-.032-.293-.003-.586-.062-.984-.106.147-.087.186-.128.226-.13 1.067-.048 2.133-.103 3.2-.138 1.794-.058 3.59-.063 5.383-.165 1.52-.087 3.036-.275 4.554-.427.123-.012.24-.09.36-.137-.01-.06-.023-.118-.034-.178-.226 0-.45-.012-.675.002-1.146.07-2.29.2-3.438.208-1.93.013-3.862-.045-5.792-.086-.745-.017-1.49-.095-2.234-.102-2.12-.022-4.24 0-6.36-.04-1.525-.03-3.048-.148-4.573-.198-3.035-.1-6.07-.17-9.104-.272-1.233-.042-2.464-.123-3.695-.218-1.35-.102-2.7-.242-4.05-.363-.556-.05-1.112-.103-1.668-.148-.32-.025-.645-.02-.964-.06-1.397-.162-2.793-.334-4.19-.503-.875-.105-1.75-.203-2.627-.317-.16-.02-.315-.096-.472-.146l.034-.107c.912-.05 1.804.052 2.717.186 1.773.26 3.57.356 5.36.527.604.058 1.206.154 1.813.2 1.282.1 2.565.187 3.85.265 1.028.062 2.06.105 3.09.154.88.043 1.76.07 2.64.128.402.026.8.152 1.202.167 1.745.064 3.5.018 5.236.172 1.727.152 3.442.182 5.17.14 2.188-.053 4.38 0 6.567-.006 1.23-.003 2.463-.03 3.694-.043.084 0 .165.033.25.043.5.056 1 .163 1.498.156 1.524-.024 3.048-.08 4.57-.146 1.167-.05 2.33-.134 3.496-.213 1.335-.09 2.67-.19 4.004-.29.81-.062 1.618-.13 2.426-.21.15-.016.293-.12.448-.184l-.14-.375zm35.12.134c-.15-.002-.312-.037-.45.004-.502.15-.99.34-1.492.49-1.085.324-2.177.63-3.263.952-.364.108-.72.244-1.08.367.09.093.167.12.237.105 1.044-.21 2.086-.425 3.13-.642.13-.028.26-.07.388-.12.694-.26 1.39-.51 2.075-.792.17-.07.298-.248.446-.376.474.08.91-.03 1.324-.256.575-.312 1.16-.61 1.72-.942.243-.143.44-.36.658-.544l-.1-.19c-.193.046-.404.057-.575.145-.87.45-1.734.91-2.59 1.384-.166.094-.285.275-.426.415zM14.324 64.265c-.444.023-.81-.13-1.173-.395-.924-.675-1.892-1.288-2.816-1.965-.485-.354-.907-.794-1.368-1.182-.538-.453-1.087-.892-1.678-1.376l-.468.118c-.067-1.133-1.015-1.695-1.662-2.452l.258-.48c-.026-.444-.304-.33-.616-.248l-.366-1.518c-.404-.584-.56-1.262-.384-2.058l.504.36.207-.865-.414-.034c-.14-.503-.084-.74.29-1.197.11.082.22.166.363.276l.137-.786.57-.37c-.19-.115-.31-.19-.423-.257-.086-.518.292-.65.61-.845l.464.198c.213-.17.423-.365.658-.52.214-.14.455-.24.655-.443L6.87 48.1l-.06-.122.465-.536-.518-.196c.6-.802 1.54-.263 2.16-.61-.184-.43-.348-.818-.55-1.297-.13.02-.335.046-.538.087-.397.08-.758.125-1.182-.037-.288-.11-.702.093-1.056.175-.212.05-.413.134-.62.203l-.094-.204c.347-.204.672-.5 1.046-.597.912-.238 1.848-.486 2.783-.068.63.28 1.293.512 1.868.88.597.383 1.043.96 1.585 1.512l-.535.26c-.088.35-.116.683.35.877.127-.202.245-.394.422-.68l.284.552-.415.25c-.09.297.17.616.59.694-.017.52.464.56.792.74.213.635-.3.748-.64 1.046l.765-.097c.35.484.7.92.99 1.392.1.168.055.427.07.645.027.333.048.667.08 1.142-.245.49.114.944.47 1.45.254-.322.12-.6.01-.878-.2-.51-.29-1.025-.122-1.586l.748-.098-.775-1.235.493-.264-.06-.5c.095-.088.202-.185.363-.33l-.35-.164-.79.975c-.09-.278-.167-.44-.19-.612-.07-.5-.11-1-.18-1.5-.04-.283-.14-.56-.173-.845-.097-.843-.14-1.693-.264-2.53-.14-.946.178-1.774.552-2.597.525-1.16 1.375-2.02 2.43-2.722.5-.333.875-.863 1.388-1.17.72-.436 1.52-.74 2.28-1.114 1.298-.636 2.63-1.175 4.038-1.524 1.298-.322 2.582-.694 3.874-1.043.163-.044.34-.06.49-.132 1.05-.496 2.22-.44 3.316-.72.443-.115.89-.21 1.34-.294.865-.16 1.732-.307 2.6-.456.835-.14 1.67-.28 2.508-.415.8-.13 1.598-.256 2.4-.37 1.873-.272 3.746-.556 5.624-.793.855-.107 1.723-.105 2.584-.175 1.043-.083 2.084-.206 3.128-.285 1.098-.084 2.2-.14 3.3-.2 1.724-.096 3.45-.186 5.177-.273.9-.046 1.798-.08 2.695-.12 1.252-.06 2.503-.138 3.755-.177 2.355-.072 4.71-.114 7.065-.18 2.442-.072 4.884-.177 7.326-.23 1.204-.026 2.41.03 3.613.047.457.005.915-.017 1.373.002.998.038 1.996.1 2.994.14 1.88.07 3.758.12 5.636.204.658.03 1.313.147 1.97.195.438.032.88-.004 1.316.017.966.045 1.93.09 2.894.17 1.03.085 2.06.2 3.086.32 2.677.317 5.354.64 8.03.965 1.482.18 2.96.378 4.44.544.673.075 1.356.062 2.028.138 1.194.135 2.386.294 3.575.467 1.24.18 2.478.388 3.715.59 1.748.29 3.486.628 5.187 1.13 1.884.558 3.775 1.097 5.634 1.732 1.164.396 2.28.938 3.4 1.448.797.362 1.59.744 2.342 1.186.353.208.62.567.908.875.402.432.773.893 1.182 1.32.41.428.68.908.79 1.5.244 1.324.222 2.626-.18 3.92-.114.37-.18.758-.252 1.14-.017.09.02.19.046.406.298-.174.553-.29.77-.455.746-.58 1.436-1.247 2.23-1.75.705-.445 1.324-.982 1.988-1.47.404-.295.95-.436 1.455-.552.59-.133 1.205-.166 1.81-.237.783-.09 1.468.102 2.062.648.606.557 1.086 1.198 1.492 1.91.226.392.516.75.78 1.118.44.61.652 1.295.713 2.038.02.25.086.495.133.743.118.63.236 1.262.36 1.89.057.298.077.62.206.883.393.81.348 1.668.233 2.497-.08.568-.37 1.123-.637 1.646-.394.764-.786 1.545-1.3 2.226-.63.826-1.38 1.56-2.085 2.328-.253.274-.5.566-.795.785-.963.71-1.944 1.398-2.927 2.08-.498.348-1.006.684-1.528.994-.784.466-1.58.912-2.378 1.353-1.42.787-2.883 1.502-4.253 2.365-1.153.726-2.374 1.4-3.288 2.442-.44.5-.72 1.138-1.116 1.68-.672.93-.725 2.066-1.094 3.096-.576 1.61-1.1 3.242-1.7 4.843-.31.82-.743 1.593-1.12 2.387-.417.887-.802 1.79-1.26 2.655-.44.835-.946 1.637-1.445 2.44-.56.898-1.076 1.833-1.73 2.657-.97 1.217-2.036 2.355-3.075 3.514-.358.4-.758.76-1.108 1.174-.427.396-.815.85-1.29 1.178-2.243 1.538-4.69 2.72-7.08 4.005-2.54 1.364-5.292 2.082-8.036 2.84-1.405.388-2.81.78-4.223 1.138-2.813.712-5.665 1.23-8.54 1.618-1.747.238-3.496.487-5.25.654-3.668.35-7.346.51-11.03.49-.78-.004-1.56.056-2.34.04-1.016-.023-2.03-.09-3.047-.144-2.032-.108-4.064-.215-6.097-.332-1.218-.07-2.44-.118-3.65-.246-2.46-.26-4.896-.69-7.313-1.22-3.988-.875-8-1.657-11.956-2.666-2.154-.55-4.21-1.486-6.31-2.254-.35-.128-.69-.282-1.03-.434-.177-.078-.345-.176-.517-.266l.032-.096c.076-.005.16-.038.225-.014.647.243 1.29.496 1.935.746.834.324 1.657.684 2.507.966 1.753.582 3.52 1.124 5.282 1.68.178.055.36.1.54.142 1.8.407 3.598.824 5.402 1.213 1.108.24 2.228.43 3.34.656.38.077.754.19 1.13.285.115.03.243.093.344.066.524-.143 1 .075 1.497.158 1.1.184 2.208.32 3.313.47.722.1 1.444.193 2.166.288.034.005.067.016.1.017 1.247.073 2.496.133 3.742.22.945.066 1.887.182 2.833.24.455.03.914-.05 1.37-.038 2.068.05 4.138.18 6.205.158 2.645-.03 5.29-.147 7.93-.29 1.25-.067 2.495-.27 3.74-.43 2.486-.318 4.974-.635 7.457-.98.703-.098 1.457-.162 2.072-.47.75-.377 1.52-.478 2.307-.633 1.06-.21 2.106-.493 3.15-.772.567-.153 1.12-.364 1.68-.55.112-.036.225-.11.335-.11 1.014.013 1.915-.417 2.833-.75.602-.217 1.168-.48 1.833-.514.347-.02.683-.273 1.017-.435.594-.288 1.17-.62 1.778-.875.885-.375 1.79-.7 2.687-1.045.19-.073.397-.118.567-.223 1.455-.895 2.904-1.8 4.352-2.705.098-.06.16-.172.252-.247.306-.252.616-.5.926-.747.08-.063.18-.1.25-.172.62-.64 1.24-1.285 1.856-1.93.094-.097.187-.197.275-.3.327-.38.64-.776.976-1.147.418-.458.858-.896 1.285-1.347.354-.37.688-.745.718-1.304.01-.154.122-.32.228-.446.508-.616.87-1.32 1.236-2.023.093-.177.235-.332.37-.484.32-.364.493-.774.613-1.256.116-.473.442-.895.677-1.34.1-.19.235-.372.298-.576.227-.72.43-1.447.644-2.173.05-.173.108-.345.18-.572-.59-.208-.876.317-1.29.43-.428.12-.816.38-1.3.62l-.49-.1c-.53.338-1.05.67-1.6 1.018l.457.282c-.14.988-.168 2.028-1.495 2.357.03.03.057.06.086.093l.998.067-.45.93 1.015-.116.327-.398-.454-.203c-.04-.64.728-1.06 1.486-.82.06.495-.45.528-.683.814.025.17.052.348.082.537-.303.404-.74.685-1.197.687-.64.004-.955.428-1.462.77.188.153.32.26.45.363.357-.15.65-.493 1.043-.2-.157.893-.67 1.265-1.9 1.376-.03.04-.08.087-.1.146-.02.06-.004.128-.004.238.184 0 .35-.023.507.007.154.03.297.115.437.172-.01.44-.295.617-.565.78-.216.13-.46.268-.7.29-.93.082-1.724.586-2.613.79-.18.042-.345.144-.566.24.522.346 1.583.083 2.678-.6l.318.14c.02.645-.473.84-.778 1.062l-1.907.584.014.138 1.062.067c-.06.453-.335.592-.64.708-.587.224-1.174.445-1.756.68-.144.056-.27.16-.485.29l.62.27c.057.35-.188.43-.408.51-.398.147-.82.24-1.195.43-.25.126-.442.376-.653.577-.19.18-.338.435-.56.543-.744.36-1.53.63-2.264 1.005-.612.313-1.15.77-1.763 1.082-.69.35-1.435.583-2.137.91-.857.395-1.797.444-2.683.71-.095.027-.183.08-.274.122-.38.174-.76.352-1.143.523-.348.156-.694.316-1.05.45-.186.07-.39.092-.59.123-.35.056-.703.088-1.05.155-.48.094-.953.288-1.432.3-1.068.025-2.004.415-2.965.817-.752.314-1.576.452-2.37.667-.08.022-.168.02-.248.044-2.25.674-4.58.89-6.894 1.184-1.68.215-3.383.273-5.06.516-2.97.43-5.953.365-8.934.37-2.305.004-4.612-.065-6.914-.175-2.3-.11-4.6-.286-6.895-.486-1.94-.168-3.88-.366-5.81-.638-1.593-.225-3.172-.554-4.75-.874-1.66-.337-3.32-.68-4.964-1.09-1.513-.375-3.005-.834-4.5-1.27-1.074-.31-2.153-.61-3.21-.976-.932-.325-1.836-.733-2.754-1.104l.053-.18c.44.11.885.206 1.322.327.44.12.872.27 1.31.4 1.8.536 3.598 1.083 5.406 1.6.633.18 1.29.27 1.932.417.46.105.913.245 1.373.355 1.27.302 2.533.626 3.81.888 1.526.313 3.057.634 4.6.84 2.47.327 4.953.578 7.432.83 1.502.152 3.03.135 4.51.4.97.174 1.88-.078 2.822-.024 1.656.094 3.32.14 4.98.156 1.372.014 2.744-.044 4.117-.068.27-.005.54.013.81.002.54-.022 1.08-.05 1.618-.087.524-.035 1.048-.084 1.57-.13.76-.064 1.517-.138 2.277-.195.607-.046 1.216-.057 1.822-.11 1.046-.09 2.092-.192 3.135-.312.604-.07 1.207-.17 1.808-.277 1.033-.19 2.063-.397 3.096-.59.297-.056.6-.082.898-.14.245-.045.485-.12.73-.18l-.02-.162c-.122-.025-.244-.073-.365-.07-.522.005-1.063.122-1.56.02-.715-.146-1.348.12-2.008.163-1.032.07-1.996.342-2.99.528-.746.14-1.512.188-2.27.276-1.226.144-2.45.32-3.682.42-1.078.09-2.163.1-3.246.135-1.508.047-3.017.105-4.526.12-1.252.013-2.504-.024-3.755-.05-1.422-.026-2.848-.016-4.266-.108-2.45-.158-4.895-.39-7.343-.577-.638-.05-1.283-.03-1.92-.086-.776-.07-1.546-.198-2.32-.28-.86-.092-1.728-.123-2.582-.25-1.07-.16-2.132-.387-3.197-.588-.182-.035-.362-.085-.544-.123-1.24-.264-2.472-.57-3.722-.774-1.256-.204-2.392-.788-3.63-1.043-1.222-.252-2.44-.535-3.643-.866-.878-.243-1.728-.59-2.596-.88-.414-.136-.837-.247-1.27-.285l-.615.258v-.572c-.157-.014-.333-.077-.48-.036-.44.123-.737-.055-1.042-.35-.21-.204-.49-.347-.76-.478-1.322-.644-2.657-1.264-3.974-1.92-.287-.145-.517-.403-.83-.654.632-.09 1.14.373 1.697.218.01-.05.017-.1.025-.15l-.62-.106c.006-.01.013-.02.02-.028-1.118-.513-2.247-1.004-3.35-1.548-.47-.232-.942-.513-1.197-1.01l.072-.14 3.847 1.494.084-.173c-.476-.25-.947-.513-1.433-.746-1.125-.54-2.258-1.07-3.388-1.603-.215-.1-.437-.194-.635-.32-.19-.124-.357-.286-.533-.43l.04-.134.89.047.043-.1c-.662-.76-1.852-.836-2.404-1.758 1.354.34 2.577 1.016 3.88 1.458l.07-.166c-1.547-.797-3.095-1.593-4.64-2.39.015-.055.032-.112.05-.168.125.013.262 0 .376.044.645.258 1.28.54 1.927.79.226.09.476.116.715.17.023-.05.045-.104.068-.157l-3.83-2.035.076-.18c.166.06.337.11.5.177.814.334 1.625.675 2.44 1.005.084.034.194.005.323-.065-.665-.42-1.316-.865-1.997-1.257-.667-.384-1.506-.47-2.033-1.1l.033-.126c.12.006.256-.024.35.025.452.233.89.486 1.333.734.135.075.254.182.395.233.617.223 1.24.43 1.86.646 1.115.385 2.18.93 3.376 1.058.537.402 1.16.548 1.81.612-.56-.34-1.15-.59-1.818-.603-.29-.167-.565-.38-.875-.492-1.798-.66-3.56-1.4-5.262-2.277-.585-.303-1.17-.61-1.738-.94-.124-.074-.186-.255-.277-.387l.102-.122c.185.05.39.068.554.16 1.97 1.118 4.1 1.846 6.232 2.573 1.2.41 2.37.916 3.566 1.34.988.35 1.995.64 2.992.964.464.15.92.333 1.386.472 1.523.453 3.045.914 4.577 1.332 2.09.57 4.185 1.128 6.288 1.647 1.907.47 3.822.91 5.744 1.314 1.308.273 2.633.463 3.95.682.148.023.307-.04.454-.018.178.025.35.098.563.16-.19.365-.405.275-.618.237-.48-.085-.96-.152-1.44-.235-.795-.136-1.588-.3-2.388-.412-.635-.09-1.28-.11-1.918-.178-1.943-.205-3.846-.598-5.73-1.123-1.485-.413-3.01-.676-4.507-1.045-.74-.182-1.455-.454-2.183-.682-.227-.07-.46-.12-.686-.19-1.304-.414-2.606-.838-3.914-1.244-.294-.09-.606-.13-.91-.195l-.06.17c.193.104.377.238.582.31.864.294 1.73.587 2.603.85 2.27.68 4.532 1.402 6.826 1.996 2.492.647 5.01 1.195 7.53 1.73 1.59.336 3.203.564 4.803.856.27.05.528.18.79.272l-.024.16c-.426 0-.854.034-1.276-.007-2.74-.267-5.44-.772-8.12-1.38-1.388-.316-2.757-.717-4.14-1.06-.224-.055-.475-.007-.714-.007l-.04.18c.4.132.794.284 1.2.39 1.343.35 2.683.717 4.038 1.013 1.605.353 3.224.638 4.836.955.966.19 1.926.412 2.896.576 1.333.226 2.674.404 4.01.617 1.002.16 1.998.366 3.004.51.687.1 1.384.133 2.078.185 1.86.138 3.718.28 5.578.4.83.055 1.662.09 2.492.07.315-.006.627-.192.925-.343.034 0 .08-.013.1.003.5.41 1.05.38 1.623.205.093-.03.2-.02.302-.015 1.416.09 2.83.22 4.25.264.738.022 1.496-.03 2.22-.177.847-.173 1.67-.225 2.524-.104.568.082 1.15.09 1.724.117 2.058.096 4.097-.074 6.117-.47.678-.134 1.344-.335 2.024-.458 1.014-.187 2.037-.33 3.055-.493 1.01-.16 1.863-.69 2.735-1.177.05-.028.078-.098.176-.228-.192-.008-.32-.046-.427-.015-1.692.49-3.373 1.012-5.072 1.473-.877.24-1.776.414-2.676.543-1.273.183-2.556.31-3.836.434-.466.045-.94.017-1.41.01-.425-.005-.85.003-1.27-.047-1.424-.17-2.828-.148-4.25.094-.74.127-1.524.04-2.285-.01-1.45-.096-2.9-.23-4.35-.363-.295-.025-.586-.11-.88-.168l-.007-.152c.366-.063.735-.184 1.1-.177.828.016 1.654.132 2.48.138 1.066.01 2.132-.055 3.198-.07.37-.006.743.05 1.114.058.11.002.22-.058.34-.174-.092-.03-.185-.084-.28-.086-1.2-.03-2.4-.04-3.6-.082-1.575-.054-3.15-.143-4.725-.192-.943-.03-1.89.018-2.832-.027-.93-.045-1.855-.204-2.786-.24-1.836-.076-3.646-.327-5.45-.654-.264-.048-.542-.008-.813-.026-.175-.01-.347-.05-.52-.08l-.03-.175c.163-.05.332-.153.49-.138 1.553.142 3.105.302 4.657.463.168.017.336.053.5.098.365.1.706.092.878-.088 1.83.044 3.54.07 5.248.13 1.39.047 2.777.148 4.166.196 1.287.045 2.576.06 3.864.064.23 0 .464-.12.696-.187l-.024-.18-13.678-.527c-1.052-.138-1.99-.277-2.928-.378-1.197-.13-2.396-.225-3.594-.342-.418-.04-.836-.1-1.253-.163-.12-.02-.233-.084-.35-.127l-.006-.148c.176-.04.356-.13.528-.116 1.248.1 2.494.224 3.74.337.846.076 1.69.163 2.535.215 1.39.086 2.778.16 4.168.22 1.434.06 2.87.097 4.305.135.137.004.276-.06.415-.09.01-.057.018-.113.026-.17-.163-.054-.324-.144-.49-.157-2.604-.2-5.21-.358-7.81-.59-1.84-.165-3.673-.418-5.507-.65-.444-.054-.88-.18-1.32-.274-.003-.04-.005-.08-.01-.12.16-.02.318-.056.476-.053.37.008.743.022 1.113.057.673.066 1.344.16 2.018.22 1.114.1 2.227.198 3.34.27 1.067.07 2.133.113 3.2.15.438.017.877-.012 1.317-.02.084-.002.17-.015.253-.002 1.77.28 3.545.162 5.322.136 1.66-.024 3.32.09 4.98.118.477.01.955-.076 1.434-.118l.014-.216c-.187-.04-.375-.115-.563-.113-1.034.007-2.067.062-3.1.046-2.05-.03-4.1-.14-6.148-.134-1.378.003-2.745-.052-4.108-.22-1.58-.198-3.158-.425-4.738-.626-1.158-.146-2.32-.265-3.48-.412-.41-.05-.815-.148-1.223-.224.007-.043.01-.087.017-.13.29.022.592-.006.864.073.977.28 1.98.204 2.973.266 3.317.21 6.635.408 9.953.596.316.018.637-.063.956-.095.132-.014.278-.06.395-.023.92.297 1.85.15 2.78.084.236-.017.472-.043.71-.043 1.83 0 3.66.036 5.49-.003 1.436-.03 2.87-.147 4.308-.228.065-.004.128-.027.193-.04l.006-.126c-.214 0-.428-.002-.642 0-.506.003-1.013.002-1.518.016-.406.01-.81.037-1.217.06-.1.005-.202.03-.303.028-.59-.002-1.18-.02-1.77-.012-1.575.016-3.15.055-4.726.057-.814 0-1.627-.087-2.44-.083-2.596.014-5.173-.215-7.745-.543-1.29-.166-2.588-.285-3.878-.453-.672-.086-1.337-.23-2.003-.354-.035-.007-.06-.068-.13-.153.156-.013.264-.035.37-.026 1.233.093 2.464.203 3.698.286 1.91.128 3.822.27 5.735.346 1.365.053 2.733-.008 4.1.008.78.01 1.558.103 2.338.1 1.185-.004 2.37-.072 3.557-.092 1.067-.017 2.135.025 3.2-.02 1.014-.042 2.026-.166 3.038-.248.33-.028.66-.04.988-.118-7.33.01-14.673.46-21.972-.926.3-.03.6-.1.896-.086 1.895.09 3.79.206 5.684.298.864.04 1.73.068 2.595.066.59-.002 1.183-.09 1.775-.095 1.543-.014 3.087.02 4.63-.013 1.672-.036 3.345-.114 5.017-.194.846-.04 1.69-.124 2.535-.192.11-.01.22-.036.328-.114-6.63.003-13.266.32-19.873-.423v-.105c3.58-.055 7.16-.132 10.738-.16 3.576-.03 7.15-.096 10.71-.418l.016-.125c-.078-.04-.157-.115-.234-.112-.807.026-1.615.07-2.423.1-.713.022-1.425.03-2.137.048-1.068.03-2.138.1-3.205.09-1.762-.017-3.522-.084-5.283-.132-1.442-.04-2.884-.06-4.324-.13-1.03-.047-2.06-.153-3.09-.246-.632-.057-1.26-.134-1.89-.21-.107-.014-.21-.07-.313-.107l.012-.12c.39 0 .782-.013 1.173.003.354.015.705.088 1.058.092 1.086.01 2.172-.01 3.257.002 1.286.016 2.573.074 3.86.08 2.102.005 4.204-.016 6.306-.03.144 0 .287-.035.46-.06-.06-.357-.293-.36-.505-.344-.875.066-1.746-.16-2.634.053-.433.105-.934-.104-1.406-.12-.463-.015-.928.034-1.468.06-.22-.046-.532-.14-.85-.168-2.227-.195-4.455-.377-6.683-.56-.22-.02-.44-.005-.66-.025-1.313-.117-2.624-.24-3.936-.36l-.006-.166c.125-.012.255-.048.377-.032 2.846.377 5.7.524 8.57.46 1.54-.034 3.08.082 4.62.1.788.01 1.575-.062 2.363-.07.693-.003 1.386.064 2.077.042.83-.025 1.656-.106 2.483-.177.167-.015.328-.094.492-.143l-.005-.155c-.18-.03-.363-.09-.543-.086-1.034.02-2.067.077-3.1.074-.865-.002-1.73-.064-2.593-.108-.128-.008-.252-.063-.37-.095.045-.445.22-.62.698-.646.976-.047 1.94-.144 2.93.06.695.14 1.45.017 2.176-.022 1.117-.06 2.232-.148 3.347-.225.843-.057 1.688-.114 2.53-.176.092-.007.18-.046.27-.07 0-.034 0-.07.002-.104-.19-.032-.38-.098-.567-.092-1.93.07-3.86.158-5.79.23-.492.018-.985-.002-1.476.003-.49.005-.98.035-1.47.024-.302-.007-.614-.033-.898-.124-.16-.05-.276-.25-.445-.414.64-.53 1.5-.077 1.97-.775-3.868-.154-7.722-.417-11.68-.803.258-.108.45-.143.577-.25.166-.14.425-.395.385-.5-.077-.197-.318-.364-.528-.464-.187-.088-.424-.068-.635-.138.55-.034 1.102-.107 1.65-.095 2.525.052 5.05.147 7.574.186 1.474.022 2.948-.04 4.423-.056.32-.003.658-.025.96.057.836.225 1.655.052 2.477-.042.216-.025.422-.138.633-.21 0-.052 0-.103.002-.154-.14-.064-.272-.153-.417-.184-.146-.03-.304-.004-.457-.003-1.456.01-2.912.048-4.368.022-.93-.018-1.86-.14-2.79-.19-.93-.05-1.864-.076-2.797-.1-1.605-.043-3.207-.163-4.8-.382-.113-.015-.222-.06-.333-.092 0-.042 0-.084.002-.127.352-.012.706-.042 1.06-.032.93.028 1.863.085 2.795.103.404.01.81-.06 1.217-.073.268-.01.537.02.804.04.724.052 1.447.14 2.17.158.432.01.867-.085 1.318-.135.023-.37-.185-.464-.466-.48-.795-.047-1.59-.09-2.385-.133-1.22-.065-2.437-.123-3.655-.194-.964-.056-1.927-.12-2.89-.195-.346-.026-.69-.088-1.03-.218.387-.027.772-.06 1.158-.08.39-.024.693-.15.77-.607-.286-.542-.92-.166-1.29-.556h14.847c.05.124.12.286.224.54-.217.078-.39.196-.566.195-.59 0-1.182-.063-1.774-.066-.778-.004-1.558.063-2.335.035-1.964-.07-3.93-.187-5.893-.267-.695-.03-1.393-.01-2.088-.007-.24 0-.462.072-.45.365.014.285.238.345.475.35 1.748.043 3.495.088 5.24.12 1.272.025 2.543.04 3.814.04.71-.002 1.423-.067 2.135-.065.263 0 .525.114.87.196-.35.46-.685.606-1.127.587-.78-.03-1.56-.034-2.34-.04-.13 0-.26.04-.444.07l.043.447c.146.027.244.06.34.06 1.54 0 3.082.02 4.62-.013 1.103-.022 2.204-.105 3.305-.18 1.283-.087 2.567-.19 3.85-.295.524-.043 1.048-.1 1.568-.17.164-.022.318-.108.477-.165-.01-.064-.024-.13-.036-.194-.822.074-1.644.16-2.47.217-.862.058-1.726.094-2.59.124-.848.03-1.696.046-2.543.054-.818.01-1.644.236-2.492.027.09-.46.337-.525.625-.54.693-.042 1.385-.083 2.077-.128.257-.017.41-.135.378-.466-.71-.287-1.512.113-2.224-.175l-.02-.163c.192-.057.382-.15.578-.168 1.366-.137 2.734-.247 4.1-.39.335-.035.66-.16.99-.245-.006-.062-.012-.124-.02-.185-.426-.034-.855-.105-1.28-.093-1.154.034-2.305.102-3.457.157-.272.013-.524 0-.49-.436.108-.04.225-.114.347-.125 1.452-.134 2.905-.25 4.355-.394.462-.047.916-.162 1.375-.246l.01-.15c-.178-.045-.36-.137-.538-.127-1.456.076-2.912.172-4.367.26-.326.02-.67.12-1.038-.254.226-.127.39-.286.57-.31 1.428-.187 2.858-.375 4.292-.508 1.28-.12 2.566-.157 3.847-.253.347-.027.688-.13 1.033-.2l-.008-.16c-.232 0-.465-.01-.697 0-.624.027-1.247.063-1.87.093-1.133.055-2.265.106-3.398.16-.864.044-1.728.102-2.593.132-.498.018-.605-.048-.846-.453 1.834-.19 3.62-.386 5.41-.563 1.78-.176 3.565-.334 5.347-.5l.01-.183c-.262-.01-.524-.042-.783-.03-.91.04-1.82.097-2.73.144-.966.05-1.932.09-2.898.143-.948.052-1.895.12-2.844.166-.222.01-.447-.052-.682-.08.018-.423.27-.42.503-.443.786-.076 1.564-.16 2.365-.158 1.073 0 2.145-.26 3.22-.398.334-.043.672-.062 1.01-.088.945-.075 1.892-.145 2.838-.223.096-.007.188-.056.28-.087.005-.036.01-.072.012-.108-.176-.026-.354-.08-.53-.072-1.795.076-3.59.16-5.385.246-.963.047-1.926.108-2.89.155-.18.01-.36-.02-.53-.03-.093-.45-.038-.52.4-.558.945-.08 1.893-.154 2.838-.25.46-.045.914-.133 1.37-.265-.33-.368-.728-.31-1.122-.288-.982.055-1.964.112-2.946.152-.185.007-.372-.07-.572-.11.044-.417.29-.452.553-.465.56-.027 1.122-.036 1.678-.09 1.702-.17 3.404-.357 5.105-.53.406-.043.816-.063 1.223-.093l.013-.213c-.214-.03-.447-.128-.637-.075-1.085.303-2.193.15-3.29.206-1.1.056-2.203.095-3.305.13-.305.01-.613.006-.914-.034-.282-.036-.424-.2-.283-.502 3.313-.31 6.62-.616 9.925-.923-.47-.298-.965-.254-1.455-.19-.753.102-1.5.262-2.255.337-.45.045-.912-.05-1.367-.04-1.44.032-2.88.086-4.32.13-.097.002-.197-.017-.36-.032.026-.198.05-.37.075-.574l8.958-.814c0-.065-.002-.128-.004-.193-.24-.017-.483-.058-.724-.05-2.44.086-4.882.178-7.322.273-1.67.064-3.347.066-5.01.224-1.595.15-3.18.13-4.775.074-2.168-.074-4.34-.05-6.508-.104-1.385-.036-2.768-.14-4.152-.213l-.01-.11c.085-.02.168-.058.25-.06 1.678-.017 3.355-.033 5.03-.046 1.07-.008 2.136-.01 3.204-.015 1.372-.01 2.745-.015 4.117-.03.966-.012 1.952.074 2.893-.09 1.113-.193 2.212-.174 3.31-.087.724.056 1.378.13 2.136-.06 1.15-.288 2.388-.216 3.587-.316 1.215-.102 2.43-.223 3.644-.343.127-.013.248-.078.488-.158-.198-.08-.29-.148-.386-.15-.255-.01-.51.002-.764.015-1.91.104-3.817.224-5.728.304-.413.016-.833-.108-1.25-.166-.2-.027-.403-.085-.6-.068-.912.08-1.825.16-2.733.284-.34.047-.664.217-1.11.37l-.414-.194c-.006-.043-.012-.086-.02-.13.164-.08.32-.205.492-.234 1.236-.215 2.473-.437 3.718-.597.514-.066 1.05.026 1.574.017.22-.003.442-.08.708-.13-.2-.388-.472-.296-.708-.284-2.725.137-5.45.35-8.175.4-3.038.054-6.077-.03-9.114-.073-1.136-.016-2.27-.112-3.404-.132-1.1-.02-2.203.033-3.304.018-1.66-.024-3.32-.078-4.983-.124-.32-.01-.642-.05-.964-.06-2.304-.077-4.61-.134-6.913-.232-.947-.04-1.89-.184-2.838-.255-1.633-.12-3.267-.223-4.9-.332-2.014-.133-4.022-.303-6.017-.635-1.822-.303-3.663-.492-5.49-.77-1.254-.193-2.532-.34-3.735-.716-1.227-.382-2.496-.335-3.722-.635-1.297-.318-2.627-.504-3.92-.833-2.134-.542-4.25-1.148-6.372-1.736-.39-.11-.77-.265-1.154-.398-.608-.208-1.217-.414-1.825-.623-.097-.032-.196-.06-.286-.106-.923-.462-1.855-.904-2.758-1.4-.426-.234-.794-.574-1.188-.866-.326-.24-.677-.366-1.117-.247.02.096.01.21.057.244.393.29.338.718.43 1.128.144.64.23 1.274.242 1.925 0 .07.08.14.06.108.6.15 1.098.277 1.597.403l-.06.15c.434.23.865.47 1.305.695.618.313 1.236.63 1.867.914.336.15.706.23 1.054.363.977.376 1.95.768 2.927 1.143.253.098.52.165.763-.18-.122-.08-.215-.172-.327-.21-1.07-.373-2.157-.703-3.213-1.112-.832-.323-1.627-.74-2.438-1.115-.154-.072-.307-.147-.464-.21-1.028-.4-2-.888-2.744-1.737-.065-.074-.114-.16-.172-.245.158-.328.352-.248.583-.118.897.506 1.777 1.048 2.707 1.488 1.157.55 2.34 1.05 3.54 1.503 1.804.68 3.624 1.322 5.453 1.935.882.296 1.798.486 2.697.735 1.223.338 2.444.687 3.664 1.035.056.016.1.076.176.135-.276.34-.594.185-.885.124-.928-.195-1.852-.41-2.78-.6-.204-.04-.423-.006-.635-.006l-.06.118c.106.095.197.222.32.28 1.328.626 2.727 1.017 4.17 1.27.426.075.835.238 1.236.43-1.026.2-1.952-.304-2.934-.414-.998-.11-1.97-.466-3.102-.752-.424-.4-1.05-.675-1.816-.613-.257.02-.53-.106-.788-.184-2.338-.706-4.635-1.51-6.894-2.452-1.272-.53-2.435-1.248-3.68-1.82-.336-.153-.616-.432-.92-.653l-.16.104.236.887c.52-.086.837.134 1.18.43.306.264.747.376 1.132.546.976.432 1.944.885 2.934 1.282 1.035.416 2.085.8 3.142 1.156 1.347.456 2.712.858 4.06 1.31.262.088.482.302.72.458l-.05.152c-.123.02-.255.08-.368.055-1.02-.235-2.054-.435-3.05-.747-1-.313-1.97-.726-2.938-1.128-1.188-.492-2.372-.996-3.538-1.534-1.072-.493-2.12-1.036-3.248-1.594.03.726.08 1.47.24 2.085 1.233.525 2.35.994 3.46 1.477.684.296 1.345.645 2.04.915 1.067.413 2.146.802 3.234 1.16 1.512.5 3.035.97 4.558 1.438 2.13.653 4.266 1.29 6.397 1.94.146.043.28.13.417.196l-.026.134c-.12.012-.247.058-.357.03-3.077-.762-6.16-1.498-9.17-2.506-.46-.153-.964-.168-1.49-.254-.522-.585-1.362-.584-2.062-.892-1.798-.79-3.704-1.33-5.394-2.37-.425-.26-.787-.66-1.423-.58-.01.222-.024.474-.038.727-.56-.76-.422-1.67-.594-2.506-.173-.845-.313-1.697-.482-2.626l-.35-.296.294-.604-.07-1.497-.482-.276c-.577-.938-1.14-1.957-1.81-2.903-.325-.457-.644-.865-.59-1.373-.542-.506-1.043-.95-1.516-1.424-.725-.722-1.644-.966-2.608-1.114-.04-.006-.088.034-.163.066.272.554 1.073.43 1.28 1.08-.836-.238-1.642-.66-2.684-.255-.36.63-.82 1.354-1.197 2.12-.347.7-.388 1.47-.26 2.242.005.034.018.068.015.1-.094 1.38.746 2.347 1.5 3.34.49.645.993 1.287 1.56 1.86.492.5 1.065.92 1.63 1.34.758.56 1.533 1.096 2.314 1.622.356.24.734.454 1.12.638.228.107.38.215.353.483l.01-.012z" fill="#814D07" fill-rule="evenodd"/></svg>